<?xml version="1.0" encoding="utf-8"?>
<svg version="1.1" xmlns:xlink="http://www.w3.org/1999/xlink" width="25px" height="20px" xmlns="http://www.w3.org/2000/svg">
  <g transform="matrix(1 0 0 1 -295 -97 )">
    <path d="M 16.1458333333333 12.1052631578947  C 16.1458333333333 9.2  18.4791666666667 6.84210526315789  21.3541666666667 6.84210526315789  C 21.7291666666667 6.84210526315789  22.0885416666667 6.88421052631579  22.4427083333333 6.95789473684211  L 24.625 4.21052631578947  C 24.15625 3.85263157894737  19.4947916666667 0  12.5 0  C 5.50520833333333 0  0.84375 3.85263157894737  0.375 4.21052631578947  L 12.4895833333333 19.4631578947368  L 12.5 19.4736842105263  L 12.5104166666667 19.4631578947368  L 16.1458333333333 14.8842105263158  L 16.1458333333333 12.1052631578947  Z M 25 14.7368421052632  C 25 14.1578947368421  24.53125 13.6842105263158  23.9583333333333 13.6842105263158  L 23.9583333333333 12.1052631578947  C 23.9583333333333 10.6526315789474  22.7916666666667 9.47368421052632  21.3541666666667 9.47368421052632  C 19.9166666666667 9.47368421052632  18.75 10.6526315789474  18.75 12.1052631578947  L 18.75 13.6842105263158  C 18.1770833333333 13.6842105263158  17.7083333333333 14.1578947368421  17.7083333333333 14.7368421052632  L 17.7083333333333 18.9473684210526  C 17.7083333333333 19.5263157894737  18.1770833333333 20  18.75 20  L 23.9583333333333 20  C 24.53125 20  25 19.5263157894737  25 18.9473684210526  L 25 14.7368421052632  Z M 22.9166666666667 12.1052631578947  L 22.9166666666667 13.6842105263158  L 19.7916666666667 13.6842105263158  L 19.7916666666667 12.1052631578947  C 19.7916666666667 11.2315789473684  20.4895833333333 10.5263157894737  21.3541666666667 10.5263157894737  C 22.21875 10.5263157894737  22.9166666666667 11.2315789473684  22.9166666666667 12.1052631578947  Z " fill-rule="nonzero" fill="#000000" stroke="none" transform="matrix(1 0 0 1 295 97 )" />
  </g>
</svg>