<?xml version="1.0" encoding="utf-8"?>
<svg version="1.1" xmlns:xlink="http://www.w3.org/1999/xlink" width="18px" height="10px" xmlns="http://www.w3.org/2000/svg">
  <g transform="matrix(1 0 0 1 -302 -264 )">
    <path d="M 18 5  C 18 4.45  17.5371428571429 4  16.9714285714286 4  L 16.9714285714286 2.5  C 16.9714285714286 1.1  15.84 0  14.4 0  C 12.96 0  11.8285714285714 1.1  11.8285714285714 2.5  L 11.8285714285714 4  C 11.2628571428571 4  10.8 4.45  10.8 5  L 10.8 9  C 10.8 9.55  11.2628571428571 10  11.8285714285714 10  L 16.9714285714286 10  C 17.5371428571429 10  18 9.55  18 9  L 18 5  Z M 15.9428571428571 2.5  L 15.9428571428571 4  L 12.8571428571429 4  L 12.8571428571429 2.5  C 12.8571428571429 1.65  13.5257142857143 1  14.4 1  C 15.2742857142857 1  15.9428571428571 1.65  15.9428571428571 2.5  Z M 5.65714285714286 1  C 2.52 1  0.462857142857143 2.65  0.154285714285715 2.85  L 4.78285714285714 8.45  L 5.65714285714286 9.5  L 9.25714285714286 5.1  L 9.25714285714286 2.5  C 9.25714285714286 2.25  9.25714285714286 2  9.30857142857143 1.8  C 8.38285714285714 1.4  7.14857142857143 1  5.65714285714286 1  Z " fill-rule="nonzero" fill="#000000" stroke="none" transform="matrix(1 0 0 1 302 264 )" />
  </g>
</svg>