<?xml version="1.0" encoding="utf-8"?>
<svg version="1.1" xmlns:xlink="http://www.w3.org/1999/xlink" width="20px" height="13px" xmlns="http://www.w3.org/2000/svg">
  <g transform="matrix(1 0 0 1 -300 -198 )">
    <path d="M 20 7.58333333333333  C 20 6.9875  19.5384615384615 6.5  18.974358974359 6.5  L 18.974358974359 4.875  C 18.974358974359 3.35833333333333  17.8461538461538 2.16666666666667  16.4102564102564 2.16666666666667  C 14.974358974359 2.16666666666667  13.8461538461538 3.35833333333333  13.8461538461538 4.875  L 13.8461538461538 6.5  C 13.2820512820513 6.5  12.8205128205128 6.9875  12.8205128205128 7.58333333333333  L 12.8205128205128 11.9166666666667  C 12.8205128205128 12.5125  13.2820512820513 13  13.8461538461538 13  L 18.974358974359 13  C 19.5384615384615 13  20 12.5125  20 11.9166666666667  L 20 7.58333333333333  Z M 17.9487179487179 4.875  L 17.9487179487179 6.5  L 14.8717948717949 6.5  L 14.8717948717949 4.875  C 14.8717948717949 3.95416666666667  15.5384615384615 3.25  16.4102564102564 3.25  C 17.2820512820513 3.25  17.9487179487179 3.95416666666667  17.9487179487179 4.875  Z M 7.69230769230769 0  C 3.48717948717949 0  0.666666666666667 2.4375  0.307692307692307 2.70833333333333  L 7.69230769230769 12.4583333333333  L 11.2820512820513 7.74583333333333  L 11.2820512820513 4.875  C 11.2820512820513 3.46666666666667  11.7948717948718 2.16666666666667  12.6666666666667 1.19166666666667  C 11.3846153846154 0.541666666666667  9.69230769230769 0  7.69230769230769 0  Z " fill-rule="nonzero" fill="#000000" stroke="none" transform="matrix(1 0 0 1 300 198 )" />
  </g>
</svg>