<?xml version="1.0" encoding="utf-8"?>
<svg version="1.1" xmlns:xlink="http://www.w3.org/1999/xlink" width="21px" height="15px" xmlns="http://www.w3.org/2000/svg">
  <g transform="matrix(1 0 0 1 -299 -132 )">
    <path d="M 21 9.64285714285714  C 21 9.05357142857143  20.5390243902439 8.57142857142857  19.9756097560976 8.57142857142857  L 19.9756097560976 6.96428571428571  C 19.9756097560976 5.46428571428571  18.8487804878049 4.28571428571429  17.4146341463415 4.28571428571429  C 15.9804878048781 4.28571428571429  14.8536585365854 5.46428571428571  14.8536585365854 6.96428571428571  L 14.8536585365854 8.57142857142857  C 14.290243902439 8.57142857142857  13.8292682926829 9.05357142857143  13.8292682926829 9.64285714285714  L 13.8292682926829 13.9285714285714  C 13.8292682926829 14.5178571428571  14.290243902439 15  14.8536585365854 15  L 19.9756097560976 15  C 20.5390243902439 15  21 14.5178571428571  21 13.9285714285714  L 21 9.64285714285714  Z M 18.9512195121951 6.96428571428571  L 18.9512195121951 8.57142857142857  L 15.8780487804878 8.57142857142857  L 15.8780487804878 6.96428571428571  C 15.8780487804878 6.05357142857143  16.5439024390244 5.35714285714286  17.4146341463415 5.35714285714286  C 18.2853658536585 5.35714285714286  18.9512195121951 6.05357142857143  18.9512195121951 6.96428571428571  Z M 8.70731707317073 0  C 3.79024390243902 0  0.460975609756097 2.78571428571429  0.0512195121951218 3.16071428571428  L 8.70731707317073 14.4642857142857  L 12.2926829268293 9.80357142857143  L 12.2926829268293 6.96428571428571  C 12.2926829268293 4.66071428571428  13.6756097560976 2.67857142857143  15.6219512195122 1.92857142857143  C 14.1365853658537 1.07142857142857  11.7292682926829 0  8.70731707317073 0  Z " fill-rule="nonzero" fill="#000000" stroke="none" transform="matrix(1 0 0 1 299 132 )" />
  </g>
</svg>