<?xml version="1.0" encoding="utf-8"?>
<svg version="1.1" xmlns:xlink="http://www.w3.org/1999/xlink" width="8px" height="8px" xmlns="http://www.w3.org/2000/svg">
  <g transform="matrix(1 0 0 1 -312 -325 )">
    <path d="M 1.9921875 0.536458333333314  C 2.60503472222223 0.178819444444457  3.27430555555554 0  4 0  C 4.72569444444446 0  5.39496527777777 0.178819444444457  6.0078125 0.536458333333314  C 6.62065972222223 0.894097222222229  7.10590277777777 1.37934027777777  7.46354166666669 1.9921875  C 7.82118055555554 2.60503472222223  8 3.27430555555554  8 4  C 8 4.72569444444446  7.82118055555554 5.39496527777777  7.46354166666669 6.0078125  C 7.10590277777777 6.62065972222223  6.62065972222223 7.10590277777777  6.0078125 7.46354166666669  C 5.39496527777777 7.82118055555554  4.72569444444446 8  4 8  C 3.27430555555554 8  2.60503472222223 7.82118055555554  1.9921875 7.46354166666669  C 1.37934027777777 7.10590277777777  0.894097222222229 6.62065972222223  0.536458333333314 6.0078125  C 0.178819444444457 5.39496527777777  0 4.72569444444446  0 4  C 0 3.27430555555554  0.178819444444457 2.60503472222223  0.536458333333314 1.9921875  C 0.894097222222229 1.37934027777777  1.37934027777777 0.894097222222229  1.9921875 0.536458333333314  Z M 4.61979166666669 6.6171875  C 4.65104166666669 6.58420138888891  4.66666666666669 6.54340277777777  4.66666666666669 6.49479166666669  L 4.66666666666669 5.50520833333331  C 4.66666666666669 5.45659722222223  4.65104166666669 5.41579861111109  4.61979166666669 5.3828125  C 4.58854166666669 5.34982638888891  4.55034722222223 5.33333333333331  4.50520833333331 5.33333333333331  L 3.50520833333331 5.33333333333331  C 3.46006944444446 5.33333333333331  3.42013888888891 5.35069444444446  3.38541666666669 5.38541666666669  C 3.35069444444446 5.42013888888891  3.33333333333331 5.46006944444446  3.33333333333331 5.50520833333331  L 3.33333333333331 6.49479166666669  C 3.33333333333331 6.53993055555554  3.35069444444446 6.57986111111109  3.38541666666669 6.61458333333331  C 3.42013888888891 6.64930555555554  3.46006944444446 6.66666666666669  3.50520833333331 6.66666666666669  L 4.50520833333331 6.66666666666669  C 4.55034722222223 6.66666666666669  4.58854166666669 6.65017361111109  4.61979166666669 6.6171875  Z M 4.6015625 4.79427083333331  C 4.63454861111109 4.76822916666669  4.65277777777777 4.73784722222223  4.65625 4.703125  L 4.75 1.46875  C 4.75 1.42708333333331  4.73263888888891 1.39583333333331  4.69791666666669 1.375  C 4.66319444444446 1.34722222222223  4.62152777777777 1.33333333333331  4.57291666666669 1.33333333333331  L 3.42708333333331 1.33333333333331  C 3.37847222222223 1.33333333333331  3.33680555555554 1.34722222222223  3.30208333333331 1.375  C 3.26736111111109 1.39583333333331  3.25 1.42708333333331  3.25 1.46875  L 3.33854166666669 4.703125  C 3.33854166666669 4.73784722222223  3.35590277777777 4.76822916666669  3.390625 4.79427083333331  C 3.42534722222223 4.8203125  3.46701388888891 4.83333333333331  3.515625 4.83333333333331  L 4.47916666666669 4.83333333333331  C 4.52777777777777 4.83333333333331  4.56857638888891 4.8203125  4.6015625 4.79427083333331  Z " fill-rule="nonzero" fill="#333333" stroke="none" transform="matrix(1 0 0 1 312 325 )" />
  </g>
</svg>