<?xml version="1.0" encoding="utf-8"?>
<svg version="1.1" xmlns:xlink="http://www.w3.org/1999/xlink" width="21px" height="15px" xmlns="http://www.w3.org/2000/svg">
  <g transform="matrix(1 0 0 1 -326 -275 )">
    <path d="M 1.5 7.5  C 2.8046875 9.41964285714286  4.47265625 10.8147321428571  6.50390625 11.6852678571429  L 7.41796875 10.1116071428571  C 6.73828125 9.64285714285714  6.20703125 9.05133928571429  5.82421875 8.33705357142857  C 5.44140625 7.62276785714286  5.25 6.86755952380952  5.25 6.07142857142857  C 5.25 5.17113095238095  5.48828125 4.33407738095238  5.96484375 3.56026785714286  C 4.17578125 4.43080357142857  2.6875 5.74404761904762  1.5 7.5  Z M 10.8984375 3.59375  C 11.0078125 3.48958333333333  11.0625 3.36309523809524  11.0625 3.21428571428571  C 11.0625 3.06547619047619  11.0078125 2.93898809523809  10.8984375 2.83482142857143  C 10.7890625 2.73065476190476  10.65625 2.67857142857143  10.5 2.67857142857143  C 9.5234375 2.67857142857143  8.685546875 3.01153273809524  7.986328125 3.67745535714286  C 7.287109375 4.34337797619048  6.9375 5.14136904761905  6.9375 6.07142857142857  C 6.9375 6.22023809523809  6.9921875 6.34672619047619  7.1015625 6.45089285714286  C 7.2109375 6.55505952380952  7.34375 6.60714285714286  7.5 6.60714285714286  C 7.65625 6.60714285714286  7.7890625 6.55505952380952  7.8984375 6.45089285714286  C 8.0078125 6.34672619047619  8.0625 6.22023809523809  8.0625 6.07142857142857  C 8.0625 5.43154761904762  8.30078125 4.88467261904762  8.77734375 4.43080357142857  C 9.25390625 3.97693452380952  9.828125 3.75  10.5 3.75  C 10.65625 3.75  10.7890625 3.69791666666667  10.8984375 3.59375  Z M 15.12890625 0.781250000000001  C 15.25390625 0.855654761904761  15.31640625 0.95610119047619  15.31640625 1.08258928571429  C 15.31640625 1.13467261904762  15.3125 1.16815476190476  15.3046875 1.18303571428572  C 14.4765625 2.58928571428572  13.2421875 4.69866071428572  11.6015625 7.51116071428572  C 9.9609375 10.3236607142857  8.73046875 12.4293154761905  7.91015625 13.828125  L 7.3359375 14.8214285714286  C 7.2578125 14.9404761904762  7.1484375 15  7.0078125 15  C 6.9140625 15  6.390625 14.7395833333333  5.4375 14.21875  C 5.3125 14.1443452380952  5.25 14.0401785714286  5.25 13.90625  C 5.25 13.8169642857143  5.421875 13.4933035714286  5.765625 12.9352678571429  C 4.6484375 12.4516369047619  3.619140625 11.8080357142857  2.677734375 11.0044642857143  C 1.736328125 10.2008928571429  0.921875 9.28943452380952  0.234375 8.27008928571428  C 0.078125 8.03943452380952  0 7.78273809523809  0 7.5  C 0 7.2172619047619  0.078125 6.96056547619048  0.234375 6.72991071428571  C 1.4296875 4.98139880952381  2.9140625 3.60119047619047  4.6875 2.58928571428572  C 6.4609375 1.57738095238095  8.3984375 1.07142857142857  10.5 1.07142857142857  C 11.1953125 1.07142857142857  11.8984375 1.13467261904762  12.609375 1.26116071428571  L 13.2421875 0.178571428571428  C 13.3203125 0.0595238095238093  13.4296875 0  13.5703125 0  C 13.609375 0  13.6796875 0.0223214285714285  13.78125 0.0669642857142855  C 13.8828125 0.111607142857142  14.00390625 0.169270833333331  14.14453125 0.239955357142858  C 14.28515625 0.31063988095238  14.4140625 0.379464285714286  14.53125 0.446428571428572  C 14.6484375 0.513392857142857  14.771484375 0.582217261904759  14.900390625 0.652901785714285  C 15.029296875 0.723586309523808  15.10546875 0.766369047619047  15.12890625 0.781250000000001  Z M 15.65625 5.13392857142857  C 15.71875 5.46875  15.75 5.78125  15.75 6.07142857142857  C 15.75 7.10565476190476  15.44140625 8.04873511904762  14.82421875 8.90066964285714  C 14.20703125 9.75260416666667  13.390625 10.3645833333333  12.375 10.7366071428571  L 15.65625 5.13392857142857  Z M 20.765625 6.72991071428571  C 20.921875 6.9828869047619  21 7.23958333333333  21 7.5  C 21 7.76041666666667  20.921875 8.01711309523809  20.765625 8.27008928571428  C 20.4609375 8.74627976190476  20.03515625 9.28571428571429  19.48828125 9.88839285714286  C 18.31640625 11.1681547619048  16.958984375 12.1614583333333  15.416015625 12.8683035714286  C 13.873046875 13.5751488095238  12.234375 13.9285714285714  10.5 13.9285714285714  L 11.3671875 12.4553571428571  C 13.0234375 12.3214285714286  14.556640625 11.811755952381  15.966796875 10.9263392857143  C 17.376953125 10.0409226190476  18.5546875 8.89880952380952  19.5 7.5  C 18.6015625 6.16815476190476  17.5 5.07440476190476  16.1953125 4.21875  L 16.93359375 2.96875  C 17.67578125 3.44494047619047  18.388671875 4.0141369047619  19.072265625 4.67633928571428  C 19.755859375 5.33854166666667  20.3203125 6.02306547619048  20.765625 6.72991071428571  Z " fill-rule="nonzero" fill="#000000" stroke="none" transform="matrix(1 0 0 1 326 275 )" />
  </g>
</svg>