<?xml version="1.0" encoding="utf-8"?>
<svg version="1.1" xmlns:xlink="http://www.w3.org/1999/xlink" width="12px" height="12px" viewBox="799 1013  12 12" xmlns="http://www.w3.org/2000/svg">
  <path d="M 805 1013  C 808.36 1013  811 1015.64  811 1019  C 811 1022.36  808.36 1025  805 1025  C 801.64 1025  799 1022.36  799 1019  C 799 1015.64  801.64 1013  805 1013  Z " fill-rule="nonzero" fill="#ffffff" stroke="none" />
  <path d="M 805 1013.5  C 808.08 1013.5  810.5 1015.92  810.5 1019  C 810.5 1022.08  808.08 1024.5  805 1024.5  C 801.92 1024.5  799.5 1022.08  799.5 1019  C 799.5 1015.92  801.92 1013.5  805 1013.5  Z " stroke-width="1" stroke="#797979" fill="none" />
  <path d="M 805 1022  C 803.32 1022  802 1020.68  802 1019  C 802 1017.32  803.32 1016  805 1016  C 806.68 1016  808 1017.32  808 1019  C 808 1020.68  806.68 1022  805 1022  " fill-rule="nonzero" fill="#797979" stroke="none" />
</svg>