<?xml version="1.0" encoding="utf-8"?>
<svg version="1.1" xmlns:xlink="http://www.w3.org/1999/xlink" width="12px" height="12px" viewBox="799 985  12 12" xmlns="http://www.w3.org/2000/svg">
  <path d="M 805 985  C 808.36 985  811 987.64  811 991  C 811 994.36  808.36 997  805 997  C 801.64 997  799 994.36  799 991  C 799 987.64  801.64 985  805 985  Z " fill-rule="nonzero" fill="#ffffff" stroke="none" />
  <path d="M 805 985.5  C 808.08 985.5  810.5 987.92  810.5 991  C 810.5 994.08  808.08 996.5  805 996.5  C 801.92 996.5  799.5 994.08  799.5 991  C 799.5 987.92  801.92 985.5  805 985.5  Z " stroke-width="1" stroke="#797979" fill="none" />
  <path d="M 805 994  C 803.32 994  802 992.68  802 991  C 802 989.32  803.32 988  805 988  C 806.68 988  808 989.32  808 991  C 808 992.68  806.68 994  805 994  " fill-rule="nonzero" fill="#797979" stroke="none" />
</svg>