<?xml version="1.0" encoding="utf-8"?>
<svg version="1.1" xmlns:xlink="http://www.w3.org/1999/xlink" width="12px" height="12px" viewBox="799 929  12 12" xmlns="http://www.w3.org/2000/svg">
  <path d="M 805 929  C 808.36 929  811 931.64  811 935  C 811 938.36  808.36 941  805 941  C 801.64 941  799 938.36  799 935  C 799 931.64  801.64 929  805 929  Z " fill-rule="nonzero" fill="#ffffff" stroke="none" />
  <path d="M 805 929.5  C 808.08 929.5  810.5 931.92  810.5 935  C 810.5 938.08  808.08 940.5  805 940.5  C 801.92 940.5  799.5 938.08  799.5 935  C 799.5 931.92  801.92 929.5  805 929.5  Z " stroke-width="1" stroke="#797979" fill="none" />
  <path d="M 805 938  C 803.32 938  802 936.68  802 935  C 802 933.32  803.32 932  805 932  C 806.68 932  808 933.32  808 935  C 808 936.68  806.68 938  805 938  " fill-rule="nonzero" fill="#797979" stroke="none" />
</svg>