<?xml version="1.0" encoding="utf-8"?>
<svg version="1.1" xmlns:xlink="http://www.w3.org/1999/xlink" width="15px" height="7px" xmlns="http://www.w3.org/2000/svg">
  <g transform="matrix(1 0 0 1 -796 -808 )">
    <path d="M 14.9203554799437 0.779613187991458  C 13.3919242614854 3.17221460758492  10.5483858136479 4.6578423762395  7.50031420045696 4.6578423762395  C 4.45151001862212 4.6578423762395  1.6079715707848 3.17221460758492  0.0796868660551127 0.779613187991458  C -0.0721013569436764 0.542759273074694  -0.000602657307240406 0.228645176609234  0.239386830407057 0.0790532303460623  C 0.478790263206179 -0.071698343407661  0.796285513436146 -0.000236299310927279  0.947487681519874 0.237197429350999  C 2.28926040953388 2.33728281448794  4.80050572053631 3.64171878776551  7.50031420045696 3.64171878776551  C 10.2001226803777 3.64171878776551  12.7106354227362 2.33728281448794  14.052554664479 0.237197429350999  C 14.2036103188339 -0.000236299310927279  14.5212520827927 -0.071698343407661  14.7605090018631 0.0790532303460623  C 15.0004984895774 0.228500223172887  15.0721437029425 0.542759273074694  14.9203554799437 0.779613187991458  Z M 5.36414403508854 6.57934512785289  C 5.32004340273079 6.8260558764382  5.10349611161871 7  4.8586716708553 7  C 4.82922241137385 7  4.79977315189251 6.99739083814666  4.769737837496 6.99275232818491  C 4.49033615674443 6.94448283389659  4.30309161138496 6.6812473935729  4.3518806830632 6.40467623710958  L 4.75098408021427 4.14311272393275  C 4.80050572053631 3.86654156746931  5.06525602841145 3.6873791202006  5.34539027780681 3.72970552360061  C 5.62479195855838 3.77797501788905  5.81203650391785 4.04121045821273  5.76324743223961 4.31778161467616  L 5.36414403508854 6.57934512785289  Z M 10.1879620408903 6.98941839915005  C 10.1532382871734 6.9968110244015  10.1185145334565 7  10.0836442660109 7  C 9.84570597049935 7  9.63164941277614 6.83460812917997  9.58154171753915 6.59456523866447  L 9.10962099719268 4.33300172548775  C 9.05204110178875 4.05845991713261  9.23064133715116 3.78986119966578  9.50872439434374 3.73303945263569  C 9.78226552594481 3.67810210027733  10.0577113360198 3.85277099102063  10.115144717695 4.12789261312105  L 10.5870654380415 6.38945612629789  C 10.6446453334455 6.66399793465303  10.466045098083 6.93259665211974  10.1879620408903 6.98941839915005  Z M 1.85601931358087 4.99645360343993  C 1.78041822953912 5.2028672967333  1.58335726435257 5.33042632067873  1.37398914594974 5.33042632067873  C 1.31509062698694 5.33042632067873  1.25560605310909 5.32056948701018  1.19817267143378 5.29940628531017  C 0.931371171355863 5.20344711047858  0.79438083496234 4.91180079663991  0.891958978318598 4.64856535631623  L 1.7269407185405 2.38627707595788  C 1.82393280698182 2.12173705470764  2.11930448416854 1.98606063832926  2.3847873606876 2.08332439408764  C 2.65158886076551 2.179138615483  2.78857919715915 2.4709298827579  2.69100105380278 2.7341653230817  L 1.85601931358087 4.99645360343993  Z M 13.7576225284785 5.67193661660519  C 13.6973640944361 5.69553569955542  13.6331345675318 5.70763492337392  13.5683267909164 5.70759516193539  C 13.3643796804779 5.70759516193539  13.1711280722392 5.58655904262355  13.0909850626057 5.3868132074  L 12.1837720541035 3.12452492704165  C 12.0794542792241 2.86389864857154  12.2085328742645 2.56891840569779  12.4719645585809 2.46498679186959  C 12.7353962428972 2.36120013147774  13.0335516809305 2.4889041088594  13.1386020244537 2.75011020107479  L 14.0458150329558 5.01239848143314  C 14.1501328078352 5.27302475990325  14.0216402677099 5.568005002777  13.7576225284785 5.67193661660519  Z " fill-rule="nonzero" fill="#000000" stroke="none" transform="matrix(1 0 0 1 796 808 )" />
  </g>
</svg>