<?xml version="1.0" encoding="utf-8"?>
<svg version="1.1" xmlns:xlink="http://www.w3.org/1999/xlink" width="21px" height="21px" xmlns="http://www.w3.org/2000/svg">
  <g transform="matrix(1 0 0 1 -375 -956 )">
    <path d="M 6.92343750000012 2.03437500000018  C 8.05546875000006 1.55449218749982  9.25927734375 1.3125  10.5 1.3125  C 11.74072265625 1.3125  12.9445312499999 1.55449218749982  14.0765624999999 2.03437500000018  C 15.1696289062499 2.49785156249982  16.1540039062499 3.16025390624964  16.9968750000001 4.00312500000018  C 17.841796875 4.84804687500036  18.5041992187501 5.83037109374982  18.9656250000001 6.92343749999964  C 19.4455078124999 8.05546874999982  19.6875 9.25927734375  19.6875 10.5  C 19.6875 11.74072265625  19.4455078124999 12.9445312500002  18.9656250000001 14.0765625000004  C 18.5021484374999 15.1696289062502  17.8397460937499 16.1540039062502  16.9968750000001 16.9968749999998  C 16.1519531250001 17.841796875  15.1696289062499 18.5041992187498  14.0765624999999 18.9656249999998  C 12.9445312499999 19.4455078125002  11.74072265625 19.6875  10.5 19.6875  C 9.25927734375 19.6875  8.05546875000006 19.4455078125002  6.92343750000012 18.9656249999998  C 5.83037109375006 18.5021484375002  4.84599609375006 17.8397460937504  4.00312499999994 16.9968749999998  C 3.158203125 16.1519531249996  2.49580078124994 15.1696289062502  2.03437499999994 14.0765625000004  C 1.55449218750006 12.9445312500002  1.3125 11.74072265625  1.3125 10.5  C 1.3125 9.25927734375  1.55449218750006 8.05546874999982  2.03437499999994 6.92343749999964  C 2.49785156250006 5.83037109374982  3.16025390625012 4.84599609374982  4.00312499999994 4.00312500000018  C 4.84599609375006 3.16025390624964  5.83037109375006 2.49580078125018  6.92343750000012 2.03437500000018  Z M 21 10.5  C 21 4.70039062500018  16.2996093750001 0  10.5 0  C 4.70039062499994 0  0 4.70039062500018  0 10.5  C 0 16.2996093749998  4.70039062499994 21  10.5 21  C 16.2996093750001 21  21 16.2996093749998  21 10.5  Z " fill-rule="nonzero" fill="#000000" stroke="none" transform="matrix(1 0 0 1 375 956 )" />
  </g>
</svg>