<?xml version="1.0" encoding="utf-8"?>
<svg version="1.1" xmlns:xlink="http://www.w3.org/1999/xlink" width="12px" height="12px" viewBox="421 109  12 12" xmlns="http://www.w3.org/2000/svg">
  <path d="M 427 109  C 430.36 109  433 111.64  433 115  C 433 118.36  430.36 121  427 121  C 423.64 121  421 118.36  421 115  C 421 111.64  423.64 109  427 109  Z " fill-rule="nonzero" fill="#ffffff" stroke="none" />
  <path d="M 427 109.5  C 430.08 109.5  432.5 111.92  432.5 115  C 432.5 118.08  430.08 120.5  427 120.5  C 423.92 120.5  421.5 118.08  421.5 115  C 421.5 111.92  423.92 109.5  427 109.5  Z " stroke-width="1" stroke="#797979" fill="none" />
  <path d="M 427 118  C 425.32 118  424 116.68  424 115  C 424 113.32  425.32 112  427 112  C 428.68 112  430 113.32  430 115  C 430 116.68  428.68 118  427 118  " fill-rule="nonzero" fill="#797979" stroke="none" />
</svg>