<?xml version="1.0" encoding="utf-8"?>
<svg version="1.1" xmlns:xlink="http://www.w3.org/1999/xlink" width="12px" height="12px" viewBox="421 164  12 12" xmlns="http://www.w3.org/2000/svg">
  <path d="M 427 164  C 430.36 164  433 166.64  433 170  C 433 173.36  430.36 176  427 176  C 423.64 176  421 173.36  421 170  C 421 166.64  423.64 164  427 164  Z " fill-rule="nonzero" fill="#f0f0f0" stroke="none" />
  <path d="M 427 164.5  C 430.08 164.5  432.5 166.92  432.5 170  C 432.5 173.08  430.08 175.5  427 175.5  C 423.92 175.5  421.5 173.08  421.5 170  C 421.5 166.92  423.92 164.5  427 164.5  Z " stroke-width="1" stroke="#797979" fill="none" />
  <path d="M 427 173  C 425.32 173  424 171.68  424 170  C 424 168.32  425.32 167  427 167  C 428.68 167  430 168.32  430 170  C 430 171.68  428.68 173  427 173  " fill-rule="nonzero" fill="#797979" stroke="none" />
</svg>