<?xml version="1.0" encoding="utf-8"?>
<svg version="1.1" xmlns:xlink="http://www.w3.org/1999/xlink" width="12px" height="12px" viewBox="421 322  12 12" xmlns="http://www.w3.org/2000/svg">
  <path d="M 427 322  C 430.36 322  433 324.64  433 328  C 433 331.36  430.36 334  427 334  C 423.64 334  421 331.36  421 328  C 421 324.64  423.64 322  427 322  Z " fill-rule="nonzero" fill="#ffffff" stroke="none" />
  <path d="M 427 322.5  C 430.08 322.5  432.5 324.92  432.5 328  C 432.5 331.08  430.08 333.5  427 333.5  C 423.92 333.5  421.5 331.08  421.5 328  C 421.5 324.92  423.92 322.5  427 322.5  Z " stroke-width="1" stroke="#797979" fill="none" />
  <path d="M 427 331  C 425.32 331  424 329.68  424 328  C 424 326.32  425.32 325  427 325  C 428.68 325  430 326.32  430 328  C 430 329.68  428.68 331  427 331  " fill-rule="nonzero" fill="#797979" stroke="none" />
</svg>