<?xml version="1.0" encoding="utf-8"?>
<svg version="1.1" xmlns:xlink="http://www.w3.org/1999/xlink" width="12px" height="12px" viewBox="421 350  12 12" xmlns="http://www.w3.org/2000/svg">
  <path d="M 427 350  C 430.36 350  433 352.64  433 356  C 433 359.36  430.36 362  427 362  C 423.64 362  421 359.36  421 356  C 421 352.64  423.64 350  427 350  Z " fill-rule="nonzero" fill="#f0f0f0" stroke="none" />
  <path d="M 427 350.5  C 430.08 350.5  432.5 352.92  432.5 356  C 432.5 359.08  430.08 361.5  427 361.5  C 423.92 361.5  421.5 359.08  421.5 356  C 421.5 352.92  423.92 350.5  427 350.5  Z " stroke-width="1" stroke="#797979" fill="none" />
  <path d="M 427 359  C 425.32 359  424 357.68  424 356  C 424 354.32  425.32 353  427 353  C 428.68 353  430 354.32  430 356  C 430 357.68  428.68 359  427 359  " fill-rule="nonzero" fill="#797979" stroke="none" />
</svg>