<?xml version="1.0" encoding="utf-8"?>
<svg version="1.1" xmlns:xlink="http://www.w3.org/1999/xlink" width="12px" height="12px" viewBox="421 517  12 12" xmlns="http://www.w3.org/2000/svg">
  <path d="M 427 517  C 430.36 517  433 519.64  433 523  C 433 526.36  430.36 529  427 529  C 423.64 529  421 526.36  421 523  C 421 519.64  423.64 517  427 517  Z " fill-rule="nonzero" fill="#ffffff" stroke="none" />
  <path d="M 427 517.5  C 430.08 517.5  432.5 519.92  432.5 523  C 432.5 526.08  430.08 528.5  427 528.5  C 423.92 528.5  421.5 526.08  421.5 523  C 421.5 519.92  423.92 517.5  427 517.5  Z " stroke-width="1" stroke="#797979" fill="none" />
  <path d="M 427 526  C 425.32 526  424 524.68  424 523  C 424 521.32  425.32 520  427 520  C 428.68 520  430 521.32  430 523  C 430 524.68  428.68 526  427 526  " fill-rule="nonzero" fill="#797979" stroke="none" />
</svg>