<?xml version="1.0" encoding="utf-8"?>
<svg version="1.1" xmlns:xlink="http://www.w3.org/1999/xlink" width="12px" height="12px" viewBox="421 430  12 12" xmlns="http://www.w3.org/2000/svg">
  <path d="M 427 430  C 430.36 430  433 432.64  433 436  C 433 439.36  430.36 442  427 442  C 423.64 442  421 439.36  421 436  C 421 432.64  423.64 430  427 430  Z " fill-rule="nonzero" fill="#f0f0f0" stroke="none" />
  <path d="M 427 430.5  C 430.08 430.5  432.5 432.92  432.5 436  C 432.5 439.08  430.08 441.5  427 441.5  C 423.92 441.5  421.5 439.08  421.5 436  C 421.5 432.92  423.92 430.5  427 430.5  Z " stroke-width="1" stroke="#797979" fill="none" />
  <path d="M 427 439  C 425.32 439  424 437.68  424 436  C 424 434.32  425.32 433  427 433  C 428.68 433  430 434.32  430 436  C 430 437.68  428.68 439  427 439  " fill-rule="nonzero" fill="#797979" stroke="none" />
</svg>