<?xml version="1.0" encoding="utf-8"?>
<svg version="1.1" xmlns:xlink="http://www.w3.org/1999/xlink" width="12px" height="12px" viewBox="421 542  12 12" xmlns="http://www.w3.org/2000/svg">
  <path d="M 427 542  C 430.36 542  433 544.64  433 548  C 433 551.36  430.36 554  427 554  C 423.64 554  421 551.36  421 548  C 421 544.64  423.64 542  427 542  Z " fill-rule="nonzero" fill="#f0f0f0" stroke="none" />
  <path d="M 427 542.5  C 430.08 542.5  432.5 544.92  432.5 548  C 432.5 551.08  430.08 553.5  427 553.5  C 423.92 553.5  421.5 551.08  421.5 548  C 421.5 544.92  423.92 542.5  427 542.5  Z " stroke-width="1" stroke="#797979" fill="none" />
  <path d="M 427 551  C 425.32 551  424 549.68  424 548  C 424 546.32  425.32 545  427 545  C 428.68 545  430 546.32  430 548  C 430 549.68  428.68 551  427 551  " fill-rule="nonzero" fill="#797979" stroke="none" />
</svg>