<?xml version="1.0" encoding="utf-8"?>
<svg version="1.1" xmlns:xlink="http://www.w3.org/1999/xlink" width="12px" height="12px" viewBox="421 569  12 12" xmlns="http://www.w3.org/2000/svg">
  <path d="M 427 569  C 430.36 569  433 571.64  433 575  C 433 578.36  430.36 581  427 581  C 423.64 581  421 578.36  421 575  C 421 571.64  423.64 569  427 569  Z " fill-rule="nonzero" fill="#ffffff" stroke="none" />
  <path d="M 427 569.5  C 430.08 569.5  432.5 571.92  432.5 575  C 432.5 578.08  430.08 580.5  427 580.5  C 423.92 580.5  421.5 578.08  421.5 575  C 421.5 571.92  423.92 569.5  427 569.5  Z " stroke-width="1" stroke="#797979" fill="none" />
  <path d="M 427 578  C 425.32 578  424 576.68  424 575  C 424 573.32  425.32 572  427 572  C 428.68 572  430 573.32  430 575  C 430 576.68  428.68 578  427 578  " fill-rule="nonzero" fill="#797979" stroke="none" />
</svg>