<?xml version="1.0" encoding="utf-8"?>
<svg version="1.1" xmlns:xlink="http://www.w3.org/1999/xlink" width="12px" height="12px" viewBox="421 681  12 12" xmlns="http://www.w3.org/2000/svg">
  <path d="M 427 681  C 430.36 681  433 683.64  433 687  C 433 690.36  430.36 693  427 693  C 423.64 693  421 690.36  421 687  C 421 683.64  423.64 681  427 681  Z " fill-rule="nonzero" fill="#ffffff" stroke="none" />
  <path d="M 427 681.5  C 430.08 681.5  432.5 683.92  432.5 687  C 432.5 690.08  430.08 692.5  427 692.5  C 423.92 692.5  421.5 690.08  421.5 687  C 421.5 683.92  423.92 681.5  427 681.5  Z " stroke-width="1" stroke="#797979" fill="none" />
  <path d="M 427 690  C 425.32 690  424 688.68  424 687  C 424 685.32  425.32 684  427 684  C 428.68 684  430 685.32  430 687  C 430 688.68  428.68 690  427 690  " fill-rule="nonzero" fill="#797979" stroke="none" />
</svg>