<?xml version="1.0" encoding="utf-8"?>
<svg version="1.1" xmlns:xlink="http://www.w3.org/1999/xlink" width="12px" height="12px" viewBox="421 431  12 12" xmlns="http://www.w3.org/2000/svg">
  <path d="M 427 431  C 430.36 431  433 433.64  433 437  C 433 440.36  430.36 443  427 443  C 423.64 443  421 440.36  421 437  C 421 433.64  423.64 431  427 431  Z " fill-rule="nonzero" fill="#f0f0f0" stroke="none" />
  <path d="M 427 431.5  C 430.08 431.5  432.5 433.92  432.5 437  C 432.5 440.08  430.08 442.5  427 442.5  C 423.92 442.5  421.5 440.08  421.5 437  C 421.5 433.92  423.92 431.5  427 431.5  Z " stroke-width="1" stroke="#797979" fill="none" />
  <path d="M 427 440  C 425.32 440  424 438.68  424 437  C 424 435.32  425.32 434  427 434  C 428.68 434  430 435.32  430 437  C 430 438.68  428.68 440  427 440  " fill-rule="nonzero" fill="#797979" stroke="none" />
</svg>