<?xml version="1.0" encoding="utf-8"?>
<svg version="1.1" xmlns:xlink="http://www.w3.org/1999/xlink" width="12px" height="12px" xmlns="http://www.w3.org/2000/svg">
  <g transform="matrix(1 0 0 1 -13 -108 )">
    <path d="M 12 6  C 12 2.69999999999999  9.30000000000001 0  6 0  C 2.69999999999999 0  0 2.69999999999999  0 6  C 0 9.30000000000001  2.69999999999999 12  6 12  C 9.30000000000001 12  12 9.30000000000001  12 6  Z M 9.82499999999999 3.44999999999999  C 10.125 3.67500000000001  10.125 4.05000000000001  9.82499999999999 4.35000000000002  L 5.32499999999999 8.85000000000002  C 5.25 8.92500000000001  5.02499999999998 9  4.875 9  C 4.72500000000002 9  4.57499999999999 8.92500000000001  4.42500000000001 8.85000000000002  L 1.72500000000002 6.14999999999998  C 1.5 5.92500000000001  1.5 5.47500000000002  1.72500000000002 5.25  C 1.94999999999999 5.02499999999998  2.39999999999998 5.02499999999998  2.625 5.25  L 4.875 7.5  L 8.92500000000001 3.44999999999999  C 9.14999999999998 3.22500000000002  9.60000000000002 3.22500000000002  9.82499999999999 3.44999999999999  Z " fill-rule="nonzero" fill="#3399ff" stroke="none" transform="matrix(1 0 0 1 13 108 )" />
  </g>
</svg>