<?xml version="1.0" encoding="utf-8"?>
<svg version="1.1" xmlns:xlink="http://www.w3.org/1999/xlink" width="15px" height="16px" xmlns="http://www.w3.org/2000/svg">
  <g transform="matrix(1 0 0 1 -63 -207 )">
    <path d="M 3.82662259615387 12.0694444444445  C 4.05198317307691 12.3009259259259  4.16466346153845 12.5802469135803  4.16466346153845 12.9074074074074  C 4.16466346153845 13.2345679012346  4.05198317307691 13.5138888888889  3.82662259615387 13.7453703703704  C 3.60126201923077 13.9768518518518  3.32932692307691 14.0925925925926  3.01081730769232 14.0925925925926  C 2.69831730769232 14.0925925925926  2.42788461538464 13.9753086419753  2.19951923076923 13.7407407407407  C 1.97115384615387 13.5061728395062  1.85697115384613 13.2283950617284  1.85697115384613 12.9074074074074  C 1.85697115384613 12.5802469135803  1.96965144230768 12.3009259259259  2.19501201923077 12.0694444444445  C 2.42037259615387 11.837962962963  2.69230769230768 11.7222222222222  3.01081730769232 11.7222222222222  C 3.32932692307691 11.7222222222222  3.60126201923077 11.837962962963  3.82662259615387 12.0694444444445  Z M 8.31580528846155 13.9768518518518  C 8.54116586538464 14.2083333333333  8.65384615384613 14.4876543209877  8.65384615384613 14.8148148148148  C 8.65384615384613 15.141975308642  8.54116586538464 15.4212962962963  8.31580528846155 15.6527777777778  C 8.09044471153845 15.8842592592593  7.81850961538464 16  7.5 16  C 7.18149038461536 16  6.90955528846155 15.8842592592593  6.68419471153845 15.6527777777778  C 6.45883413461536 15.4212962962963  6.34615384615387 15.141975308642  6.34615384615387 14.8148148148148  C 6.34615384615387 14.4876543209877  6.45883413461536 14.2083333333333  6.68419471153845 13.9768518518518  C 6.90955528846155 13.7453703703704  7.18149038461536 13.6296296296296  7.5 13.6296296296296  C 7.81850961538464 13.6296296296296  8.09044471153845 13.7453703703704  8.31580528846155 13.9768518518518  Z M 1.96965144230768 7.45833333333331  C 2.19501201923077 7.68981481481484  2.30769230769232 7.96913580246911  2.30769230769232 8.2962962962963  C 2.30769230769232 8.62345679012344  2.19501201923077 8.90277777777777  1.96965144230768 9.1342592592593  C 1.74429086538464 9.36574074074071  1.47235576923077 9.48148148148147  1.15384615384613 9.48148148148147  C 0.835336538461547 9.48148148148147  0.563401442307679 9.36574074074071  0.338040865384642 9.1342592592593  C 0.112680288461547 8.90277777777777  0 8.62345679012344  0 8.2962962962963  C 0 7.96913580246911  0.112680288461547 7.68981481481484  0.338040865384642 7.45833333333331  C 0.563401442307679 7.22685185185185  0.835336538461547 7.11111111111114  1.15384615384613 7.11111111111114  C 1.47235576923077 7.11111111111114  1.74429086538464 7.22685185185185  1.96965144230768 7.45833333333331  Z M 12.8049879807692 12.0694444444445  C 13.0303485576923 12.3009259259259  13.1430288461539 12.5802469135803  13.1430288461539 12.9074074074074  C 13.1430288461539 13.2283950617284  13.0288461538461 13.5061728395062  12.8004807692308 13.7407407407407  C 12.5721153846154 13.9753086419753  12.3016826923077 14.0925925925926  11.9891826923077 14.0925925925926  C 11.6706730769231 14.0925925925926  11.3987379807692 13.9768518518518  11.1733774038461 13.7453703703704  C 10.9480168269231 13.5138888888889  10.8353365384615 13.2345679012346  10.8353365384615 12.9074074074074  C 10.8353365384615 12.5802469135803  10.9480168269231 12.3009259259259  11.1733774038461 12.0694444444445  C 11.3987379807692 11.837962962963  11.6706730769231 11.7222222222222  11.9891826923077 11.7222222222222  C 12.3076923076923 11.7222222222222  12.5796274038461 11.837962962963  12.8049879807692 12.0694444444445  Z M 4.02944711538464 2.63888888888886  C 4.31189903846155 2.92901234567898  4.453125 3.27777777777777  4.453125 3.68518518518516  C 4.453125 4.09259259259261  4.31189903846155 4.44135802469134  4.02944711538464 4.73148148148147  C 3.74699519230768 5.02160493827159  3.40745192307691 5.16666666666669  3.01081730769232 5.16666666666669  C 2.61418269230768 5.16666666666669  2.27463942307691 5.02160493827159  1.9921875 4.73148148148147  C 1.70973557692309 4.44135802469134  1.56850961538464 4.09259259259261  1.56850961538464 3.68518518518516  C 1.56850961538464 3.27777777777777  1.70973557692309 2.92901234567898  1.9921875 2.63888888888886  C 2.27463942307691 2.34876543209873  2.61418269230768 2.2037037037037  3.01081730769232 2.2037037037037  C 3.40745192307691 2.2037037037037  3.74699519230768 2.34876543209873  4.02944711538464 2.63888888888886  Z M 14.6619591346154 7.45833333333331  C 14.8873197115385 7.68981481481484  15 7.96913580246911  15 8.2962962962963  C 15 8.62345679012344  14.8873197115385 8.90277777777777  14.6619591346154 9.1342592592593  C 14.4365985576923 9.36574074074071  14.1646634615385 9.48148148148147  13.8461538461539 9.48148148148147  C 13.5276442307692 9.48148148148147  13.2557091346154 9.36574074074071  13.0303485576923 9.1342592592593  C 12.8049879807692 8.90277777777777  12.6923076923077 8.62345679012344  12.6923076923077 8.2962962962963  C 12.6923076923077 7.96913580246911  12.8049879807692 7.68981481481484  13.0303485576923 7.45833333333331  C 13.2557091346154 7.22685185185185  13.5276442307692 7.11111111111114  13.8461538461539 7.11111111111114  C 14.1646634615385 7.11111111111114  14.4365985576923 7.22685185185185  14.6619591346154 7.45833333333331  Z M 8.72596153846155 0.518518518518533  C 9.0625 0.864197530864203  9.23076923076923 1.28395061728395  9.23076923076923 1.77777777777777  C 9.23076923076923 2.27160493827159  9.0625 2.69135802469134  8.72596153846155 3.03703703703701  C 8.38942307692309 3.38271604938274  7.98076923076923 3.55555555555554  7.5 3.55555555555554  C 7.01923076923077 3.55555555555554  6.61057692307691 3.38271604938274  6.27403846153845 3.03703703703701  C 5.9375 2.69135802469134  5.76923076923077 2.27160493827159  5.76923076923077 1.77777777777777  C 5.76923076923077 1.28395061728395  5.9375 0.864197530864203  6.27403846153845 0.518518518518533  C 6.61057692307691 0.172839506172863  7.01923076923077 0  7.5 0  C 7.98076923076923 0  8.38942307692309 0.172839506172863  8.72596153846155 0.518518518518533  Z M 13.4134615384615 2.22222222222223  C 13.8100961538461 2.62962962962962  14.0084134615385 3.11728395061726  14.0084134615385 3.68518518518516  C 14.0084134615385 4.2592592592593  13.8100961538461 4.74845679012344  13.4134615384615 5.15277777777777  C 13.0168269230769 5.5570987654321  12.5420673076923 5.7592592592593  11.9891826923077 5.7592592592593  C 11.4302884615385 5.7592592592593  10.9540264423077 5.5570987654321  10.5603966346154 5.15277777777777  C 10.1667668269231 4.74845679012344  9.96995192307691 4.2592592592593  9.96995192307691 3.68518518518516  C 9.96995192307691 3.11728395061726  10.1667668269231 2.62962962962962  10.5603966346154 2.22222222222223  C 10.9540264423077 1.81481481481484  11.4302884615385 1.61111111111114  11.9891826923077 1.61111111111114  C 12.5420673076923 1.61111111111114  13.0168269230769 1.81481481481484  13.4134615384615 2.22222222222223  Z " fill-rule="nonzero" fill="#333333" stroke="none" transform="matrix(1 0 0 1 63 207 )" />
  </g>
</svg>