<?xml version="1.0" encoding="utf-8"?>
<svg version="1.1" xmlns:xlink="http://www.w3.org/1999/xlink" width="17px" height="17px" xmlns="http://www.w3.org/2000/svg">
  <g transform="matrix(1 0 0 1 -407 -79 )">
    <path d="M 17 8.5  C 17 3.82499999999999  13.1750000000001 0  8.5 0  C 3.82499999999999 0  0 3.82499999999999  0 8.5  C 0 13.175  3.82499999999999 17  8.5 17  C 13.1750000000001 17  17 13.175  17 8.5  Z M 13.9187499999999 4.88749999999999  C 14.34375 5.20625000000001  14.34375 5.73750000000001  13.9187499999999 6.16250000000002  L 7.54374999999999 12.5375  C 7.4375 12.64375  7.11874999999998 12.75  6.90625 12.75  C 6.69375000000002 12.75  6.48124999999999 12.64375  6.26875000000001 12.5375  L 2.44375000000002 8.71249999999998  C 2.125 8.39375000000001  2.125 7.75625000000002  2.44375000000002 7.4375  C 2.76249999999999 7.11874999999998  3.39999999999998 7.11874999999998  3.71875 7.4375  L 6.90625 10.625  L 12.6437500000001 4.88749999999999  C 12.9625 4.56875000000002  13.6 4.56875000000002  13.9187499999999 4.88749999999999  Z " fill-rule="nonzero" fill="#3399ff" stroke="none" transform="matrix(1 0 0 1 407 79 )" />
  </g>
</svg>