<?xml version="1.0" encoding="utf-8"?>
<svg version="1.1" xmlns:xlink="http://www.w3.org/1999/xlink" width="16px" height="16px" xmlns="http://www.w3.org/2000/svg">
  <g transform="matrix(1 0 0 1 -5 -79 )">
    <path d="M 5.27499999999998 1.55  C 6.13749999999999 1.184375  7.0546875 1  8 1  C 8.9453125 1  9.86250000000001 1.184375  10.725 1.55  C 11.5578125 1.903125  12.3078125 2.40781250000001  12.95 3.05  C 13.59375 3.69374999999999  14.0984375 4.4421875  14.45 5.27500000000001  C 14.815625 6.1375  15 7.0546875  15 8  C 15 8.9453125  14.815625 9.8625  14.45 10.725  C 14.096875 11.5578125  13.5921875 12.3078125  12.95 12.95  C 12.30625 13.59375  11.5578125 14.0984375  10.725 14.45  C 9.86250000000001 14.815625  8.9453125 15  8 15  C 7.0546875 15  6.13749999999999 14.815625  5.27499999999998 14.45  C 4.44218749999999 14.096875  3.69218749999999 13.5921875  3.05000000000001 12.95  C 2.40625 12.30625  1.90156250000001 11.5578125  1.55000000000001 10.725  C 1.18437499999999 9.8625  1 8.9453125  1 8  C 1 7.0546875  1.18437499999999 6.1375  1.55000000000001 5.27500000000001  C 1.90312499999999 4.4421875  2.40781249999998 3.6921875  3.05000000000001 3.05  C 3.69218749999999 2.40781250000001  4.44218749999999 1.9015625  5.27499999999998 1.55  Z M 16 8  C 16 3.58125  12.41875 0  8 0  C 3.58125000000001 0  0 3.58125  0 8  C 0 12.41875  3.58125000000001 16  8 16  C 12.41875 16  16 12.41875  16 8  Z " fill-rule="nonzero" fill="#ff3300" stroke="none" transform="matrix(1 0 0 1 5 79 )" />
  </g>
</svg>