<?xml version="1.0" encoding="utf-8"?>
<svg version="1.1" xmlns:xlink="http://www.w3.org/1999/xlink" width="185px" height="105px" xmlns="http://www.w3.org/2000/svg">
  <g transform="matrix(1 0 0 1 51 0 )">
    <path d="M -51 0  L 134 0  L 134 105  L -51 105  L -51 0  " fill-rule="nonzero" fill="#cccccc" stroke="none" />
    <path d="M -44 7  L 127 7  L 127 98  L -44 98  L -44 7  " fill-rule="nonzero" fill="#ffffff" stroke="none" />
    <path d="M 53.075 31.5  C 48.665 31.5  45.2 28.035  45.2 23.625  C 45.2 19.215  48.665 15.75  53.075 15.75  C 57.485 15.75  60.95 19.215  60.95 23.625  C 60.95 28.035  57.485 31.5  53.075 31.5  " fill-rule="nonzero" fill="#cccccc" stroke="none" />
    <path d="M -42 96  L -42 48.7  L -0.5 27.2  L 57.6 66.7135135135135  L 90.8 40.1  L 124 66.7135135135135  L 124 96  L -42 96  " fill-rule="nonzero" fill="#169bd5" stroke="none" />
  </g>
</svg>