<?xml version="1.0" encoding="utf-8"?>
<svg version="1.1" xmlns:xlink="http://www.w3.org/1999/xlink" width="12px" height="12px" viewBox="421 -141  12 12" xmlns="http://www.w3.org/2000/svg">
  <path d="M 427 -141  C 430.36 -141  433 -138.36  433 -135  C 433 -131.64  430.36 -129  427 -129  C 423.64 -129  421 -131.64  421 -135  C 421 -138.36  423.64 -141  427 -141  Z " fill-rule="nonzero" fill="#ffffff" stroke="none" />
  <path d="M 427 -140.5  C 430.08 -140.5  432.5 -138.08  432.5 -135  C 432.5 -131.92  430.08 -129.5  427 -129.5  C 423.92 -129.5  421.5 -131.92  421.5 -135  C 421.5 -138.08  423.92 -140.5  427 -140.5  Z " stroke-width="1" stroke="#797979" fill="none" />
  <path d="M 427 -132  C 425.32 -132  424 -133.32  424 -135  C 424 -136.68  425.32 -138  427 -138  C 428.68 -138  430 -136.68  430 -135  C 430 -133.32  428.68 -132  427 -132  " fill-rule="nonzero" fill="#797979" stroke="none" />
</svg>