<?xml version="1.0" encoding="utf-8"?>
<svg version="1.1" xmlns:xlink="http://www.w3.org/1999/xlink" width="12px" height="12px" viewBox="421 -116  12 12" xmlns="http://www.w3.org/2000/svg">
  <path d="M 427 -116  C 430.36 -116  433 -113.36  433 -110  C 433 -106.64  430.36 -104  427 -104  C 423.64 -104  421 -106.64  421 -110  C 421 -113.36  423.64 -116  427 -116  Z " fill-rule="nonzero" fill="#f0f0f0" stroke="none" />
  <path d="M 427 -115.5  C 430.08 -115.5  432.5 -113.08  432.5 -110  C 432.5 -106.92  430.08 -104.5  427 -104.5  C 423.92 -104.5  421.5 -106.92  421.5 -110  C 421.5 -113.08  423.92 -115.5  427 -115.5  Z " stroke-width="1" stroke="#797979" fill="none" />
  <path d="M 427 -107  C 425.32 -107  424 -108.32  424 -110  C 424 -111.68  425.32 -113  427 -113  C 428.68 -113  430 -111.68  430 -110  C 430 -108.32  428.68 -107  427 -107  " fill-rule="nonzero" fill="#797979" stroke="none" />
</svg>