<?xml version="1.0" encoding="utf-8"?>
<svg version="1.1" xmlns:xlink="http://www.w3.org/1999/xlink" width="12px" height="12px" viewBox="421 -61  12 12" xmlns="http://www.w3.org/2000/svg">
  <path d="M 427 -61  C 430.36 -61  433 -58.36  433 -55  C 433 -51.64  430.36 -49  427 -49  C 423.64 -49  421 -51.64  421 -55  C 421 -58.36  423.64 -61  427 -61  Z " fill-rule="nonzero" fill="#ffffff" stroke="none" />
  <path d="M 427 -60.5  C 430.08 -60.5  432.5 -58.08  432.5 -55  C 432.5 -51.92  430.08 -49.5  427 -49.5  C 423.92 -49.5  421.5 -51.92  421.5 -55  C 421.5 -58.08  423.92 -60.5  427 -60.5  Z " stroke-width="1" stroke="#797979" fill="none" />
  <path d="M 427 -52  C 425.32 -52  424 -53.32  424 -55  C 424 -56.68  425.32 -58  427 -58  C 428.68 -58  430 -56.68  430 -55  C 430 -53.32  428.68 -52  427 -52  " fill-rule="nonzero" fill="#797979" stroke="none" />
</svg>