<?xml version="1.0" encoding="utf-8"?>
<svg version="1.1" xmlns:xlink="http://www.w3.org/1999/xlink" width="12px" height="12px" viewBox="421 46  12 12" xmlns="http://www.w3.org/2000/svg">
  <path d="M 427 46  C 430.36 46  433 48.64  433 52  C 433 55.36  430.36 58  427 58  C 423.64 58  421 55.36  421 52  C 421 48.64  423.64 46  427 46  Z " fill-rule="nonzero" fill="#f0f0f0" stroke="none" />
  <path d="M 427 46.5  C 430.08 46.5  432.5 48.92  432.5 52  C 432.5 55.08  430.08 57.5  427 57.5  C 423.92 57.5  421.5 55.08  421.5 52  C 421.5 48.92  423.92 46.5  427 46.5  Z " stroke-width="1" stroke="#797979" fill="none" />
  <path d="M 427 55  C 425.32 55  424 53.68  424 52  C 424 50.32  425.32 49  427 49  C 428.68 49  430 50.32  430 52  C 430 53.68  428.68 55  427 55  " fill-rule="nonzero" fill="#797979" stroke="none" />
</svg>