<?xml version="1.0" encoding="utf-8"?>
<svg version="1.1" xmlns:xlink="http://www.w3.org/1999/xlink" width="12px" height="12px" viewBox="421 187  12 12" xmlns="http://www.w3.org/2000/svg">
  <path d="M 427 187  C 430.36 187  433 189.64  433 193  C 433 196.36  430.36 199  427 199  C 423.64 199  421 196.36  421 193  C 421 189.64  423.64 187  427 187  Z " fill-rule="nonzero" fill="#f0f0f0" stroke="none" />
  <path d="M 427 187.5  C 430.08 187.5  432.5 189.92  432.5 193  C 432.5 196.08  430.08 198.5  427 198.5  C 423.92 198.5  421.5 196.08  421.5 193  C 421.5 189.92  423.92 187.5  427 187.5  Z " stroke-width="1" stroke="#797979" fill="none" />
  <path d="M 427 196  C 425.32 196  424 194.68  424 193  C 424 191.32  425.32 190  427 190  C 428.68 190  430 191.32  430 193  C 430 194.68  428.68 196  427 196  " fill-rule="nonzero" fill="#797979" stroke="none" />
</svg>