<?xml version="1.0" encoding="utf-8"?>
<svg version="1.1" xmlns:xlink="http://www.w3.org/1999/xlink" width="12px" height="12px" viewBox="421 75  12 12" xmlns="http://www.w3.org/2000/svg">
  <path d="M 427 75  C 430.36 75  433 77.64  433 81  C 433 84.36  430.36 87  427 87  C 423.64 87  421 84.36  421 81  C 421 77.64  423.64 75  427 75  Z " fill-rule="nonzero" fill="#f0f0f0" stroke="none" />
  <path d="M 427 75.5  C 430.08 75.5  432.5 77.92  432.5 81  C 432.5 84.08  430.08 86.5  427 86.5  C 423.92 86.5  421.5 84.08  421.5 81  C 421.5 77.92  423.92 75.5  427 75.5  Z " stroke-width="1" stroke="#797979" fill="none" />
  <path d="M 427 84  C 425.32 84  424 82.68  424 81  C 424 79.32  425.32 78  427 78  C 428.68 78  430 79.32  430 81  C 430 82.68  428.68 84  427 84  " fill-rule="nonzero" fill="#797979" stroke="none" />
</svg>