<?xml version="1.0" encoding="utf-8"?>
<svg version="1.1" xmlns:xlink="http://www.w3.org/1999/xlink" width="13px" height="13px" xmlns="http://www.w3.org/2000/svg">
  <g transform="matrix(1 0 0 1 -500 -104 )">
    <path d="M 12.3142749260411 5.47141989464473  C 11.9428536457505 5.47141989464473  11.6285648632482 5.77143305828253  11.6285648632482 6.15712995743758  L 11.6285648632482 11.6285648632482  L 1.37143513675176 11.6285648632482  L 1.37143513675176 1.3714351367517  L 6.84285503139654 1.3714351367517  C 7.21429132285334 1.3714351367517  7.51428947532509 1.07142197311384  7.52856509418939 0.68571006279285  C 7.52856509418939 0.314273771336076  7.2285669417173 0  6.85714566142667 0  L 0.68571006279285 0  C 0.314288782502217 0  0 0.299998152471886  0 0.68571006279285  L 0 12.3142899372071  C 0 12.4999930717696  0.0714231278187754 12.6714355986338  0.199993764592477 12.8000062354074  C 0.328564401366179 12.9285768721811  0.499991917064335 13  0.68571006279285 13  L 12.3142899372071 13  C 12.5000080829357 13  12.6714355986338 12.9285768721811  12.8000062354075 12.8000062354074  C 12.9285768721812 12.6714355986338  13 12.4999930717696  13 12.3142899372071  L 13 6.15714496860357  C 13 5.77143305828253  12.6857112174978 5.47143490581072  12.3142899372071 5.47143490581072  Z " fill-rule="nonzero" fill="#3399ff" stroke="none" transform="matrix(1 0 0 1 500 104 )" />
  </g>
</svg>