<?xml version="1.0" encoding="utf-8"?>
<svg version="1.1" xmlns:xlink="http://www.w3.org/1999/xlink" width="12px" height="12px" viewBox="799 173  12 12" xmlns="http://www.w3.org/2000/svg">
  <path d="M 805 173  C 808.36 173  811 175.64  811 179  C 811 182.36  808.36 185  805 185  C 801.64 185  799 182.36  799 179  C 799 175.64  801.64 173  805 173  Z " fill-rule="nonzero" fill="#f0f0f0" stroke="none" />
  <path d="M 805 173.5  C 808.08 173.5  810.5 175.92  810.5 179  C 810.5 182.08  808.08 184.5  805 184.5  C 801.92 184.5  799.5 182.08  799.5 179  C 799.5 175.92  801.92 173.5  805 173.5  Z " stroke-width="1" stroke="#797979" fill="none" />
  <path d="M 805 182  C 803.32 182  802 180.68  802 179  C 802 177.32  803.32 176  805 176  C 806.68 176  808 177.32  808 179  C 808 180.68  806.68 182  805 182  " fill-rule="nonzero" fill="#797979" stroke="none" />
</svg>