<?xml version="1.0" encoding="utf-8"?>
<svg version="1.1" xmlns:xlink="http://www.w3.org/1999/xlink" width="12px" height="12px" viewBox="799 228  12 12" xmlns="http://www.w3.org/2000/svg">
  <path d="M 805 228  C 808.36 228  811 230.64  811 234  C 811 237.36  808.36 240  805 240  C 801.64 240  799 237.36  799 234  C 799 230.64  801.64 228  805 228  Z " fill-rule="nonzero" fill="#ffffff" stroke="none" />
  <path d="M 805 228.5  C 808.08 228.5  810.5 230.92  810.5 234  C 810.5 237.08  808.08 239.5  805 239.5  C 801.92 239.5  799.5 237.08  799.5 234  C 799.5 230.92  801.92 228.5  805 228.5  Z " stroke-width="1" stroke="#797979" fill="none" />
  <path d="M 805 237  C 803.32 237  802 235.68  802 234  C 802 232.32  803.32 231  805 231  C 806.68 231  808 232.32  808 234  C 808 235.68  806.68 237  805 237  " fill-rule="nonzero" fill="#797979" stroke="none" />
</svg>