<?xml version="1.0" encoding="utf-8"?>
<svg version="1.1" xmlns:xlink="http://www.w3.org/1999/xlink" width="12px" height="12px" viewBox="799 200  12 12" xmlns="http://www.w3.org/2000/svg">
  <path d="M 805 200  C 808.36 200  811 202.64  811 206  C 811 209.36  808.36 212  805 212  C 801.64 212  799 209.36  799 206  C 799 202.64  801.64 200  805 200  Z " fill-rule="nonzero" fill="#f0f0f0" stroke="none" />
  <path d="M 805 200.5  C 808.08 200.5  810.5 202.92  810.5 206  C 810.5 209.08  808.08 211.5  805 211.5  C 801.92 211.5  799.5 209.08  799.5 206  C 799.5 202.92  801.92 200.5  805 200.5  Z " stroke-width="1" stroke="#797979" fill="none" />
  <path d="M 805 209  C 803.32 209  802 207.68  802 206  C 802 204.32  803.32 203  805 203  C 806.68 203  808 204.32  808 206  C 808 207.68  806.68 209  805 209  " fill-rule="nonzero" fill="#797979" stroke="none" />
</svg>