<?xml version="1.0" encoding="utf-8"?>
<svg version="1.1" xmlns:xlink="http://www.w3.org/1999/xlink" width="12px" height="12px" viewBox="799 316  12 12" xmlns="http://www.w3.org/2000/svg">
  <path d="M 805 316  C 808.36 316  811 318.64  811 322  C 811 325.36  808.36 328  805 328  C 801.64 328  799 325.36  799 322  C 799 318.64  801.64 316  805 316  Z " fill-rule="nonzero" fill="#f0f0f0" stroke="none" />
  <path d="M 805 316.5  C 808.08 316.5  810.5 318.92  810.5 322  C 810.5 325.08  808.08 327.5  805 327.5  C 801.92 327.5  799.5 325.08  799.5 322  C 799.5 318.92  801.92 316.5  805 316.5  Z " stroke-width="1" stroke="#797979" fill="none" />
  <path d="M 805 325  C 803.32 325  802 323.68  802 322  C 802 320.32  803.32 319  805 319  C 806.68 319  808 320.32  808 322  C 808 323.68  806.68 325  805 325  " fill-rule="nonzero" fill="#797979" stroke="none" />
</svg>