<?xml version="1.0" encoding="utf-8"?>
<svg version="1.1" xmlns:xlink="http://www.w3.org/1999/xlink" width="12px" height="12px" viewBox="799 256  12 12" xmlns="http://www.w3.org/2000/svg">
  <path d="M 805 256  C 808.36 256  811 258.64  811 262  C 811 265.36  808.36 268  805 268  C 801.64 268  799 265.36  799 262  C 799 258.64  801.64 256  805 256  Z " fill-rule="nonzero" fill="#ffffff" stroke="none" />
  <path d="M 805 256.5  C 808.08 256.5  810.5 258.92  810.5 262  C 810.5 265.08  808.08 267.5  805 267.5  C 801.92 267.5  799.5 265.08  799.5 262  C 799.5 258.92  801.92 256.5  805 256.5  Z " stroke-width="1" stroke="#797979" fill="none" />
  <path d="M 805 265  C 803.32 265  802 263.68  802 262  C 802 260.32  803.32 259  805 259  C 806.68 259  808 260.32  808 262  C 808 263.68  806.68 265  805 265  " fill-rule="nonzero" fill="#797979" stroke="none" />
</svg>