<?xml version="1.0" encoding="utf-8"?>
<svg version="1.1" xmlns:xlink="http://www.w3.org/1999/xlink" width="8px" height="14px" xmlns="http://www.w3.org/2000/svg">
  <g transform="matrix(1 0 0 1 -1276 -1471 )">
    <path d="M 7.86254295532649 0.841683366733378  C 7.95418098510885 0.935203740815041  8 1.04275217100871  8 1.16432865731463  C 8 1.28590514362054  7.95418098510885 1.39345357381421  7.86254295532649 1.48697394789565  L 2.46048109965636 7  L 7.86254295532649 12.5130260521044  C 7.95418098510885 12.6065464261858  8 12.7140948563795  8 12.8356713426854  C 8 12.9572478289913  7.95418098510885 13.064796259185  7.86254295532649 13.1583166332666  L 7.17525773195871 13.8597194388778  C 7.08361970217646 13.9532398129591  6.97823596792665 14  6.85910652920961 14  C 6.73997709049257 14  6.63459335624287 13.9532398129591  6.54295532646051 13.8597194388778  L 0.137457044673511 7.32264529058125  C 0.0458190148911513 7.22912491649959  0 7.12157648630591  0 7  C 0 6.87842351369409  0.0458190148911513 6.77087508350041  0.137457044673511 6.67735470941875  L 6.54295532646051 0.140280561122154  C 6.63459335624287 0.0467601870409453  6.73997709049257 0  6.85910652920961 0  C 6.97823596792665 0  7.08361970217646 0.0467601870409453  7.17525773195871 0.140280561122154  L 7.86254295532649 0.841683366733378  Z " fill-rule="nonzero" fill="#333333" stroke="none" transform="matrix(1 0 0 1 1276 1471 )" />
  </g>
</svg>