<?xml version="1.0" encoding="utf-8"?>
<svg version="1.1" xmlns:xlink="http://www.w3.org/1999/xlink" width="13px" height="8px" xmlns="http://www.w3.org/2000/svg">
  <g transform="matrix(1 0 0 1 -1697 -1656 )">
    <path d="M 11.8558183059683 1.12068507820038  L 11.8566437666826 1.11977481660836  C 11.9492762672628 0.997089871904336  12 0.842492509595445  12 0.682849252468486  C 12 0.305722023896806  11.7227593447885 0  11.3807656649924 0  C 11.1968969562914 0  11.0225371601734 0.0901054366763674  10.9048875633021 0.245923688328617  C 10.163623842022 1.22900620764335  8.20067826384445 3.51285254186587  6 3.51285254186587  C 3.79849627544138 3.51285254186587  1.83637615797795 1.22991646923526  1.09511243669795 0.247744211512554  C 0.977462839826558 0.0919259598604185  0.803103043708575 0.00182052318393744  0.619234335007604 0.00182052318393744  C 0.277240655211472 0.00182052318393744  0 0.307542547080743  0 0.684669775652537  C 0 0.844313032779382  0.0507237327371968 0.998910395088387  0.143356233317377 1.12159533979229  C 0.490049733247815 1.5812774437311  0.95891141886807 2.14290884596915  1.52187562589802 2.68997606273592  L 0.288637319002646 4.5378070944106  C 0.210434701141708 4.65508484857924  0.168257417613631 4.79684775399937  0.168257417613631 4.94241837203595  C 0.168257417613631 5.31962877354192  0.445559216430979 5.62541822242395  0.787628320688214 5.62541822242395  C 0.984643483200216 5.62541822242395  1.16990691523313 5.5220591994065  1.28661932237378 5.34702964966118  L 2.49426834713165 3.53378855848098  C 2.93836621132823 3.87058534750543  3.4220861898026 4.16915114966764  3.93552275398542 4.40126785561688  L 3.49390127193112 6.12166226441741  C 3.47668255761494 6.18514111764262  3.46793562512175 6.25104601767953  3.46793562512175 6.31730380603153  C 3.46793562512175 6.69434650272785  3.74511413771722 7  4.08703116071183 7  C 4.36725104103107 7  4.61253098296106 6.79244216539678  4.68504108240654 6.49395925552824  L 5.12253526089034 4.78812903219898  C 5.40897012868993 4.84365498930845  5.7003577607743 4.87733466821101  5.99917453928583 4.87733466821101  C 6.29292140245877 4.87601407772672  6.58599189508527 4.84616350998829  6.87498835696749 4.78812903219898  L 7.31248253545107 6.49395925552824  C 7.38799463283794 6.78794767799161  7.63137723136254 6.99087353923051  7.9084651710458 6.99087353923051  C 8.2505657921796 6.99087353923051  8.52789314047402 6.68505591613393  8.52789314047402 6.30781075997288  C 8.52789314047402 6.24486642335853  8.52000337060895 6.1822241593959  8.50444780664066 6.12166226441741  L 8.06282632458635 4.40126785561688  C 8.56956989426828 4.16939816724494  9.05244350147609 3.87859391861571  9.50325527072596 3.53378855848098  L 10.711729756198 5.34702964966118  C 10.8279852170863 5.52252024388531  11.0132270947629 5.62626838805056  11.210309356204 5.62626838805056  C 11.3425675295241 5.62626838805056  11.4713306887902 5.57943742352109  11.57763804531 5.49267150437447  C 11.7364211885647 5.36404076248618  11.8302013552169 5.15974839421665  11.8302013552169 4.9424831376781  C 11.8302013552169 4.79687340908754  11.7879827079962 4.65507797009127  11.7097117595692 4.5378070944106  L 10.4772989133877 2.68906580114401  C 10.9720279952309 2.20537047507582  11.4328504742023 1.68107963331636  11.8558183059683 1.12068507820038  Z " fill-rule="nonzero" fill="#000000" stroke="none" transform="matrix(1 0 0 1 1697 1656 )" />
  </g>
</svg>