<?xml version="1.0" encoding="utf-8"?>
<svg version="1.1" xmlns:xlink="http://www.w3.org/1999/xlink" width="6px" height="11px" xmlns="http://www.w3.org/2000/svg">
  <g transform="matrix(1 0 0 1 -28 -10 )">
    <path d="M 5.89690721649485 0.66132264529058  C 5.96563573883162 0.734802939211756  6 0.819305277221108  6 0.914829659318638  C 6 1.01035404141616  5.96563573883162 1.09485637942552  5.89690721649485 1.16833667334669  L 1.84536082474227 5.5  L 5.89690721649485 9.83166332665331  C 5.96563573883162 9.90514362057448  6 9.98964595858384  6 10.0851703406814  C 6 10.1806947227789  5.96563573883162 10.2651970607882  5.89690721649485 10.3386773547094  L 5.38144329896907 10.8897795591182  C 5.3127147766323 10.9632598530394  5.23367697594502 11  5.14432989690722 11  C 5.05498281786942 11  4.97594501718213 10.9632598530394  4.90721649484536 10.8897795591182  L 0.103092783505154 5.75350701402806  C 0.0343642611683848 5.68002672010688  0 5.59552438209753  0 5.5  C 0 5.40447561790247  0.0343642611683848 5.31997327989312  0.103092783505154 5.24649298597194  L 4.90721649484536 0.110220440881763  C 4.97594501718213 0.0367401469605877  5.05498281786942 0  5.14432989690722 0  C 5.23367697594502 0  5.3127147766323 0.0367401469605877  5.38144329896907 0.110220440881763  L 5.89690721649485 0.66132264529058  Z " fill-rule="nonzero" fill="#bcbcbc" stroke="none" transform="matrix(1 0 0 1 28 10 )" />
  </g>
</svg>