<?xml version="1.0" encoding="utf-8"?>
<svg version="1.1" xmlns:xlink="http://www.w3.org/1999/xlink" width="6px" height="11px" xmlns="http://www.w3.org/2000/svg">
  <g transform="matrix(1 0 0 1 -582 -10 )">
    <path d="M 5.89690721649485 5.24649298597194  C 5.96563573883162 5.31997327989313  6 5.40447561790245  6 5.5  C 6 5.59552438209755  5.96563573883162 5.68002672010687  5.89690721649485 5.75350701402806  L 1.09278350515464 10.8897795591182  C 1.02405498281787 10.9632598530394  0.945017182130584 11  0.855670103092784 11  C 0.766323024054984 11  0.687285223367697 10.9632598530394  0.618556701030927 10.8897795591182  L 0.103092783505154 10.3386773547094  C 0.0343642611683848 10.2651970607883  0 10.1806947227789  0 10.0851703406813  C 0 9.98964595858388  0.0343642611683848 9.90514362057445  0.103092783505154 9.83166332665326  L 4.15463917525773 5.5  L 0.103092783505154 1.16833667334674  C 0.0343642611683848 1.09485637942555  0 1.01035404141612  0 0.914829659318684  C 0 0.819305277221133  0.0343642611683848 0.734802939211704  0.103092783505154 0.661322645290625  L 0.618556701030927 0.11022044088179  C 0.687285223367697 0.0367401469605966  0.766323024054984 0  0.855670103092784 0  C 0.945017182130584 0  1.02405498281787 0.0367401469605966  1.09278350515464 0.11022044088179  L 5.89690721649485 5.24649298597194  Z " fill-rule="nonzero" fill="#bcbcbc" stroke="none" transform="matrix(1 0 0 1 582 10 )" />
  </g>
</svg>