<?xml version="1.0" encoding="utf-8"?>
<svg version="1.1" xmlns:xlink="http://www.w3.org/1999/xlink" width="6px" height="11px" xmlns="http://www.w3.org/2000/svg">
  <g transform="matrix(1 0 0 1 -521 -10 )">
    <path d="M 5.89690721649481 5.24649298597194  C 5.96563573883157 5.31997327989312  6 5.40447561790247  6 5.5  C 6 5.59552438209753  5.96563573883157 5.68002672010688  5.89690721649481 5.75350701402806  L 1.09278350515467 10.8897795591182  C 1.02405498281792 10.9632598530394  0.945017182130528 11  0.855670103092734 11  C 0.766323024054941 11  0.687285223367667 10.9632598530394  0.618556701030911 10.8897795591182  L 0.10309278350519 10.3386773547094  C 0.0343642611684345 10.2651970607882  0 10.1806947227789  0 10.0851703406814  C 0 9.98964595858384  0.0343642611684345 9.90514362057448  0.10309278350519 9.83166332665331  L 4.15463917525778 5.5  L 0.10309278350519 1.16833667334669  C 0.0343642611684345 1.09485637942552  0 1.01035404141616  0 0.914829659318638  C 0 0.819305277221108  0.0343642611684345 0.734802939211756  0.10309278350519 0.66132264529058  L 0.618556701030911 0.110220440881763  C 0.687285223367667 0.0367401469605877  0.766323024054941 0  0.855670103092734 0  C 0.945017182130528 0  1.02405498281792 0.0367401469605877  1.09278350515467 0.110220440881763  L 5.89690721649481 5.24649298597194  Z " fill-rule="nonzero" fill="#bcbcbc" stroke="none" transform="matrix(1 0 0 1 521 10 )" />
  </g>
</svg>