<?xml version="1.0" encoding="utf-8"?>
<svg version="1.1" xmlns:xlink="http://www.w3.org/1999/xlink" width="10px" height="16px" xmlns="http://www.w3.org/2000/svg">
  <g transform="matrix(1 0 0 1 -404 -165 )">
    <path d="M 9.75260416666669 0.25  C 9.91753472222223 0.416666666666629  10 0.614035087719344  10 0.842105263157919  L 10 15.1578947368421  C 10 15.3859649122807  9.91753472222223 15.5833333333334  9.75260416666669 15.75  C 9.58767361111109 15.9166666666666  9.39236111111103 16  9.16666666666669 16  C 8.94097222222223 16  8.74565972222217 15.9166666666666  8.58072916666669 15.75  L 4.24479166666669 11.3684210526316  L 0.833333333333371 11.3684210526316  C 0.607638888888971 11.3684210526316  0.412326388888914 11.2850877192982  0.247395833333314 11.1184210526316  C 0.0824652777777715 10.9517543859649  0 10.7543859649123  0 10.5263157894737  L 0 5.4736842105263  C 0 5.24561403508773  0.0824652777777715 5.04824561403512  0.247395833333314 4.88157894736841  C 0.412326388888914 4.71491228070175  0.607638888888971 4.63157894736841  0.833333333333371 4.63157894736841  L 4.24479166666669 4.63157894736841  L 8.58072916666669 0.25  C 8.74565972222217 0.0833333333333712  8.94097222222223 0  9.16666666666669 0  C 9.39236111111103 0  9.58767361111109 0.0833333333333712  9.75260416666669 0.25  Z " fill-rule="nonzero" fill="#333333" stroke="none" transform="matrix(1 0 0 1 404 165 )" />
  </g>
</svg>