<?xml version="1.0" encoding="utf-8"?>
<svg version="1.1" xmlns:xlink="http://www.w3.org/1999/xlink" width="19px" height="19px" xmlns="http://www.w3.org/2000/svg">
  <g transform="matrix(1 0 0 1 -793 -165 )">
    <path d="M 8.55228365384608 1.6300984528832  C 8.69691506410254 1.79934364744489  8.76923076923083 1.99976558837315  9 2.231364275668  L 9 16.768635724332  C 8.76923076923083 17.0002344116268  8.69691506410254 17.2006563525551  8.55228365384608 17.3699015471168  C 8.40765224358972 17.5391467416784  8.23637820512795 17.6237693389592  8.03846153846166 17.6237693389592  C 7.84054487179503 17.6237693389592  7.66927083333337 17.5391467416784  7.52463942307702 17.3699015471168  L 3.72235576923083 12.9205344585092  L 0.73076923076917 12.9205344585092  C 0.532852564102541 12.9205344585092  0.361578525640994 12.8359118612283  0.216947115384414 12.6666666666666  C 0.0723157051279486 12.497421472105  0 12.2969995311767  0 12.0654008438818  L 0 6.93459915611817  C 0 6.70300046882332  0.0723157051279486 6.502578527895  0.216947115384414 6.33333333333337  C 0.361578525640994 6.16408813877175  0.532852564102541 6.07946554149081  0.73076923076917 6.07946554149081  L 3.72235576923083 6.07946554149081  L 7.52463942307702 1.6300984528832  C 7.66927083333337 1.46085325832158  7.84054487179503 1.37623066104081  8.03846153846166 1.37623066104081  C 8.23637820512795 1.37623066104081  8.40765224358972 1.46085325832158  8.55228365384608 1.6300984528832  Z M 12.6685697115383 7.60267229254578  C 12.9920873397435 8.19057665260195  13.1538461538462 8.82301922175336  13.1538461538462 9.5  C 13.1538461538462 10.1769807782466  12.9920873397435 10.8071964369433  12.6685697115383 11.3906469760901  C 12.3450520833336 11.9740975152367  11.9168669871794 12.3905297702766  11.3840144230769 12.6399437412095  C 11.3078926282052 12.6844819503048  11.2127403846152 12.7067510548523  11.0985576923077 12.7067510548523  C 10.9006410256411 12.7067510548523  10.7293669871797 12.6243553680261  10.584735576923 12.4595639943742  C 10.4401041666664 12.2947726207219  10.3677884615386 12.0921237693389  10.3677884615386 11.8516174402251  C 10.3677884615386 11.6645569620252  10.4134615384617 11.5064463197374  10.5048076923077 11.3772855133615  C 10.5961538461538 11.2481247069855  10.706530448718 11.1367791842476  10.8359375 11.0432489451477  C 10.965344551282 10.9497187060479  11.0947516025642 10.847280825129  11.2241586538461 10.735935302391  C 11.3535657051281 10.624589779653  11.4639423076922 10.4664791373652  11.5552884615383 10.2616033755274  C 11.6466346153848 10.0567276136896  11.6923076923077 9.80285982184719  11.6923076923077 9.5  C 11.6923076923077 9.19714017815281  11.6466346153848 8.94327238631041  11.5552884615383 8.73839662447261  C 11.4639423076922 8.53352086263479  11.3535657051281 8.37541022034699  11.2241586538461 8.26406469760903  C 11.0947516025642 8.15271917487101  10.965344551282 8.05028129395214  10.8359375 7.9567510548523  C 10.706530448718 7.86322081575244  10.5961538461538 7.75187529301448  10.5048076923077 7.62271448663853  C 10.4134615384617 7.49355368026255  10.3677884615386 7.33544303797476  10.3677884615386 7.14838255977494  C 10.3677884615386 6.90787623066112  10.4401041666664 6.70522737927806  10.584735576923 6.54043600562582  C 10.7293669871797 6.37564463197387  10.9006410256411 6.2932489451477  11.0985576923077 6.2932489451477  C 11.2127403846152 6.2932489451477  11.3078926282052 6.31551804969524  11.3840144230769 6.36005625879045  C 11.9168669871794 6.60056258790439  12.3450520833336 7.01476793248938  12.6685697115383 7.60267229254578  Z M 15.1063701923077 5.72538677918425  C 15.7534054487181 6.87892639474913  16.076923076923 8.13713080168782  16.076923076923 9.5  C 16.076923076923 10.8628691983122  15.7534054487181 12.1210736052509  15.1063701923077 13.2746132208157  C 14.4593349358972 14.4281528363807  13.6029647435897 15.2676980778247  12.5372596153848 15.7932489451477  C 12.4383012820512 15.8377871542428  12.3431490384614 15.8600562587905  12.2518028846152 15.8600562587905  C 12.0462740384614 15.8600562587905  11.8711939102565 15.7754336615096  11.7265624999998 15.6061884669481  C 11.5819310897435 15.4369432723862  11.5096153846152 15.236521331458  11.5096153846152 15.0049226441633  C 11.5096153846152 14.6575246132208  11.6580528846152 14.3947491795593  11.9549278846156 14.2165963431786  C 12.3812099358972 13.9582747304267  12.6704727564103 13.7623066104078  12.8227163461538 13.6286919831223  C 13.3860176282052 13.1476793248945  13.8256209935897 12.5441865916549  14.1415264423077 11.8182137834037  C 14.4574318910256 11.0922409751524  14.6153846153848 10.3195030473512  14.6153846153848 9.5  C 14.6153846153848 8.68049695264878  14.4574318910256 7.90775902484765  14.1415264423077 7.18178621659632  C 13.8256209935897 6.45581340834505  13.3860176282052 5.85232067510546  12.8227163461538 5.37130801687775  C 12.6704727564103 5.23769338959224  12.3812099358972 5.04172526957331  11.9549278846156 4.78340365682138  C 11.6580528846152 4.60525082044066  11.5096153846152 4.34247538677917  11.5096153846152 3.99507735583674  C 11.5096153846152 3.76347866854204  11.5819310897435 3.56305672761377  11.7265624999998 3.39381153305195  C 11.8711939102565 3.2245663384904  12.0424679487178 3.13994374120955  12.2403846153848 3.13994374120955  C 12.339342948718 3.13994374120955  12.4383012820512 3.16221284575724  12.5372596153848 3.2067510548523  C 13.6029647435897 3.73230192217531  14.4593349358972 4.57184716361928  15.1063701923077 5.72538677918425  Z M 17.5498798076923 3.8547819971871  C 18.5166266025644 5.56950304735122  19 7.45124238162208  19 9.5  C 19 11.5487576183779  18.5166266025644 13.4304969526488  17.5498798076923 15.1452180028129  C 16.5831330128203 16.859939052977  15.2966746794872 18.1225972808251  13.6905048076923 18.9331926863572  C 13.591546474359 18.9777308954525  13.4925881410259 19  13.3936298076922 19  C 13.1957131410256 19  13.0244391025642 18.9153774027191  12.8798076923077 18.7461322081575  C 12.7351762820512 18.5768870135959  12.662860576923 18.3764650726677  12.662860576923 18.1448663853728  C 12.662860576923 17.8241912798875  12.811298076923 17.561415846226  13.108173076923 17.3565400843882  C 13.1614583333334 17.3209095171121  13.2470953525642 17.2741443975621  13.3650841346156 17.2162447257384  C 13.4830729166664 17.1583450539146  13.5687099358972 17.1115799343647  13.6219951923078 17.0759493670887  C 13.972155448718 16.8532583216128  14.2842548076923 16.6261134552274  14.5582932692308 16.3945147679325  C 15.4945913461538 15.5839193624004  16.225360576923 14.5729020159399  16.7506009615383 13.3614627285512  C 17.2758413461538 12.1500234411627  17.5384615384613 10.8628691983122  17.5384615384613 9.5  C 17.5384615384613 8.13713080168782  17.2758413461538 6.84997655883728  16.7506009615383 5.63853727144877  C 16.225360576923 4.42709798406005  15.4945913461538 3.41608063759963  14.5582932692308 2.60548523206751  C 14.2842548076923 2.3738865447726  13.972155448718 2.14674167838726  13.6219951923078 1.92405063291133  C 13.5687099358972 1.8884200656353  13.4830729166664 1.84165494608536  13.3650841346156 1.78375527426164  C 13.2470953525642 1.72585560243786  13.1614583333334 1.67909048288797  13.108173076923 1.64345991561183  C 12.811298076923 1.43858415377403  12.662860576923 1.17580872011254  12.662860576923 0.855133614627249  C 12.662860576923 0.623534927332344  12.7351762820512 0.423112986404078  12.8798076923077 0.253867791842453  C 13.0244391025642 0.0846225972809123  13.1957131410256 0  13.3936298076922 0  C 13.4925881410259 0  13.591546474359 0.0222691045475472  13.6905048076923 0.0668073136427552  C 15.2966746794872 0.87740271917491  16.5831330128203 2.14006094702296  17.5498798076923 3.8547819971871  Z " fill-rule="nonzero" fill="#333333" stroke="none" transform="matrix(1 0 0 1 793 165 )" />
  </g>
</svg>