<?xml version="1.0" encoding="utf-8"?>
<svg version="1.1" xmlns:xlink="http://www.w3.org/1999/xlink" width="12px" height="12px" viewBox="800 382  12 12" xmlns="http://www.w3.org/2000/svg">
  <path d="M 806 382  C 809.36 382  812 384.64  812 388  C 812 391.36  809.36 394  806 394  C 802.64 394  800 391.36  800 388  C 800 384.64  802.64 382  806 382  Z " fill-rule="nonzero" fill="#f0f0f0" stroke="none" />
  <path d="M 806 382.5  C 809.08 382.5  811.5 384.92  811.5 388  C 811.5 391.08  809.08 393.5  806 393.5  C 802.92 393.5  800.5 391.08  800.5 388  C 800.5 384.92  802.92 382.5  806 382.5  Z " stroke-width="1" stroke="#797979" fill="none" />
  <path d="M 806 391  C 804.32 391  803 389.68  803 388  C 803 386.32  804.32 385  806 385  C 807.68 385  809 386.32  809 388  C 809 389.68  807.68 391  806 391  " fill-rule="nonzero" fill="#797979" stroke="none" />
</svg>