<?xml version="1.0" encoding="utf-8"?>
<svg version="1.1" xmlns:xlink="http://www.w3.org/1999/xlink" width="19px" height="19px" xmlns="http://www.w3.org/2000/svg">
  <g>
    <path d="M 17.9977864303678 7.99669061524998  C 17.4549399437891 7.99669061524998  16.995594800132 8.43517139287446  16.995594800132 8.99888224548569  L 16.995594800132 17  L 2 17  L 2 2.00440519986787  L 10.001095815118 2.00440519986787  C 10.5439642410933 2.00440519986787  10.9824230793213 1.56592442224331  11.0032874453537 1.0021916302357  C 11.0032874453537 0.459323204260419  10.5648286071253 0  10.0219821205467 0  L 1.0021916302357 0  C 0.459345143657087 0  0 0.438458838228141  0 1.0021916302357  L 0 17.9978083697643  C 0 18.2692206433555  0.104387648350518 18.5197904903109  0.292298579019775 18.7077014209801  C 0.480209509689032 18.8956123516492  0.730757417247875 19  1.0021916302357 19  L 17.9978083697643 19  C 18.2692425827521 19  18.519790490311 18.8956123516492  18.7077014209802 18.7077014209801  C 18.8956123516495 18.5197904903109  19 18.2692206433555  19 17.9978083697643  L 19 8.99890418488215  C 19 8.43517139287446  18.5406548563429 7.99671255464644  17.9978083697643 7.99671255464644  Z " fill-rule="nonzero" fill="#3399ff" stroke="none" />
  </g>
</svg>