<?xml version="1.0" encoding="utf-8"?>
<svg version="1.1" xmlns:xlink="http://www.w3.org/1999/xlink" width="20px" height="20px" xmlns="http://www.w3.org/2000/svg">
  <g transform="matrix(1 0 0 1 -532 -284 )">
    <path d="M 18.6588541666667 4.98046875  C 19.5529513888889 6.51258680555554  20 8.18576388888891  20 10  C 20 11.8142361111111  19.5529513888889 13.4874131944445  18.6588541666667 15.01953125  C 17.7647569444445 16.5516493055555  16.5516493055555 17.7647569444445  15.01953125 18.6588541666667  C 13.4874131944445 19.5529513888889  11.8142361111111 20  10 20  C 8.18576388888891 20  6.51258680555554 19.5529513888889  4.98046875 18.6588541666667  C 3.44835069444446 17.7647569444445  2.23524305555554 16.5516493055555  1.34114583333331 15.01953125  C 0.447048611111086 13.4874131944445  0 11.8142361111111  0 10  C 0 8.18576388888891  0.447048611111086 6.51258680555554  1.34114583333331 4.98046875  C 2.23524305555554 3.44835069444446  3.44835069444446 2.23524305555554  4.98046875 1.34114583333331  C 6.51258680555554 0.447048611111086  8.18576388888891 0  10 0  C 11.8142361111111 0  13.4874131944445 0.447048611111086  15.01953125 1.34114583333331  C 16.5516493055555 2.23524305555554  17.7647569444445 3.44835069444446  18.6588541666667 4.98046875  Z " fill-rule="nonzero" fill="#ffffff" stroke="none" fill-opacity="0.498039215686275" transform="matrix(1 0 0 1 532 284 )" />
  </g>
</svg>