<?xml version="1.0" encoding="utf-8"?>
<svg version="1.1" xmlns:xlink="http://www.w3.org/1999/xlink" width="16px" height="16px" xmlns="http://www.w3.org/2000/svg">
  <g transform="matrix(1 0 0 1 -464 -239 )">
    <path d="M 14.9270833333333 3.984375  C 15.6423611111111 5.21006944444446  16 6.54861111111114  16 8  C 16 9.45138888888886  15.6423611111111 10.7899305555555  14.9270833333333 12.015625  C 14.2118055555555 13.2413194444445  13.2413194444445 14.2118055555555  12.015625 14.9270833333333  C 10.7899305555555 15.6423611111111  9.45138888888886 16  8 16  C 6.54861111111114 16  5.21006944444446 15.6423611111111  3.984375 14.9270833333333  C 2.75868055555554 14.2118055555555  1.78819444444446 13.2413194444445  1.07291666666669 12.015625  C 0.357638888888857 10.7899305555555  0 9.45138888888886  0 8  C 0 6.54861111111114  0.357638888888857 5.21006944444446  1.07291666666669 3.984375  C 1.78819444444446 2.75868055555554  2.75868055555554 1.78819444444446  3.984375 1.07291666666669  C 5.21006944444446 0.357638888888857  6.54861111111114 0  8 0  C 9.45138888888886 0  10.7899305555555 0.357638888888857  12.015625 1.07291666666669  C 13.2413194444445 1.78819444444446  14.2118055555555 2.75868055555554  14.9270833333333 3.984375  Z " fill-rule="nonzero" fill="#ffffff" stroke="none" transform="matrix(1 0 0 1 464 239 )" />
  </g>
</svg>