<?xml version="1.0" encoding="utf-8"?>
<svg version="1.1" xmlns:xlink="http://www.w3.org/1999/xlink" width="14px" height="14px" xmlns="http://www.w3.org/2000/svg">
  <g transform="matrix(1 0 0 1 -448 -260 )">
    <path d="M 13.0611979166666 3.486328125  C 13.6870659722222 4.55881076388891  14 5.73003472222223  14 7  C 14 8.26996527777777  13.6870659722222 9.44118923611109  13.0611979166666 10.513671875  C 12.4353298611111 11.5861545138889  11.5861545138889 12.4353298611111  10.513671875 13.0611979166666  C 9.44118923611109 13.6870659722222  8.26996527777777 14  7 14  C 5.73003472222223 14  4.55881076388891 13.6870659722222  3.486328125 13.0611979166666  C 2.41384548611109 12.4353298611111  1.56467013888891 11.5861545138889  0.938802083333371 10.513671875  C 0.312934027777771 9.44118923611109  0 8.26996527777777  0 7  C 0 5.73003472222223  0.312934027777771 4.55881076388891  0.938802083333371 3.486328125  C 1.56467013888891 2.41384548611109  2.41384548611109 1.56467013888891  3.486328125 0.938802083333371  C 4.55881076388891 0.312934027777771  5.73003472222223 0  7 0  C 8.26996527777777 0  9.44118923611109 0.312934027777771  10.513671875 0.938802083333371  C 11.5861545138889 1.56467013888891  12.4353298611111 2.41384548611109  13.0611979166666 3.486328125  Z " fill-rule="nonzero" fill="#ffffff" stroke="none" transform="matrix(1 0 0 1 448 260 )" />
  </g>
</svg>