<?xml version="1.0" encoding="utf-8"?>
<svg version="1.1" xmlns:xlink="http://www.w3.org/1999/xlink" width="43px" height="44px" xmlns="http://www.w3.org/2000/svg">
  <g transform="matrix(1 0 0 1 -485 -1472 )">
    <path d="M 506.5 1472  C 518.54 1472  528 1481.68  528 1494  C 528 1506.32  518.54 1516  506.5 1516  C 494.46 1516  485 1506.32  485 1494  C 485 1481.68  494.46 1472  506.5 1472  Z " fill-rule="nonzero" fill="#ffffff" stroke="none" />
    <path d="M 506.5 1472.5  C 518.26 1472.5  527.5 1481.96  527.5 1494  C 527.5 1506.04  518.26 1515.5  506.5 1515.5  C 494.74 1515.5  485.5 1506.04  485.5 1494  C 485.5 1481.96  494.74 1472.5  506.5 1472.5  Z " stroke-width="1" stroke="#797979" fill="none" />
  </g>
</svg>