<?xml version="1.0" encoding="utf-8"?>
<svg version="1.1" xmlns:xlink="http://www.w3.org/1999/xlink" width="20px" height="24px" xmlns="http://www.w3.org/2000/svg">
  <g transform="matrix(1 0 0 1 -498 -300 )">
    <path d="M 20 11.7279326386824  C 19.9999710593922 10.4348148200916  18.9330809725152 9.38680838014545  17.617187160707 9.38680838014545  L 2.38246555346956 9.38680838014545  C 1.06660068226904 9.38680838014545  0 10.4348148200916  0 11.7279326386824  L 0 21.6588757417526  C 0 22.9520220548951  1.06660068226904 24  2.38246555346956 24  L 17.6172161013147 24  C 18.933109913123 24  20 22.9520220548951  20 21.6588757417526  L 20 11.7279326386824  Z M 12.0069630747191 14.91651766315  C 12.0069630750131 15.6475775946202  11.603012123012 16.2845195439446  11.0032210732859 16.6262279431793  L 11.0032210732859 19.2328942775526  C 11.0032210732859 19.77828276712  10.554325586119 20.2208908868284  9.99982635708824 20.2208908868284  C 9.4456454732732 20.2208908868284  8.99643164089059 19.7782827674095  8.99643164118459 19.2328942775526  L 8.99643164118459 16.6262279434687  C 8.39727728159585 16.2845195439446  7.99300798467311 15.6475775946202  7.99300798467311 14.91651766315  C 7.99300798467311 13.8251707900866  8.89140670912462 12.9405814342805  9.99982635708824 12.9405814342805  C 11.1082460050519 12.9405814342805  12.0069630747191 13.8251707900866  12.0069630747191 14.91651766315  Z M 17.0246601667861 7.06423416941527  C 17.0246601667861 3.05300725887918  13.879555590284 0  9.99982635708824 0  C 6.12044440971584 0  2.97533983321381 3.05300725916862  2.97533983321381 7.06423416941527  L 2.9753398335078 10.1321156598281  L 17.0246601667861 10.7907420729869  L 17.0246601667861 7.06423416941527  Z M 15.0162211282728 10  L 4.98340264558993 10  L 4.98340264558993 6.99553345619069  C 4.98340264558993 4.26813509321101  7.22941392658151 2.05637675673137  9.99979741677447 2.05637675673137  C 12.7704992518891 2.05637675673137  15.0162211282728 4.26813509321101  15.0162211282728 6.99553345619069  L 15.0162211282728 10  Z " fill-rule="nonzero" fill="#000000" stroke="none" transform="matrix(1 0 0 1 498 300 )" />
  </g>
</svg>