<?xml version="1.0" encoding="utf-8"?>
<svg version="1.1" xmlns:xlink="http://www.w3.org/1999/xlink" width="18px" height="18px" xmlns="http://www.w3.org/2000/svg">
  <g transform="matrix(1 0 0 1 -500 -379 )">
    <path d="M 9 6.75  L 10.5 6.75  L 10.5 4.5  C 10.5 2.84314575050757  11.8431457505076 1.5  13.5 1.5  C 15.1568542494924 1.5  16.5 2.84314575050757  16.5 4.5  L 16.5 6.75  L 18 6.75  L 18 4.5  C 18 2.015625  15.984375 0  13.5 0  C 11.015625 0  9 2.015625  9 4.5  L 9 6.75  Z M 13.5 9  C 13.4975544945517 8.17258795379172  12.8274120462083 7.50244550544835  12 7.5  L 1.5 7.5  C 0.672587953791719 7.50244550544835  0.00244550544834965 8.17258795379172  0 9  L 0 16.5  C 0.00244550544834965 17.3274120462083  0.672587953791719 17.9975544945517  1.5 18  L 12 18  C 12.8274120462083 17.9975544945517  13.4975544945517 17.3274120462083  13.5 16.5  L 13.5 9  Z M 9 12.0004765314404  C 9 12.9539882670277  8.39897948556631 13.8039596298042  7.5 14.121796875  L 7.5 16.5  L 6 16.5  L 6 14.121796875  C 5.10102051443369 13.8039596298042  4.5 12.9539882670277  4.5 12.0004765314404  C 4.5 10.7578358443211  5.50735931288068 9.75047653144037  6.75 9.75047653144037  C 7.99264068711932 9.75047653144037  9 10.7578358443211  9 12.0004765314404  Z " fill-rule="nonzero" fill="#000000" stroke="none" transform="matrix(1 0 0 1 500 379 )" />
  </g>
</svg>