<?xml version="1.0" encoding="utf-8"?>
<svg version="1.1" xmlns:xlink="http://www.w3.org/1999/xlink" width="20px" height="19px" xmlns="http://www.w3.org/2000/svg">
  <g transform="matrix(1 0 0 1 -499 -349 )">
    <path d="M 19.7995991983968 8.73291925465838  C 19.9331997327989 8.86404416839201  20 9.01483781918563  20 9.18530020703935  C 20 9.35576259489301  19.9331997327989 9.50655624568668  19.7995991983968 9.63768115942031  L 10.4609218436874 18.8033126293996  C 10.3273213092853 18.9344375431332  10.1736806947228 19  10 19  C 9.8263193052772 19  9.67267869071475 18.9344375431332  9.5390781563126 18.8033126293996  L 0.200400801603223 9.63768115942031  C 0.0668002672010743 9.50655624568668  0 9.35576259489301  0 9.18530020703935  C 0 9.01483781918563  0.0668002672010743 8.86404416839201  0.200400801603223 8.73291925465838  L 1.20240480961922 7.74948240165634  C 1.33600534402137 7.61835748792271  1.48964595858382 7.55279503105589  1.66332665330663 7.55279503105589  C 1.83700734802937 7.55279503105589  1.99064796259182 7.61835748792271  2.12424849699397 7.74948240165634  L 10 15.4792960662526  L 17.875751503006 7.74948240165634  C 18.0093520374081 7.61835748792271  18.1629926519706 7.55279503105589  18.3366733466934 7.55279503105589  C 18.5103540414162 7.55279503105589  18.6639946559786 7.61835748792271  18.7975951903808 7.74948240165634  L 19.7995991983968 8.73291925465838  Z M 19.7995991983968 1.18012422360249  C 19.9331997327989 1.31124913733606  20 1.46204278812974  20 1.63250517598345  C 20 1.80296756383711  19.9331997327989 1.95376121463079  19.7995991983968 2.08488612836436  L 10.4609218436874 11.2505175983437  C 10.3273213092853 11.3816425120773  10.1736806947228 11.4472049689441  10 11.4472049689441  C 9.8263193052772 11.4472049689441  9.67267869071475 11.3816425120773  9.5390781563126 11.2505175983437  L 0.200400801603223 2.08488612836436  C 0.0668002672010743 1.95376121463079  0 1.80296756383711  0 1.63250517598345  C 0 1.46204278812974  0.0668002672010743 1.31124913733606  0.200400801603223 1.18012422360249  L 1.20240480961922 0.196687370600387  C 1.33600534402137 0.0655624568668145  1.48964595858382 0  1.66332665330663 0  C 1.83700734802937 0  1.99064796259182 0.0655624568668145  2.12424849699397 0.196687370600387  L 10 7.92650103519668  L 17.875751503006 0.196687370600387  C 18.0093520374081 0.0655624568668145  18.1629926519706 0  18.3366733466934 0  C 18.5103540414162 0  18.6639946559786 0.0655624568668145  18.7975951903808 0.196687370600387  L 19.7995991983968 1.18012422360249  Z " fill-rule="nonzero" fill="#333333" stroke="none" transform="matrix(1 0 0 1 499 349 )" />
  </g>
</svg>