<?xml version="1.0" encoding="utf-8"?>
<svg version="1.1" xmlns:xlink="http://www.w3.org/1999/xlink" width="12px" height="12px" viewBox="799 270  12 12" xmlns="http://www.w3.org/2000/svg">
  <path d="M 805 270  C 808.36 270  811 272.64  811 276  C 811 279.36  808.36 282  805 282  C 801.64 282  799 279.36  799 276  C 799 272.64  801.64 270  805 270  Z " fill-rule="nonzero" fill="#f0f0f0" stroke="none" />
  <path d="M 805 270.5  C 808.08 270.5  810.5 272.92  810.5 276  C 810.5 279.08  808.08 281.5  805 281.5  C 801.92 281.5  799.5 279.08  799.5 276  C 799.5 272.92  801.92 270.5  805 270.5  Z " stroke-width="1" stroke="#797979" fill="none" />
  <path d="M 805 279  C 803.32 279  802 277.68  802 276  C 802 274.32  803.32 273  805 273  C 806.68 273  808 274.32  808 276  C 808 277.68  806.68 279  805 279  " fill-rule="nonzero" fill="#797979" stroke="none" />
</svg>