<?xml version="1.0" encoding="utf-8"?>
<svg version="1.1" xmlns:xlink="http://www.w3.org/1999/xlink" width="12px" height="12px" viewBox="799 382  12 12" xmlns="http://www.w3.org/2000/svg">
  <path d="M 805 382  C 808.36 382  811 384.64  811 388  C 811 391.36  808.36 394  805 394  C 801.64 394  799 391.36  799 388  C 799 384.64  801.64 382  805 382  Z " fill-rule="nonzero" fill="#f0f0f0" stroke="none" />
  <path d="M 805 382.5  C 808.08 382.5  810.5 384.92  810.5 388  C 810.5 391.08  808.08 393.5  805 393.5  C 801.92 393.5  799.5 391.08  799.5 388  C 799.5 384.92  801.92 382.5  805 382.5  Z " stroke-width="1" stroke="#797979" fill="none" />
  <path d="M 805 391  C 803.32 391  802 389.68  802 388  C 802 386.32  803.32 385  805 385  C 806.68 385  808 386.32  808 388  C 808 389.68  806.68 391  805 391  " fill-rule="nonzero" fill="#797979" stroke="none" />
</svg>