<?xml version="1.0" encoding="utf-8"?>
<svg version="1.1" xmlns:xlink="http://www.w3.org/1999/xlink" width="12px" height="12px" viewBox="799 298  12 12" xmlns="http://www.w3.org/2000/svg">
  <path d="M 805 298  C 808.36 298  811 300.64  811 304  C 811 307.36  808.36 310  805 310  C 801.64 310  799 307.36  799 304  C 799 300.64  801.64 298  805 298  Z " fill-rule="nonzero" fill="#f0f0f0" stroke="none" />
  <path d="M 805 298.5  C 808.08 298.5  810.5 300.92  810.5 304  C 810.5 307.08  808.08 309.5  805 309.5  C 801.92 309.5  799.5 307.08  799.5 304  C 799.5 300.92  801.92 298.5  805 298.5  Z " stroke-width="1" stroke="#797979" fill="none" />
  <path d="M 805 307  C 803.32 307  802 305.68  802 304  C 802 302.32  803.32 301  805 301  C 806.68 301  808 302.32  808 304  C 808 305.68  806.68 307  805 307  " fill-rule="nonzero" fill="#797979" stroke="none" />
</svg>