<?xml version="1.0" encoding="utf-8"?>
<svg version="1.1" xmlns:xlink="http://www.w3.org/1999/xlink" width="12px" height="12px" viewBox="799 5601  12 12" xmlns="http://www.w3.org/2000/svg">
  <path d="M 805 5601  C 808.36 5601  811 5603.64  811 5607  C 811 5610.36  808.36 5613  805 5613  C 801.64 5613  799 5610.36  799 5607  C 799 5603.64  801.64 5601  805 5601  Z " fill-rule="nonzero" fill="#f0f0f0" stroke="none" />
  <path d="M 805 5601.5  C 808.08 5601.5  810.5 5603.92  810.5 5607  C 810.5 5610.08  808.08 5612.5  805 5612.5  C 801.92 5612.5  799.5 5610.08  799.5 5607  C 799.5 5603.92  801.92 5601.5  805 5601.5  Z " stroke-width="1" stroke="#797979" fill="none" />
  <path d="M 805 5610  C 803.32 5610  802 5608.68  802 5607  C 802 5605.32  803.32 5604  805 5604  C 806.68 5604  808 5605.32  808 5607  C 808 5608.68  806.68 5610  805 5610  " fill-rule="nonzero" fill="#797979" stroke="none" />
</svg>