<?xml version="1.0" encoding="utf-8"?>
<svg version="1.1" xmlns:xlink="http://www.w3.org/1999/xlink" width="12px" height="12px" viewBox="799 5400  12 12" xmlns="http://www.w3.org/2000/svg">
  <path d="M 805 5400  C 808.36 5400  811 5402.64  811 5406  C 811 5409.36  808.36 5412  805 5412  C 801.64 5412  799 5409.36  799 5406  C 799 5402.64  801.64 5400  805 5400  Z " fill-rule="nonzero" fill="#ffffff" stroke="none" />
  <path d="M 805 5400.5  C 808.08 5400.5  810.5 5402.92  810.5 5406  C 810.5 5409.08  808.08 5411.5  805 5411.5  C 801.92 5411.5  799.5 5409.08  799.5 5406  C 799.5 5402.92  801.92 5400.5  805 5400.5  Z " stroke-width="1" stroke="#797979" fill="none" />
  <path d="M 805 5409  C 803.32 5409  802 5407.68  802 5406  C 802 5404.32  803.32 5403  805 5403  C 806.68 5403  808 5404.32  808 5406  C 808 5407.68  806.68 5409  805 5409  " fill-rule="nonzero" fill="#797979" stroke="none" />
</svg>