<?xml version="1.0" encoding="utf-8"?>
<svg version="1.1" xmlns:xlink="http://www.w3.org/1999/xlink" width="12px" height="12px" viewBox="799 5629  12 12" xmlns="http://www.w3.org/2000/svg">
  <path d="M 805 5629  C 808.36 5629  811 5631.64  811 5635  C 811 5638.36  808.36 5641  805 5641  C 801.64 5641  799 5638.36  799 5635  C 799 5631.64  801.64 5629  805 5629  Z " fill-rule="nonzero" fill="#ffffff" stroke="none" />
  <path d="M 805 5629.5  C 808.08 5629.5  810.5 5631.92  810.5 5635  C 810.5 5638.08  808.08 5640.5  805 5640.5  C 801.92 5640.5  799.5 5638.08  799.5 5635  C 799.5 5631.92  801.92 5629.5  805 5629.5  Z " stroke-width="1" stroke="#797979" fill="none" />
  <path d="M 805 5638  C 803.32 5638  802 5636.68  802 5635  C 802 5633.32  803.32 5632  805 5632  C 806.68 5632  808 5633.32  808 5635  C 808 5636.68  806.68 5638  805 5638  " fill-rule="nonzero" fill="#797979" stroke="none" />
</svg>