<?xml version="1.0" encoding="utf-8"?>
<svg version="1.1" xmlns:xlink="http://www.w3.org/1999/xlink" width="12px" height="12px" viewBox="799 5517  12 12" xmlns="http://www.w3.org/2000/svg">
  <path d="M 805 5517  C 808.36 5517  811 5519.64  811 5523  C 811 5526.36  808.36 5529  805 5529  C 801.64 5529  799 5526.36  799 5523  C 799 5519.64  801.64 5517  805 5517  Z " fill-rule="nonzero" fill="#f0f0f0" stroke="none" />
  <path d="M 805 5517.5  C 808.08 5517.5  810.5 5519.92  810.5 5523  C 810.5 5526.08  808.08 5528.5  805 5528.5  C 801.92 5528.5  799.5 5526.08  799.5 5523  C 799.5 5519.92  801.92 5517.5  805 5517.5  Z " stroke-width="1" stroke="#797979" fill="none" />
  <path d="M 805 5526  C 803.32 5526  802 5524.68  802 5523  C 802 5521.32  803.32 5520  805 5520  C 806.68 5520  808 5521.32  808 5523  C 808 5524.68  806.68 5526  805 5526  " fill-rule="nonzero" fill="#797979" stroke="none" />
</svg>