<?xml version="1.0" encoding="utf-8"?>
<svg version="1.1" xmlns:xlink="http://www.w3.org/1999/xlink" width="12px" height="12px" viewBox="799 5545  12 12" xmlns="http://www.w3.org/2000/svg">
  <path d="M 805 5545  C 808.36 5545  811 5547.64  811 5551  C 811 5554.36  808.36 5557  805 5557  C 801.64 5557  799 5554.36  799 5551  C 799 5547.64  801.64 5545  805 5545  Z " fill-rule="nonzero" fill="#f0f0f0" stroke="none" />
  <path d="M 805 5545.5  C 808.08 5545.5  810.5 5547.92  810.5 5551  C 810.5 5554.08  808.08 5556.5  805 5556.5  C 801.92 5556.5  799.5 5554.08  799.5 5551  C 799.5 5547.92  801.92 5545.5  805 5545.5  Z " stroke-width="1" stroke="#797979" fill="none" />
  <path d="M 805 5554  C 803.32 5554  802 5552.68  802 5551  C 802 5549.32  803.32 5548  805 5548  C 806.68 5548  808 5549.32  808 5551  C 808 5552.68  806.68 5554  805 5554  " fill-rule="nonzero" fill="#797979" stroke="none" />
</svg>