<?xml version="1.0" encoding="utf-8"?>
<svg version="1.1" xmlns:xlink="http://www.w3.org/1999/xlink" width="12px" height="12px" viewBox="799 5573  12 12" xmlns="http://www.w3.org/2000/svg">
  <path d="M 805 5573  C 808.36 5573  811 5575.64  811 5579  C 811 5582.36  808.36 5585  805 5585  C 801.64 5585  799 5582.36  799 5579  C 799 5575.64  801.64 5573  805 5573  Z " fill-rule="nonzero" fill="#ffffff" stroke="none" />
  <path d="M 805 5573.5  C 808.08 5573.5  810.5 5575.92  810.5 5579  C 810.5 5582.08  808.08 5584.5  805 5584.5  C 801.92 5584.5  799.5 5582.08  799.5 5579  C 799.5 5575.92  801.92 5573.5  805 5573.5  Z " stroke-width="1" stroke="#797979" fill="none" />
  <path d="M 805 5582  C 803.32 5582  802 5580.68  802 5579  C 802 5577.32  803.32 5576  805 5576  C 806.68 5576  808 5577.32  808 5579  C 808 5580.68  806.68 5582  805 5582  " fill-rule="nonzero" fill="#797979" stroke="none" />
</svg>