<?xml version="1.0" encoding="utf-8"?>
<svg version="1.1" xmlns:xlink="http://www.w3.org/1999/xlink" width="184px" height="104px" xmlns="http://www.w3.org/2000/svg">
  <g transform="matrix(1 0 0 1 -570 -1009 )">
    <path d="M 570 1009  L 754 1009  L 754 1113  L 570 1113  L 570 1009  " fill-rule="nonzero" fill="#cccccc" stroke="none" />
    <path d="M 577 1016  L 747 1016  L 747 1106  L 577 1106  L 577 1016  " fill-rule="nonzero" fill="#ffffff" stroke="none" />
    <path d="M 673.48 1040.2  C 669.112 1040.2  665.68 1036.768  665.68 1032.4  C 665.68 1028.032  669.112 1024.6  673.48 1024.6  C 677.848 1024.6  681.28 1028.032  681.28 1032.4  C 681.28 1036.768  677.848 1040.2  673.48 1040.2  " fill-rule="nonzero" fill="#cccccc" stroke="none" />
    <path d="M 580 1104  L 580 1057.25  L 621.25 1036  L 679 1075.17391304348  L 712 1048.75  L 745 1075.17391304348  L 745 1104  L 580 1104  " fill-rule="nonzero" fill="#169bd5" stroke="none" />
  </g>
</svg>