<?xml version="1.0" encoding="utf-8"?>
<svg version="1.1" xmlns:xlink="http://www.w3.org/1999/xlink" width="16px" height="17px" xmlns="http://www.w3.org/2000/svg">
  <g transform="matrix(1 0 0 1 -782 -955 )">
    <path d="M 4.08173076923083 12.8237847222223  C 4.32211538461536 13.0697337962963  4.44230769230774 13.366512345679  4.44230769230774 13.7141203703703  C 4.44230769230774 14.0617283950618  4.32211538461536 14.3585069444445  4.08173076923083 14.6044560185185  C 3.84134615384619 14.8504050925925  3.55128205128199 14.9733796296297  3.21153846153845 14.9733796296297  C 2.87820512820508 14.9733796296297  2.58974358974365 14.8487654320988  2.34615384615381 14.5995370370371  C 2.10256410256409 14.3503086419754  1.98076923076917 14.0551697530864  1.98076923076917 13.7141203703703  C 1.98076923076917 13.366512345679  2.10096153846155 13.0697337962963  2.34134615384619 12.8237847222223  C 2.58173076923083 12.5778356481482  2.87179487179492 12.4548611111111  3.21153846153845 12.4548611111111  C 3.55128205128199 12.4548611111111  3.84134615384619 12.5778356481482  4.08173076923083 12.8237847222223  Z M 8.87019230769226 14.8504050925925  C 9.11057692307691 15.0963541666667  9.23076923076917 15.3931327160494  9.23076923076917 15.7407407407408  C 9.23076923076917 16.0883487654321  9.11057692307691 16.3851273148148  8.87019230769226 16.6310763888889  C 8.62980769230774 16.8770254629629  8.33974358974365 17  8 17  C 7.66025641025635 17  7.37019230769226 16.8770254629629  7.12980769230774 16.6310763888889  C 6.88942307692309 16.3851273148148  6.76923076923083 16.0883487654321  6.76923076923083 15.7407407407408  C 6.76923076923083 15.3931327160494  6.88942307692309 15.0963541666667  7.12980769230774 14.8504050925925  C 7.37019230769226 14.6044560185185  7.66025641025635 14.4814814814815  8 14.4814814814815  C 8.33974358974365 14.4814814814815  8.62980769230774 14.6044560185185  8.87019230769226 14.8504050925925  Z M 2.10096153846155 7.92447916666674  C 2.34134615384619 8.17042824074076  2.46153846153845 8.46720679012344  2.46153846153845 8.81481481481478  C 2.46153846153845 9.16242283950612  2.34134615384619 9.45920138888891  2.10096153846155 9.70515046296293  C 1.86057692307691 9.95109953703707  1.57051282051282 10.074074074074  1.23076923076917 10.074074074074  C 0.891025641025635 10.074074074074  0.600961538461547 9.95109953703707  0.360576923076906 9.70515046296293  C 0.120192307692264 9.45920138888891  0 9.16242283950612  0 8.81481481481478  C 0 8.46720679012344  0.120192307692264 8.17042824074076  0.360576923076906 7.92447916666674  C 0.600961538461547 7.6785300925925  0.891025641025635 7.55555555555554  1.23076923076917 7.55555555555554  C 1.57051282051282 7.55555555555554  1.86057692307691 7.6785300925925  2.10096153846155 7.92447916666674  Z M 13.6586538461538 12.8237847222223  C 13.8990384615385 13.0697337962963  14.0192307692308 13.366512345679  14.0192307692308 13.7141203703703  C 14.0192307692308 14.0551697530864  13.8974358974359 14.3503086419754  13.6538461538462 14.5995370370371  C 13.4102564102564 14.8487654320988  13.1217948717949 14.9733796296297  12.7884615384615 14.9733796296297  C 12.448717948718 14.9733796296297  12.1586538461538 14.8504050925925  11.9182692307692 14.6044560185185  C 11.6778846153846 14.3585069444445  11.5576923076923 14.0617283950618  11.5576923076923 13.7141203703703  C 11.5576923076923 13.366512345679  11.6778846153846 13.0697337962963  11.9182692307692 12.8237847222223  C 12.1586538461538 12.5778356481482  12.448717948718 12.4548611111111  12.7884615384615 12.4548611111111  C 13.1282051282051 12.4548611111111  13.4182692307692 12.5778356481482  13.6586538461538 12.8237847222223  Z M 4.29807692307691 2.80381944444446  C 4.59935897435889 3.11207561728395  4.75 3.48263888888891  4.75 3.91550925925924  C 4.75 4.34837962962968  4.59935897435889 4.71894290123464  4.29807692307691 5.02719907407402  C 3.99679487179492 5.33545524691363  3.63461538461536 5.48958333333326  3.21153846153845 5.48958333333326  C 2.78846153846155 5.48958333333326  2.42628205128199 5.33545524691363  2.125 5.02719907407402  C 1.82371794871801 4.71894290123464  1.67307692307691 4.34837962962968  1.67307692307691 3.91550925925924  C 1.67307692307691 3.48263888888891  1.82371794871801 3.11207561728395  2.125 2.80381944444446  C 2.42628205128199 2.49556327160496  2.78846153846155 2.34143518518522  3.21153846153845 2.34143518518522  C 3.63461538461536 2.34143518518522  3.99679487179492 2.49556327160496  4.29807692307691 2.80381944444446  Z M 15.6394230769231 7.92447916666674  C 15.8798076923077 8.17042824074076  16 8.46720679012344  16 8.81481481481478  C 16 9.16242283950612  15.8798076923077 9.45920138888891  15.6394230769231 9.70515046296293  C 15.3990384615385 9.95109953703707  15.1089743589744 10.074074074074  14.7692307692308 10.074074074074  C 14.4294871794872 10.074074074074  14.1394230769231 9.95109953703707  13.8990384615385 9.70515046296293  C 13.6586538461538 9.45920138888891  13.5384615384615 9.16242283950612  13.5384615384615 8.81481481481478  C 13.5384615384615 8.46720679012344  13.6586538461538 8.17042824074076  13.8990384615385 7.92447916666674  C 14.1394230769231 7.6785300925925  14.4294871794872 7.55555555555554  14.7692307692308 7.55555555555554  C 15.1089743589744 7.55555555555554  15.3990384615385 7.6785300925925  15.6394230769231 7.92447916666674  Z M 9.30769230769226 0.550925925925981  C 9.66666666666663 0.918209876543187  9.84615384615381 1.3641975308642  9.84615384615381 1.88888888888891  C 9.84615384615381 2.41358024691363  9.66666666666663 2.85956790123464  9.30769230769226 3.22685185185185  C 8.94871794871801 3.59413580246917  8.51282051282055 3.77777777777771  8 3.77777777777771  C 7.48717948717945 3.77777777777771  7.05128205128199 3.59413580246917  6.69230769230774 3.22685185185185  C 6.33333333333337 2.85956790123464  6.15384615384619 2.41358024691363  6.15384615384619 1.88888888888891  C 6.15384615384619 1.3641975308642  6.33333333333337 0.918209876543187  6.69230769230774 0.550925925925981  C 7.05128205128199 0.18364197530866  7.48717948717945 0  8 0  C 8.51282051282055 0  8.94871794871801 0.18364197530866  9.30769230769226 0.550925925925981  Z M 14.3076923076923 2.36111111111109  C 14.7307692307692 2.79398148148152  14.9423076923077 3.31211419753083  14.9423076923077 3.91550925925924  C 14.9423076923077 4.52546296296293  14.7307692307692 5.04523533950612  14.3076923076923 5.47482638888891  C 13.8846153846154 5.90441743827159  13.3782051282051 6.11921296296293  12.7884615384615 6.11921296296293  C 12.1923076923077 6.11921296296293  11.6842948717949 5.90441743827159  11.2644230769231 5.47482638888891  C 10.8445512820513 5.04523533950612  10.6346153846154 4.52546296296293  10.6346153846154 3.91550925925924  C 10.6346153846154 3.31211419753083  10.8445512820513 2.79398148148152  11.2644230769231 2.36111111111109  C 11.6842948717949 1.92824074074076  12.1923076923077 1.71180555555554  12.7884615384615 1.71180555555554  C 13.3782051282051 1.71180555555554  13.8846153846154 1.92824074074076  14.3076923076923 2.36111111111109  Z " fill-rule="nonzero" fill="#333333" stroke="none" transform="matrix(1 0 0 1 782 955 )" />
  </g>
</svg>