<?xml version="1.0" encoding="utf-8"?>
<svg version="1.1" xmlns:xlink="http://www.w3.org/1999/xlink" width="12px" height="12px" viewBox="800 238  12 12" xmlns="http://www.w3.org/2000/svg">
  <path d="M 806 238  C 809.36 238  812 240.64  812 244  C 812 247.36  809.36 250  806 250  C 802.64 250  800 247.36  800 244  C 800 240.64  802.64 238  806 238  Z " fill-rule="nonzero" fill="#f0f0f0" stroke="none" />
  <path d="M 806 238.5  C 809.08 238.5  811.5 240.92  811.5 244  C 811.5 247.08  809.08 249.5  806 249.5  C 802.92 249.5  800.5 247.08  800.5 244  C 800.5 240.92  802.92 238.5  806 238.5  Z " stroke-width="1" stroke="#797979" fill="none" />
  <path d="M 806 247  C 804.32 247  803 245.68  803 244  C 803 242.32  804.32 241  806 241  C 807.68 241  809 242.32  809 244  C 809 245.68  807.68 247  806 247  " fill-rule="nonzero" fill="#797979" stroke="none" />
</svg>