<?xml version="1.0" encoding="utf-8"?>
<svg version="1.1" xmlns:xlink="http://www.w3.org/1999/xlink" width="12px" height="12px" viewBox="800 378  12 12" xmlns="http://www.w3.org/2000/svg">
  <path d="M 806 378  C 809.36 378  812 380.64  812 384  C 812 387.36  809.36 390  806 390  C 802.64 390  800 387.36  800 384  C 800 380.64  802.64 378  806 378  Z " fill-rule="nonzero" fill="#ffffff" stroke="none" />
  <path d="M 806 378.5  C 809.08 378.5  811.5 380.92  811.5 384  C 811.5 387.08  809.08 389.5  806 389.5  C 802.92 389.5  800.5 387.08  800.5 384  C 800.5 380.92  802.92 378.5  806 378.5  Z " stroke-width="1" stroke="#797979" fill="none" />
  <path d="M 806 387  C 804.32 387  803 385.68  803 384  C 803 382.32  804.32 381  806 381  C 807.68 381  809 382.32  809 384  C 809 385.68  807.68 387  806 387  " fill-rule="nonzero" fill="#797979" stroke="none" />
</svg>