<?xml version="1.0" encoding="utf-8"?>
<svg version="1.1" xmlns:xlink="http://www.w3.org/1999/xlink" width="12px" height="12px" viewBox="800 266  12 12" xmlns="http://www.w3.org/2000/svg">
  <path d="M 806 266  C 809.36 266  812 268.64  812 272  C 812 275.36  809.36 278  806 278  C 802.64 278  800 275.36  800 272  C 800 268.64  802.64 266  806 266  Z " fill-rule="nonzero" fill="#ffffff" stroke="none" />
  <path d="M 806 266.5  C 809.08 266.5  811.5 268.92  811.5 272  C 811.5 275.08  809.08 277.5  806 277.5  C 802.92 277.5  800.5 275.08  800.5 272  C 800.5 268.92  802.92 266.5  806 266.5  Z " stroke-width="1" stroke="#797979" fill="none" />
  <path d="M 806 275  C 804.32 275  803 273.68  803 272  C 803 270.32  804.32 269  806 269  C 807.68 269  809 270.32  809 272  C 809 273.68  807.68 275  806 275  " fill-rule="nonzero" fill="#797979" stroke="none" />
</svg>