<?xml version="1.0" encoding="utf-8"?>
<svg version="1.1" xmlns:xlink="http://www.w3.org/1999/xlink" width="12px" height="12px" viewBox="800 149  12 12" xmlns="http://www.w3.org/2000/svg">
  <path d="M 806 149  C 809.36 149  812 151.64  812 155  C 812 158.36  809.36 161  806 161  C 802.64 161  800 158.36  800 155  C 800 151.64  802.64 149  806 149  Z " fill-rule="nonzero" fill="#f0f0f0" stroke="none" />
  <path d="M 806 149.5  C 809.08 149.5  811.5 151.92  811.5 155  C 811.5 158.08  809.08 160.5  806 160.5  C 802.92 160.5  800.5 158.08  800.5 155  C 800.5 151.92  802.92 149.5  806 149.5  Z " stroke-width="1" stroke="#797979" fill="none" />
  <path d="M 806 158  C 804.32 158  803 156.68  803 155  C 803 153.32  804.32 152  806 152  C 807.68 152  809 153.32  809 155  C 809 156.68  807.68 158  806 158  " fill-rule="nonzero" fill="#797979" stroke="none" />
</svg>