<?xml version="1.0" encoding="utf-8"?>
<svg version="1.1" xmlns:xlink="http://www.w3.org/1999/xlink" width="12px" height="12px" viewBox="800 350  12 12" xmlns="http://www.w3.org/2000/svg">
  <path d="M 806 350  C 809.36 350  812 352.64  812 356  C 812 359.36  809.36 362  806 362  C 802.64 362  800 359.36  800 356  C 800 352.64  802.64 350  806 350  Z " fill-rule="nonzero" fill="#f0f0f0" stroke="none" />
  <path d="M 806 350.5  C 809.08 350.5  811.5 352.92  811.5 356  C 811.5 359.08  809.08 361.5  806 361.5  C 802.92 361.5  800.5 359.08  800.5 356  C 800.5 352.92  802.92 350.5  806 350.5  Z " stroke-width="1" stroke="#797979" fill="none" />
  <path d="M 806 359  C 804.32 359  803 357.68  803 356  C 803 354.32  804.32 353  806 353  C 807.68 353  809 354.32  809 356  C 809 357.68  807.68 359  806 359  " fill-rule="nonzero" fill="#797979" stroke="none" />
</svg>