<?xml version="1.0" encoding="utf-8"?>
<svg version="1.1" xmlns:xlink="http://www.w3.org/1999/xlink" width="12px" height="12px" viewBox="800 2192  12 12" xmlns="http://www.w3.org/2000/svg">
  <path d="M 806 2192  C 809.36 2192  812 2194.64  812 2198  C 812 2201.36  809.36 2204  806 2204  C 802.64 2204  800 2201.36  800 2198  C 800 2194.64  802.64 2192  806 2192  Z " fill-rule="nonzero" fill="#f0f0f0" stroke="none" />
  <path d="M 806 2192.5  C 809.08 2192.5  811.5 2194.92  811.5 2198  C 811.5 2201.08  809.08 2203.5  806 2203.5  C 802.92 2203.5  800.5 2201.08  800.5 2198  C 800.5 2194.92  802.92 2192.5  806 2192.5  Z " stroke-width="1" stroke="#797979" fill="none" />
  <path d="M 806 2201  C 804.32 2201  803 2199.68  803 2198  C 803 2196.32  804.32 2195  806 2195  C 807.68 2195  809 2196.32  809 2198  C 809 2199.68  807.68 2201  806 2201  " fill-rule="nonzero" fill="#797979" stroke="none" />
</svg>