<?xml version="1.0" encoding="utf-8"?>
<svg version="1.1" xmlns:xlink="http://www.w3.org/1999/xlink" width="12px" height="12px" viewBox="799 1583  12 12" xmlns="http://www.w3.org/2000/svg">
  <path d="M 805 1583  C 808.36 1583  811 1585.64  811 1589  C 811 1592.36  808.36 1595  805 1595  C 801.64 1595  799 1592.36  799 1589  C 799 1585.64  801.64 1583  805 1583  Z " fill-rule="nonzero" fill="#f0f0f0" stroke="none" />
  <path d="M 805 1583.5  C 808.08 1583.5  810.5 1585.92  810.5 1589  C 810.5 1592.08  808.08 1594.5  805 1594.5  C 801.92 1594.5  799.5 1592.08  799.5 1589  C 799.5 1585.92  801.92 1583.5  805 1583.5  Z " stroke-width="1" stroke="#797979" fill="none" />
  <path d="M 805 1592  C 803.32 1592  802 1590.68  802 1589  C 802 1587.32  803.32 1586  805 1586  C 806.68 1586  808 1587.32  808 1589  C 808 1590.68  806.68 1592  805 1592  " fill-rule="nonzero" fill="#797979" stroke="none" />
</svg>