<?xml version="1.0" encoding="utf-8"?>
<svg version="1.1" xmlns:xlink="http://www.w3.org/1999/xlink" width="12px" height="12px" viewBox="799 350  12 12" xmlns="http://www.w3.org/2000/svg">
  <path d="M 805 350  C 808.36 350  811 352.64  811 356  C 811 359.36  808.36 362  805 362  C 801.64 362  799 359.36  799 356  C 799 352.64  801.64 350  805 350  Z " fill-rule="nonzero" fill="#ffffff" stroke="none" />
  <path d="M 805 350.5  C 808.08 350.5  810.5 352.92  810.5 356  C 810.5 359.08  808.08 361.5  805 361.5  C 801.92 361.5  799.5 359.08  799.5 356  C 799.5 352.92  801.92 350.5  805 350.5  Z " stroke-width="1" stroke="#797979" fill="none" />
  <path d="M 805 359  C 803.32 359  802 357.68  802 356  C 802 354.32  803.32 353  805 353  C 806.68 353  808 354.32  808 356  C 808 357.68  806.68 359  805 359  " fill-rule="nonzero" fill="#797979" stroke="none" />
</svg>