<?xml version="1.0" encoding="utf-8"?>
<svg version="1.1" xmlns:xlink="http://www.w3.org/1999/xlink" width="12px" height="12px" viewBox="799 1635  12 12" xmlns="http://www.w3.org/2000/svg">
  <path d="M 805 1635  C 808.36 1635  811 1637.64  811 1641  C 811 1644.36  808.36 1647  805 1647  C 801.64 1647  799 1644.36  799 1641  C 799 1637.64  801.64 1635  805 1635  Z " fill-rule="nonzero" fill="#ffffff" stroke="none" />
  <path d="M 805 1635.5  C 808.08 1635.5  810.5 1637.92  810.5 1641  C 810.5 1644.08  808.08 1646.5  805 1646.5  C 801.92 1646.5  799.5 1644.08  799.5 1641  C 799.5 1637.92  801.92 1635.5  805 1635.5  Z " stroke-width="1" stroke="#797979" fill="none" />
  <path d="M 805 1644  C 803.32 1644  802 1642.68  802 1641  C 802 1639.32  803.32 1638  805 1638  C 806.68 1638  808 1639.32  808 1641  C 808 1642.68  806.68 1644  805 1644  " fill-rule="nonzero" fill="#797979" stroke="none" />
</svg>