<?xml version="1.0" encoding="utf-8"?>
<svg version="1.1" xmlns:xlink="http://www.w3.org/1999/xlink" width="12px" height="12px" viewBox="799 1608  12 12" xmlns="http://www.w3.org/2000/svg">
  <path d="M 805 1608  C 808.36 1608  811 1610.64  811 1614  C 811 1617.36  808.36 1620  805 1620  C 801.64 1620  799 1617.36  799 1614  C 799 1610.64  801.64 1608  805 1608  Z " fill-rule="nonzero" fill="#f0f0f0" stroke="none" />
  <path d="M 805 1608.5  C 808.08 1608.5  810.5 1610.92  810.5 1614  C 810.5 1617.08  808.08 1619.5  805 1619.5  C 801.92 1619.5  799.5 1617.08  799.5 1614  C 799.5 1610.92  801.92 1608.5  805 1608.5  Z " stroke-width="1" stroke="#797979" fill="none" />
  <path d="M 805 1617  C 803.32 1617  802 1615.68  802 1614  C 802 1612.32  803.32 1611  805 1611  C 806.68 1611  808 1612.32  808 1614  C 808 1615.68  806.68 1617  805 1617  " fill-rule="nonzero" fill="#797979" stroke="none" />
</svg>