<?xml version="1.0" encoding="utf-8"?>
<svg version="1.1" xmlns:xlink="http://www.w3.org/1999/xlink" width="12px" height="12px" viewBox="799 1726  12 12" xmlns="http://www.w3.org/2000/svg">
  <path d="M 805 1726  C 808.36 1726  811 1728.64  811 1732  C 811 1735.36  808.36 1738  805 1738  C 801.64 1738  799 1735.36  799 1732  C 799 1728.64  801.64 1726  805 1726  Z " fill-rule="nonzero" fill="#ffffff" stroke="none" />
  <path d="M 805 1726.5  C 808.08 1726.5  810.5 1728.92  810.5 1732  C 810.5 1735.08  808.08 1737.5  805 1737.5  C 801.92 1737.5  799.5 1735.08  799.5 1732  C 799.5 1728.92  801.92 1726.5  805 1726.5  Z " stroke-width="1" stroke="#797979" fill="none" />
  <path d="M 805 1735  C 803.32 1735  802 1733.68  802 1732  C 802 1730.32  803.32 1729  805 1729  C 806.68 1729  808 1730.32  808 1732  C 808 1733.68  806.68 1735  805 1735  " fill-rule="nonzero" fill="#797979" stroke="none" />
</svg>