<?xml version="1.0" encoding="utf-8"?>
<svg version="1.1" xmlns:xlink="http://www.w3.org/1999/xlink" width="12px" height="12px" viewBox="799 2292  12 12" xmlns="http://www.w3.org/2000/svg">
  <path d="M 805 2292  C 808.36 2292  811 2294.64  811 2298  C 811 2301.36  808.36 2304  805 2304  C 801.64 2304  799 2301.36  799 2298  C 799 2294.64  801.64 2292  805 2292  Z " fill-rule="nonzero" fill="#ffffff" stroke="none" />
  <path d="M 805 2292.5  C 808.08 2292.5  810.5 2294.92  810.5 2298  C 810.5 2301.08  808.08 2303.5  805 2303.5  C 801.92 2303.5  799.5 2301.08  799.5 2298  C 799.5 2294.92  801.92 2292.5  805 2292.5  Z " stroke-width="1" stroke="#797979" fill="none" />
  <path d="M 805 2301  C 803.32 2301  802 2299.68  802 2298  C 802 2296.32  803.32 2295  805 2295  C 806.68 2295  808 2296.32  808 2298  C 808 2299.68  806.68 2301  805 2301  " fill-rule="nonzero" fill="#797979" stroke="none" />
</svg>