<?xml version="1.0" encoding="utf-8"?>
<svg version="1.1" xmlns:xlink="http://www.w3.org/1999/xlink" width="12px" height="12px" viewBox="799 2265  12 12" xmlns="http://www.w3.org/2000/svg">
  <path d="M 805 2265  C 808.36 2265  811 2267.64  811 2271  C 811 2274.36  808.36 2277  805 2277  C 801.64 2277  799 2274.36  799 2271  C 799 2267.64  801.64 2265  805 2265  Z " fill-rule="nonzero" fill="#ffffff" stroke="none" />
  <path d="M 805 2265.5  C 808.08 2265.5  810.5 2267.92  810.5 2271  C 810.5 2274.08  808.08 2276.5  805 2276.5  C 801.92 2276.5  799.5 2274.08  799.5 2271  C 799.5 2267.92  801.92 2265.5  805 2265.5  Z " stroke-width="1" stroke="#797979" fill="none" />
  <path d="M 805 2274  C 803.32 2274  802 2272.68  802 2271  C 802 2269.32  803.32 2268  805 2268  C 806.68 2268  808 2269.32  808 2271  C 808 2272.68  806.68 2274  805 2274  " fill-rule="nonzero" fill="#797979" stroke="none" />
</svg>