<?xml version="1.0" encoding="utf-8"?>
<svg version="1.1" xmlns:xlink="http://www.w3.org/1999/xlink" width="12px" height="12px" viewBox="799 2358  12 12" xmlns="http://www.w3.org/2000/svg">
  <path d="M 805 2358  C 808.36 2358  811 2360.64  811 2364  C 811 2367.36  808.36 2370  805 2370  C 801.64 2370  799 2367.36  799 2364  C 799 2360.64  801.64 2358  805 2358  Z " fill-rule="nonzero" fill="#ffffff" stroke="none" />
  <path d="M 805 2358.5  C 808.08 2358.5  810.5 2360.92  810.5 2364  C 810.5 2367.08  808.08 2369.5  805 2369.5  C 801.92 2369.5  799.5 2367.08  799.5 2364  C 799.5 2360.92  801.92 2358.5  805 2358.5  Z " stroke-width="1" stroke="#797979" fill="none" />
  <path d="M 805 2367  C 803.32 2367  802 2365.68  802 2364  C 802 2362.32  803.32 2361  805 2361  C 806.68 2361  808 2362.32  808 2364  C 808 2365.68  806.68 2367  805 2367  " fill-rule="nonzero" fill="#797979" stroke="none" />
</svg>