<?xml version="1.0" encoding="utf-8"?>
<svg version="1.1" xmlns:xlink="http://www.w3.org/1999/xlink" width="12px" height="12px" viewBox="799 2383  12 12" xmlns="http://www.w3.org/2000/svg">
  <path d="M 805 2383  C 808.36 2383  811 2385.64  811 2389  C 811 2392.36  808.36 2395  805 2395  C 801.64 2395  799 2392.36  799 2389  C 799 2385.64  801.64 2383  805 2383  Z " fill-rule="nonzero" fill="#ffffff" stroke="none" />
  <path d="M 805 2383.5  C 808.08 2383.5  810.5 2385.92  810.5 2389  C 810.5 2392.08  808.08 2394.5  805 2394.5  C 801.92 2394.5  799.5 2392.08  799.5 2389  C 799.5 2385.92  801.92 2383.5  805 2383.5  Z " stroke-width="1" stroke="#797979" fill="none" />
  <path d="M 805 2392  C 803.32 2392  802 2390.68  802 2389  C 802 2387.32  803.32 2386  805 2386  C 806.68 2386  808 2387.32  808 2389  C 808 2390.68  806.68 2392  805 2392  " fill-rule="nonzero" fill="#797979" stroke="none" />
</svg>