<?xml version="1.0" encoding="utf-8"?>
<svg version="1.1" xmlns:xlink="http://www.w3.org/1999/xlink" width="12px" height="12px" viewBox="799 2240  12 12" xmlns="http://www.w3.org/2000/svg">
  <path d="M 805 2240  C 808.36 2240  811 2242.64  811 2246  C 811 2249.36  808.36 2252  805 2252  C 801.64 2252  799 2249.36  799 2246  C 799 2242.64  801.64 2240  805 2240  Z " fill-rule="nonzero" fill="#ffffff" stroke="none" />
  <path d="M 805 2240.5  C 808.08 2240.5  810.5 2242.92  810.5 2246  C 810.5 2249.08  808.08 2251.5  805 2251.5  C 801.92 2251.5  799.5 2249.08  799.5 2246  C 799.5 2242.92  801.92 2240.5  805 2240.5  Z " stroke-width="1" stroke="#797979" fill="none" />
  <path d="M 805 2249  C 803.32 2249  802 2247.68  802 2246  C 802 2244.32  803.32 2243  805 2243  C 806.68 2243  808 2244.32  808 2246  C 808 2247.68  806.68 2249  805 2249  " fill-rule="nonzero" fill="#797979" stroke="none" />
</svg>