<?xml version="1.0" encoding="utf-8"?>
<svg version="1.1" xmlns:xlink="http://www.w3.org/1999/xlink" width="12px" height="12px" viewBox="799 896  12 12" xmlns="http://www.w3.org/2000/svg">
  <path d="M 805 896  C 808.36 896  811 898.64  811 902  C 811 905.36  808.36 908  805 908  C 801.64 908  799 905.36  799 902  C 799 898.64  801.64 896  805 896  Z " fill-rule="nonzero" fill="#f0f0f0" stroke="none" />
  <path d="M 805 896.5  C 808.08 896.5  810.5 898.92  810.5 902  C 810.5 905.08  808.08 907.5  805 907.5  C 801.92 907.5  799.5 905.08  799.5 902  C 799.5 898.92  801.92 896.5  805 896.5  Z " stroke-width="1" stroke="#797979" fill="none" />
  <path d="M 805 905  C 803.32 905  802 903.68  802 902  C 802 900.32  803.32 899  805 899  C 806.68 899  808 900.32  808 902  C 808 903.68  806.68 905  805 905  " fill-rule="nonzero" fill="#797979" stroke="none" />
</svg>