<?xml version="1.0" encoding="utf-8"?>
<svg version="1.1" xmlns:xlink="http://www.w3.org/1999/xlink" width="12px" height="12px" viewBox="799 1014  12 12" xmlns="http://www.w3.org/2000/svg">
  <path d="M 805 1014  C 808.36 1014  811 1016.64  811 1020  C 811 1023.36  808.36 1026  805 1026  C 801.64 1026  799 1023.36  799 1020  C 799 1016.64  801.64 1014  805 1014  Z " fill-rule="nonzero" fill="#ffffff" stroke="none" />
  <path d="M 805 1014.5  C 808.08 1014.5  810.5 1016.92  810.5 1020  C 810.5 1023.08  808.08 1025.5  805 1025.5  C 801.92 1025.5  799.5 1023.08  799.5 1020  C 799.5 1016.92  801.92 1014.5  805 1014.5  Z " stroke-width="1" stroke="#797979" fill="none" />
  <path d="M 805 1023  C 803.32 1023  802 1021.68  802 1020  C 802 1018.32  803.32 1017  805 1017  C 806.68 1017  808 1018.32  808 1020  C 808 1021.68  806.68 1023  805 1023  " fill-rule="nonzero" fill="#797979" stroke="none" />
</svg>