<?xml version="1.0" encoding="utf-8"?>
<svg version="1.1" xmlns:xlink="http://www.w3.org/1999/xlink" width="12px" height="12px" viewBox="799 989  12 12" xmlns="http://www.w3.org/2000/svg">
  <path d="M 805 989  C 808.36 989  811 991.64  811 995  C 811 998.36  808.36 1001  805 1001  C 801.64 1001  799 998.36  799 995  C 799 991.64  801.64 989  805 989  Z " fill-rule="nonzero" fill="#ffffff" stroke="none" />
  <path d="M 805 989.5  C 808.08 989.5  810.5 991.92  810.5 995  C 810.5 998.08  808.08 1000.5  805 1000.5  C 801.92 1000.5  799.5 998.08  799.5 995  C 799.5 991.92  801.92 989.5  805 989.5  Z " stroke-width="1" stroke="#797979" fill="none" />
  <path d="M 805 998  C 803.32 998  802 996.68  802 995  C 802 993.32  803.32 992  805 992  C 806.68 992  808 993.32  808 995  C 808 996.68  806.68 998  805 998  " fill-rule="nonzero" fill="#797979" stroke="none" />
</svg>