<?xml version="1.0" encoding="utf-8"?>
<svg version="1.1" xmlns:xlink="http://www.w3.org/1999/xlink" width="21px" height="14px" xmlns="http://www.w3.org/2000/svg">
  <g transform="matrix(1 0 0 1 -355 -275 )">
    <path d="M 15.591796875 10.9678819444444  C 17.158203125 9.98350694444444  18.4609375 8.66087962962963  19.5 7  C 18.3125 5.08796296296296  16.82421875 3.65798611111111  15.03515625 2.71006944444444  C 15.51171875 3.55266203703704  15.75 4.46412037037037  15.75 5.44444444444444  C 15.75 6.94328703703704  15.236328125 8.22540509259259  14.208984375 9.29079861111111  C 13.181640625 10.3561921296296  11.9453125 10.8888888888889  10.5 10.8888888888889  C 9.0546875 10.8888888888889  7.818359375 10.3561921296296  6.791015625 9.29079861111111  C 5.763671875 8.22540509259259  5.25 6.94328703703704  5.25 5.44444444444444  C 5.25 4.46412037037037  5.48828125 3.55266203703704  5.96484375 2.71006944444444  C 4.17578125 3.65798611111111  2.6875 5.08796296296296  1.5 7  C 2.5390625 8.66087962962963  3.841796875 9.98350694444444  5.408203125 10.9678819444444  C 6.974609375 11.9522569444444  8.671875 12.4444444444444  10.5 12.4444444444444  C 12.328125 12.4444444444444  14.025390625 11.9522569444444  15.591796875 10.9678819444444  Z M 10.8984375 2.74652777777778  C 11.0078125 2.63310185185185  11.0625 2.49537037037037  11.0625 2.33333333333333  C 11.0625 2.1712962962963  11.0078125 2.03356481481481  10.8984375 1.92013888888889  C 10.7890625 1.80671296296296  10.65625 1.75  10.5 1.75  C 9.5234375 1.75  8.685546875 2.11255787037037  7.986328125 2.83767361111111  C 7.287109375 3.56278935185185  6.9375 4.43171296296296  6.9375 5.44444444444444  C 6.9375 5.60648148148148  6.9921875 5.74421296296296  7.1015625 5.85763888888889  C 7.2109375 5.97106481481481  7.34375 6.02777777777778  7.5 6.02777777777778  C 7.65625 6.02777777777778  7.7890625 5.97106481481481  7.8984375 5.85763888888889  C 8.0078125 5.74421296296296  8.0625 5.60648148148148  8.0625 5.44444444444444  C 8.0625 4.74768518518519  8.30078125 4.15219907407407  8.77734375 3.65798611111111  C 9.25390625 3.16377314814815  9.828125 2.91666666666667  10.5 2.91666666666667  C 10.65625 2.91666666666667  10.7890625 2.8599537037037  10.8984375 2.74652777777778  Z M 20.765625 6.16145833333333  C 20.921875 6.44502314814815  21 6.72453703703704  21 7  C 21 7.27546296296296  20.921875 7.55497685185185  20.765625 7.83854166666667  C 19.671875 9.70196759259259  18.201171875 11.1947337962963  16.353515625 12.3168402777778  C 14.505859375 13.4389467592593  12.5546875 14  10.5 14  C 8.4453125 14  6.494140625 13.4369212962963  4.646484375 12.3107638888889  C 2.798828125 11.1846064814815  1.328125 9.69386574074074  0.234375 7.83854166666667  C 0.078125 7.55497685185185  0 7.27546296296296  0 7  C 0 6.72453703703704  0.078125 6.44502314814815  0.234375 6.16145833333333  C 1.328125 4.30613425925926  2.798828125 2.81539351851852  4.646484375 1.68923611111111  C 6.494140625 0.563078703703703  8.4453125 0  10.5 0  C 12.5546875 0  14.505859375 0.563078703703703  16.353515625 1.68923611111111  C 18.201171875 2.81539351851852  19.671875 4.30613425925926  20.765625 6.16145833333333  Z " fill-rule="nonzero" fill="#000000" stroke="none" transform="matrix(1 0 0 1 355 275 )" />
  </g>
</svg>