<?xml version="1.0" encoding="utf-8"?>
<svg version="1.1" xmlns:xlink="http://www.w3.org/1999/xlink" width="12px" height="12px" viewBox="797 813  12 12" xmlns="http://www.w3.org/2000/svg">
  <path d="M 803 813  C 806.36 813  809 815.64  809 819  C 809 822.36  806.36 825  803 825  C 799.64 825  797 822.36  797 819  C 797 815.64  799.64 813  803 813  Z " fill-rule="nonzero" fill="#ffffff" stroke="none" />
  <path d="M 803 813.5  C 806.08 813.5  808.5 815.92  808.5 819  C 808.5 822.08  806.08 824.5  803 824.5  C 799.92 824.5  797.5 822.08  797.5 819  C 797.5 815.92  799.92 813.5  803 813.5  Z " stroke-width="1" stroke="#797979" fill="none" />
  <path d="M 803 822  C 801.32 822  800 820.68  800 819  C 800 817.32  801.32 816  803 816  C 804.68 816  806 817.32  806 819  C 806 820.68  804.68 822  803 822  " fill-rule="nonzero" fill="#797979" stroke="none" />
</svg>