<?xml version="1.0" encoding="utf-8"?>
<svg version="1.1" xmlns:xlink="http://www.w3.org/1999/xlink" width="12px" height="12px" viewBox="797 1427  12 12" xmlns="http://www.w3.org/2000/svg">
  <path d="M 803 1427  C 806.36 1427  809 1429.64  809 1433  C 809 1436.36  806.36 1439  803 1439  C 799.64 1439  797 1436.36  797 1433  C 797 1429.64  799.64 1427  803 1427  Z " fill-rule="nonzero" fill="#ffffff" stroke="none" />
  <path d="M 803 1427.5  C 806.08 1427.5  808.5 1429.92  808.5 1433  C 808.5 1436.08  806.08 1438.5  803 1438.5  C 799.92 1438.5  797.5 1436.08  797.5 1433  C 797.5 1429.92  799.92 1427.5  803 1427.5  Z " stroke-width="1" stroke="#797979" fill="none" />
  <path d="M 803 1436  C 801.32 1436  800 1434.68  800 1433  C 800 1431.32  801.32 1430  803 1430  C 804.68 1430  806 1431.32  806 1433  C 806 1434.68  804.68 1436  803 1436  " fill-rule="nonzero" fill="#797979" stroke="none" />
</svg>