<?xml version="1.0" encoding="utf-8"?>
<svg version="1.1" xmlns:xlink="http://www.w3.org/1999/xlink" width="12px" height="12px" viewBox="797 1452  12 12" xmlns="http://www.w3.org/2000/svg">
  <path d="M 803 1452  C 806.36 1452  809 1454.64  809 1458  C 809 1461.36  806.36 1464  803 1464  C 799.64 1464  797 1461.36  797 1458  C 797 1454.64  799.64 1452  803 1452  Z " fill-rule="nonzero" fill="#ffffff" stroke="none" />
  <path d="M 803 1452.5  C 806.08 1452.5  808.5 1454.92  808.5 1458  C 808.5 1461.08  806.08 1463.5  803 1463.5  C 799.92 1463.5  797.5 1461.08  797.5 1458  C 797.5 1454.92  799.92 1452.5  803 1452.5  Z " stroke-width="1" stroke="#797979" fill="none" />
  <path d="M 803 1461  C 801.32 1461  800 1459.68  800 1458  C 800 1456.32  801.32 1455  803 1455  C 804.68 1455  806 1456.32  806 1458  C 806 1459.68  804.68 1461  803 1461  " fill-rule="nonzero" fill="#797979" stroke="none" />
</svg>