<?xml version="1.0" encoding="utf-8"?>
<svg version="1.1" xmlns:xlink="http://www.w3.org/1999/xlink" width="12px" height="12px" viewBox="797 145  12 12" xmlns="http://www.w3.org/2000/svg">
  <path d="M 803 145  C 806.36 145  809 147.64  809 151  C 809 154.36  806.36 157  803 157  C 799.64 157  797 154.36  797 151  C 797 147.64  799.64 145  803 145  Z " fill-rule="nonzero" fill="#ffffff" stroke="none" />
  <path d="M 803 145.5  C 806.08 145.5  808.5 147.92  808.5 151  C 808.5 154.08  806.08 156.5  803 156.5  C 799.92 156.5  797.5 154.08  797.5 151  C 797.5 147.92  799.92 145.5  803 145.5  Z " stroke-width="1" stroke="#797979" fill="none" />
  <path d="M 803 154  C 801.32 154  800 152.68  800 151  C 800 149.32  801.32 148  803 148  C 804.68 148  806 149.32  806 151  C 806 152.68  804.68 154  803 154  " fill-rule="nonzero" fill="#797979" stroke="none" />
</svg>