<?xml version="1.0" encoding="utf-8"?>
<svg version="1.1" xmlns:xlink="http://www.w3.org/1999/xlink" width="12px" height="12px" viewBox="797 784  12 12" xmlns="http://www.w3.org/2000/svg">
  <path d="M 803 784  C 806.36 784  809 786.64  809 790  C 809 793.36  806.36 796  803 796  C 799.64 796  797 793.36  797 790  C 797 786.64  799.64 784  803 784  Z " fill-rule="nonzero" fill="#ffffff" stroke="none" />
  <path d="M 803 784.5  C 806.08 784.5  808.5 786.92  808.5 790  C 808.5 793.08  806.08 795.5  803 795.5  C 799.92 795.5  797.5 793.08  797.5 790  C 797.5 786.92  799.92 784.5  803 784.5  Z " stroke-width="1" stroke="#797979" fill="none" />
  <path d="M 803 793  C 801.32 793  800 791.68  800 790  C 800 788.32  801.32 787  803 787  C 804.68 787  806 788.32  806 790  C 806 791.68  804.68 793  803 793  " fill-rule="nonzero" fill="#797979" stroke="none" />
</svg>