<?xml version="1.0" encoding="utf-8"?>
<svg version="1.1" xmlns:xlink="http://www.w3.org/1999/xlink" width="12px" height="12px" viewBox="421 209  12 12" xmlns="http://www.w3.org/2000/svg">
  <path d="M 427 209  C 430.36 209  433 211.64  433 215  C 433 218.36  430.36 221  427 221  C 423.64 221  421 218.36  421 215  C 421 211.64  423.64 209  427 209  Z " fill-rule="nonzero" fill="#f0f0f0" stroke="none" />
  <path d="M 427 209.5  C 430.08 209.5  432.5 211.92  432.5 215  C 432.5 218.08  430.08 220.5  427 220.5  C 423.92 220.5  421.5 218.08  421.5 215  C 421.5 211.92  423.92 209.5  427 209.5  Z " stroke-width="1" stroke="#797979" fill="none" />
  <path d="M 427 218  C 425.32 218  424 216.68  424 215  C 424 213.32  425.32 212  427 212  C 428.68 212  430 213.32  430 215  C 430 216.68  428.68 218  427 218  " fill-rule="nonzero" fill="#797979" stroke="none" />
</svg>