<?xml version="1.0" encoding="utf-8"?>
<svg version="1.1" xmlns:xlink="http://www.w3.org/1999/xlink" width="12px" height="12px" viewBox="797 205  12 12" xmlns="http://www.w3.org/2000/svg">
  <path d="M 803 205  C 806.36 205  809 207.64  809 211  C 809 214.36  806.36 217  803 217  C 799.64 217  797 214.36  797 211  C 797 207.64  799.64 205  803 205  Z " fill-rule="nonzero" fill="#ffffff" stroke="none" />
  <path d="M 803 205.5  C 806.08 205.5  808.5 207.92  808.5 211  C 808.5 214.08  806.08 216.5  803 216.5  C 799.92 216.5  797.5 214.08  797.5 211  C 797.5 207.92  799.92 205.5  803 205.5  Z " stroke-width="1" stroke="#797979" fill="none" />
  <path d="M 803 214  C 801.32 214  800 212.68  800 211  C 800 209.32  801.32 208  803 208  C 804.68 208  806 209.32  806 211  C 806 212.68  804.68 214  803 214  " fill-rule="nonzero" fill="#797979" stroke="none" />
</svg>