<?xml version="1.0" encoding="utf-8"?>
<svg version="1.1" xmlns:xlink="http://www.w3.org/1999/xlink" width="12px" height="12px" viewBox="797 230  12 12" xmlns="http://www.w3.org/2000/svg">
  <path d="M 803 230  C 806.36 230  809 232.64  809 236  C 809 239.36  806.36 242  803 242  C 799.64 242  797 239.36  797 236  C 797 232.64  799.64 230  803 230  Z " fill-rule="nonzero" fill="#ffffff" stroke="none" />
  <path d="M 803 230.5  C 806.08 230.5  808.5 232.92  808.5 236  C 808.5 239.08  806.08 241.5  803 241.5  C 799.92 241.5  797.5 239.08  797.5 236  C 797.5 232.92  799.92 230.5  803 230.5  Z " stroke-width="1" stroke="#797979" fill="none" />
  <path d="M 803 239  C 801.32 239  800 237.68  800 236  C 800 234.32  801.32 233  803 233  C 804.68 233  806 234.32  806 236  C 806 237.68  804.68 239  803 239  " fill-rule="nonzero" fill="#797979" stroke="none" />
</svg>