<?xml version="1.0" encoding="utf-8"?>
<svg version="1.1" xmlns:xlink="http://www.w3.org/1999/xlink" width="15px" height="15px" xmlns="http://www.w3.org/2000/svg">
  <g transform="matrix(1 0 0 1 -438 -282 )">
    <path d="M 8.14945140557035 14.3745928338762  C 8.14945140557035 14.0292508143322  7.87015516457836 13.7489902280129  7.52600142829323 13.7489902280129  C 4.09205998831391 13.7489902280129  1.29851327663448 10.9457980456026  1.29851327663448 7.5  C 1.29851327663448 6.11061889250817  1.75251574368633 4.78631921824103  2.5748230864117 3.70788273615636  L 2.5748230864117 4.7165472312704  C 2.5748230864117 5.06188925081437  2.85392456015063 5.3419543973942  3.19807829643577 5.3419543973942  C 3.5422320327209 5.3419543973942  3.82133350645972 5.06188925081437  3.82133350645972 4.7165472312704  L 3.82133350645972 2.17328990228009  C 3.82133350645972 2.05856677524429  3.79036551321178 1.9512703583062  3.73680451860025 1.8588273615635  C 3.73563591508145 1.85687296416944  3.7346620788158 1.85491856677521  3.73349347529705 1.85296416938115  C 3.7303771992469 1.84749185667755  3.72687138869048 1.8422149837134  3.72356034538728 1.8369381107492  C 3.72102837109657 1.83302931596097  3.71849639680579 1.82892508143328  3.71596442251507 1.825016286645  C 3.71440628449005 1.82247557003262  3.71265337921187 1.82013029315959  3.71090047393363 1.81778501628668  C 3.7011630226296 1.80352902744477  3.69089811973566 1.78964311900211  3.68012724793869 1.77615635179154  C 3.54749074855545 1.61296416938114  3.34980198662601 1.53478827361573  3.1552295007466 1.547687296417  L 0.62325521002407 1.547687296417  C 0.279101473738933 1.547687296417  0 1.82775244299683  0 2.1730944625408  C 0 2.51843648208467  0.279101473738933 2.7985016286645  0.62325521002407 2.7985016286645  L 1.70129195611247 2.7985016286645  C 0.640199961046562 4.11889250814329  0.0520028565863981 5.76742671009771  0.0520028565863981 7.5  C 0.0520028565863981 8.51218241042341  0.24969161851584 9.4944625407166  0.639615659287131 10.4194788273616  C 1.01610075959235 11.3126384364821  1.55482698175678 12.1147231270358  2.2411867817957 12.8032573289902  C 2.92735181458158 13.4917915309446  3.72667662143738 14.0325732899023  4.61676296825294 14.4103583061889  C 5.5385963773291 14.8016286644951  6.51749659157309 15  7.52619619554628 15  C 7.87034993183141 15  8.14945140557035 14.7199348534202  8.14945140557035 14.3745928338762  Z M 14.8106862299552 13.0170684039088  C 14.8106862299552 12.6717263843648  14.5319742907225 12.3918566775244  14.1878205544374 12.3918566775244  L 13.1900279166396 12.3918566775244  C 13.5758618450951 11.9423452768729  13.9093033824579 11.4478827361563  14.1784717262871 10.9217589576547  C 14.7160293449327 9.87146579804556  15 8.68827361563513  15 7.5  C 15 6.48781758957659  14.8023112380704 5.5055374592834  14.4123871972992 4.58052117263844  C 14.0359020969941 3.68736156351792  13.4971758748295 2.8854723127036  12.8108160747906 2.19674267100982  C 12.1246510420048 1.50820846905538  11.325326235149 0.967426710097698  10.4352398883335 0.589641693811132  C 9.51340647925724 0.198371335504874  8.53450626501325 0  7.52580666104007 0  C 7.18165292475493 0  6.90255145101605 0.28006514657983  6.90255145101605 0.625407166123807  C 6.90255145101605 0.970749185667785  7.18165292475493 1.25081433224761  7.52580666104007 1.25081433224761  C 10.9597481010192 1.25081433224761  13.7532948126988 4.0542019543974  13.7532948126988 7.4998045602606  C 13.7532948126988 9.03029315960913  13.214179056028 10.4628664495114  12.2419009283905 11.5854723127036  L 12.2465753424657 10.4902280130293  C 12.2481334804908 10.1448859934853  11.9702006102707 9.86364820846904  11.6260468739856 9.86208469055367  L 11.6233201324417 9.86208469055367  C 11.2803349996753 9.86208469055367  11.0016230604427 10.1403908794788  11.0000649224177 10.4847557003257  L 10.9893527234954 13.014332247557  C 10.9886277845498 13.1806169771382  11.0539513643591 13.3403402254958  11.1708758034149 13.4581758957655  C 11.202351554413 13.4898707099622  11.2371585193567 13.5180483319094  11.2746867493345 13.5422149837133  C 11.2750762838408 13.5424104234528  11.275465818347 13.5426058631921  11.2758553528533 13.542996742671  C 11.2852041810037 13.5490553745929  11.2947477764071 13.5549185667752  11.3044861390637 13.5603908794788  L 11.3074076478608 13.5621498371336  C 11.3171460105174 13.5676221498371  11.326884373174 13.5727035830619  11.3368175030838 13.5777850162866  C 11.3374018048432 13.5779804560261  11.3377913393494 13.5783713355049  11.3383756411088 13.5785667752442  C 11.3703174706226 13.5942019543974  11.4034279036551 13.6071009771987  11.4377069402064 13.6172638436482  C 11.4490034408881 13.6205863192182  11.4597156398104 13.62332247557  11.4706226059858 13.6258631921824  C 11.4719859767578 13.6262540716613  11.4735441147828 13.6264495114006  11.4749074855548 13.6268403908795  C 11.4846458482114 13.6289902280129  11.4943842108679 13.6309446254072  11.5041225735246 13.6327035830619  C 11.506070246056 13.6330944625407  11.5080179185872 13.6334853420195  11.5099655911185 13.6336807817589  C 11.5193144192689 13.6352442996742  11.5286632474193 13.6366123778502  11.5380120755697 13.6377850162866  C 11.5401545153541 13.6379804560261  11.5424917223917 13.6383713355048  11.5446341621762 13.6385667752442  C 11.5539829903265 13.6395439739414  11.5631370512237 13.640325732899  11.5724858793741 13.6409120521173  L 11.5791079659806 13.6414983713354  C 11.5894306303966 13.6420846905538  11.5999480620658 13.6422801302931  11.6104654937349 13.6424755700325  L 14.1874310199311 13.6424755700325  C 14.5315847562163 13.6424755700325  14.8106862299552 13.3624104234528  14.8106862299552 13.0170684039088  Z " fill-rule="nonzero" fill="#000000" stroke="none" transform="matrix(1 0 0 1 438 282 )" />
  </g>
</svg>