<?xml version="1.0" encoding="utf-8"?>
<svg version="1.1" xmlns:xlink="http://www.w3.org/1999/xlink" width="12px" height="12px" xmlns="http://www.w3.org/2000/svg">
  <g transform="matrix(1 0 0 1 -716 -154 )">
    <path d="M 10.2421564295183 10.2421564295183  L 10.2421564295183 7.75784357048167  L 12 6  L 10.2421564295183 4.24215642951833  L 10.2421564295183 1.75784357048167  L 7.75784357048167 1.75784357048167  L 6 0  L 4.24215642951833 1.75784357048167  L 1.75784357048167 1.75784357048167  L 1.75784357048167 4.24215642951833  L 0 6  L 1.75784357048167 7.75784357048167  L 1.75784357048167 10.2421564295183  L 4.24215642951833 10.2421564295183  L 6 12  L 7.75784357048167 10.2421564295183  L 10.2421564295183 10.2421564295183  Z M 9.18161732213878 6  C 9.18161732213878 7.75784357048167  7.75784357048167 9.18161732213878  6 9.18161732213878  L 6 2.81838267786122  C 7.75784357048167 2.81838267786122  9.18161732213878 4.24215642951833  9.18161732213878 6  Z " fill-rule="nonzero" fill="#000000" stroke="none" transform="matrix(1 0 0 1 716 154 )" />
  </g>
</svg>