<?xml version="1.0" encoding="utf-8"?>
<svg version="1.1" xmlns:xlink="http://www.w3.org/1999/xlink" width="6px" height="7px" xmlns="http://www.w3.org/2000/svg">
  <g transform="matrix(1 0 0 1 -972 -292 )">
    <path d="M 3.5527950310559 6.2565130260521  C 3.59420289855073 6.30327321309285  3.61490683229814 6.35704742818971  3.61490683229814 6.41783567134268  C 3.61490683229814 6.47862391449566  3.59420289855073 6.53239812959252  3.5527950310559 6.57915831663327  L 3.24223602484472 6.92985971943888  C 3.2008281573499 6.97661990647963  3.15320910973085 7  3.09937888198758 7  C 3.04554865424431 7  2.99792960662526 6.97661990647963  2.95652173913044 6.92985971943888  L 0.062111801242236 3.66132264529058  C 0.020703933747412 3.61456245824983  0 3.56078824315297  0 3.5  C 0 3.43921175684703  0.020703933747412 3.38543754175017  0.062111801242236 3.33867735470942  L 2.95652173913044 0.0701402805611223  C 2.99792960662526 0.0233800935203738  3.04554865424431 0  3.09937888198758 0  C 3.15320910973085 0  3.2008281573499 0.0233800935203738  3.24223602484472 0.0701402805611223  L 3.5527950310559 0.420841683366733  C 3.59420289855073 0.467601870407481  3.61490683229814 0.521376085504341  3.61490683229814 0.582164328657315  C 3.61490683229814 0.642952571810287  3.59420289855073 0.696726786907147  3.5527950310559 0.743486973947896  L 1.11180124223602 3.5  L 3.5527950310559 6.2565130260521  Z M 5.93788819875776 6.2565130260521  C 5.97929606625259 6.30327321309285  6 6.35704742818971  6 6.41783567134268  C 6 6.47862391449566  5.97929606625259 6.53239812959252  5.93788819875776 6.57915831663327  L 5.62732919254658 6.92985971943888  C 5.58592132505176 6.97661990647963  5.53830227743271 7  5.48447204968944 7  C 5.43064182194617 7  5.38302277432712 6.97661990647963  5.3416149068323 6.92985971943888  L 2.4472049689441 3.66132264529058  C 2.40579710144928 3.61456245824983  2.38509316770186 3.56078824315297  2.38509316770186 3.5  C 2.38509316770186 3.43921175684703  2.40579710144928 3.38543754175017  2.4472049689441 3.33867735470942  L 5.3416149068323 0.0701402805611223  C 5.38302277432712 0.0233800935203738  5.43064182194617 0  5.48447204968944 0  C 5.53830227743271 0  5.58592132505176 0.0233800935203738  5.62732919254658 0.0701402805611223  L 5.93788819875776 0.420841683366733  C 5.97929606625259 0.467601870407481  6 0.521376085504341  6 0.582164328657315  C 6 0.642952571810287  5.97929606625259 0.696726786907147  5.93788819875776 0.743486973947896  L 3.49689440993789 3.5  L 5.93788819875776 6.2565130260521  Z " fill-rule="nonzero" fill="#a1a1a1" stroke="none" fill-opacity="0.607843137254902" transform="matrix(1 0 0 1 972 292 )" />
  </g>
</svg>