<?xml version="1.0" encoding="utf-8"?>
<svg version="1.1" xmlns:xlink="http://www.w3.org/1999/xlink" width="6px" height="11px" xmlns="http://www.w3.org/2000/svg">
  <g transform="matrix(1 0 0 1 -466 -142 )">
    <path d="M 5.89690721649487 0.661322645290596  C 5.96563573883162 0.734802939211761  6 0.819305277221105  6 0.914829659318627  C 6 1.01035404141618  5.96563573883162 1.09485637942552  5.89690721649487 1.16833667334669  L 1.84536082474227 5.5  L 5.89690721649487 9.83166332665331  C 5.96563573883162 9.90514362057448  6 9.98964595858382  6 10.0851703406814  C 6 10.1806947227789  5.96563573883162 10.2651970607882  5.89690721649487 10.3386773547094  L 5.38144329896909 10.8897795591182  C 5.31271477663228 10.9632598530394  5.233676975945 11  5.14432989690721 11  C 5.05498281786942 11  4.97594501718214 10.9632598530394  4.90721649484539 10.8897795591182  L 0.103092783505133 5.75350701402806  C 0.0343642611683777 5.68002672010687  0 5.59552438209752  0 5.5  C 0 5.40447561790248  0.0343642611683777 5.31997327989313  0.103092783505133 5.24649298597194  L 4.90721649484539 0.110220440881761  C 4.97594501718214 0.0367401469605966  5.05498281786942 0  5.14432989690721 0  C 5.233676975945 0  5.31271477663228 0.0367401469605966  5.38144329896909 0.110220440881761  L 5.89690721649487 0.661322645290596  Z " fill-rule="nonzero" fill="#ffffff" stroke="none" transform="matrix(1 0 0 1 466 142 )" />
  </g>
</svg>