<?xml version="1.0" encoding="utf-8"?>
<svg version="1.1" xmlns:xlink="http://www.w3.org/1999/xlink" width="185px" height="105px" xmlns="http://www.w3.org/2000/svg">
  <g>
    <path d="M 0 0  L 185 0  L 185 105  L 0 105  L 0 0  " fill-rule="nonzero" fill="#cccccc" stroke="none" />
    <path d="M 7 7  L 178 7  L 178 98  L 7 98  L 7 7  " fill-rule="nonzero" fill="#ffffff" stroke="none" />
    <path d="M 104.075 31.5  C 99.665 31.5  96.2 28.035  96.2 23.625  C 96.2 19.215  99.665 15.75  104.075 15.75  C 108.485 15.75  111.95 19.215  111.95 23.625  C 111.95 28.035  108.485 31.5  104.075 31.5  " fill-rule="nonzero" fill="#cccccc" stroke="none" />
    <path d="M 10 96  L 10 48.7  L 51.5 27.2  L 109.6 66.7135135135135  L 142.8 40.1  L 176 66.7135135135135  L 176 96  L 10 96  " fill-rule="nonzero" fill="#169bd5" stroke="none" />
    <path d="M 1.5 103.5  L 1.5 1.5  L 183.5 1.5  L 183.5 103.5  L 1.5 103.5  Z " stroke-width="3" stroke="#3399ff" fill="none" />
  </g>
</svg>