<?xml version="1.0" encoding="utf-8"?>
<svg version="1.1" xmlns:xlink="http://www.w3.org/1999/xlink" width="274px" height="156px" xmlns="http://www.w3.org/2000/svg">
  <g>
    <path d="M 0 0  L 274 0  L 274 156  L 0 156  L 0 0  " fill-rule="nonzero" fill="#cccccc" stroke="none" />
    <path d="M 11 11  L 263 11  L 263 145  L 11 145  L 11 11  " fill-rule="nonzero" fill="#ffffff" stroke="none" />
    <path d="M 154.18 46.8  C 147.628 46.8  142.48 41.652  142.48 35.1  C 142.48 28.548  147.628 23.4  154.18 23.4  C 160.732 23.4  165.88 28.548  165.88 35.1  C 165.88 41.652  160.732 46.8  154.18 46.8  " fill-rule="nonzero" fill="#cccccc" stroke="none" />
    <path d="M 15 141  L 15 71.7  L 76 40.2  L 161.4 97.9576642335767  L 210.2 59.1  L 259 97.9576642335767  L 259 141  L 15 141  " fill-rule="nonzero" fill="#169bd5" stroke="none" />
    <path d="M 1.5 154.5  L 1.5 1.5  L 272.5 1.5  L 272.5 154.5  L 1.5 154.5  Z " stroke-width="3" stroke="#3399ff" fill="none" />
  </g>
</svg>