<?xml version="1.0" encoding="utf-8"?>
<svg version="1.1" xmlns:xlink="http://www.w3.org/1999/xlink" width="12px" height="12px" xmlns="http://www.w3.org/2000/svg">
  <g transform="matrix(1 0 0 1 -361 -4 )">
    <path d="M 11.7171717171717 8.96969696969694  C 11.9057239057239 9.15824915824913  12 9.38720538720543  12 9.65656565656565  C 12 9.92592592592592  11.9057239057239 10.1548821548822  11.7171717171717 10.3434343434344  L 10.3434343434344 11.7171717171717  C 10.1548821548821 11.9057239057239  9.92592592592587 12  9.65656565656559 12  C 9.38720538720531 12  9.15824915824919 11.9057239057239  8.969696969697 11.7171717171717  L 6 8.74747474747471  L 3.030303030303 11.7171717171717  C 2.84175084175081 11.9057239057239  2.61279461279469 12  2.34343434343441 12  C 2.07407407407413 12  1.8451178451179 11.9057239057239  1.65656565656559 11.7171717171717  L 0.282828282828291 10.3434343434344  C 0.094276094276097 10.1548821548822  0 9.92592592592592  0 9.65656565656565  C 0 9.38720538720543  0.094276094276097 9.15824915824913  0.282828282828291 8.96969696969694  L 3.25252525252529 6  L 0.282828282828291 3.03030303030306  C 0.094276094276097 2.84175084175087  0 2.61279461279457  0 2.34343434343435  C 0 2.07407407407408  0.094276094276097 1.84511784511784  0.282828282828291 1.65656565656565  L 1.65656565656559 0.282828282828291  C 1.8451178451179 0.094276094276097  2.07407407407413 0  2.34343434343441 0  C 2.61279461279469 0  2.84175084175081 0.094276094276097  3.030303030303 0.282828282828291  L 6 3.25252525252529  L 8.969696969697 0.282828282828291  C 9.15824915824919 0.094276094276097  9.38720538720531 0  9.65656565656559 0  C 9.92592592592587 0  10.1548821548821 0.094276094276097  10.3434343434344 0.282828282828291  L 11.7171717171717 1.65656565656565  C 11.9057239057239 1.84511784511784  12 2.07407407407408  12 2.34343434343435  C 12 2.61279461279457  11.9057239057239 2.84175084175087  11.7171717171717 3.03030303030306  L 8.74747474747471 6  L 11.7171717171717 8.96969696969694  Z " fill-rule="nonzero" fill="#333333" stroke="none" transform="matrix(1 0 0 1 361 4 )" />
  </g>
</svg>