<?xml version="1.0" encoding="utf-8"?>
<svg version="1.1" xmlns:xlink="http://www.w3.org/1999/xlink" width="12px" height="12px" viewBox="799 213  12 12" xmlns="http://www.w3.org/2000/svg">
  <path d="M 805 213  C 808.36 213  811 215.64  811 219  C 811 222.36  808.36 225  805 225  C 801.64 225  799 222.36  799 219  C 799 215.64  801.64 213  805 213  Z " fill-rule="nonzero" fill="#f0f0f0" stroke="none" />
  <path d="M 805 213.5  C 808.08 213.5  810.5 215.92  810.5 219  C 810.5 222.08  808.08 224.5  805 224.5  C 801.92 224.5  799.5 222.08  799.5 219  C 799.5 215.92  801.92 213.5  805 213.5  Z " stroke-width="1" stroke="#797979" fill="none" />
  <path d="M 805 222  C 803.32 222  802 220.68  802 219  C 802 217.32  803.32 216  805 216  C 806.68 216  808 217.32  808 219  C 808 220.68  806.68 222  805 222  " fill-rule="nonzero" fill="#797979" stroke="none" />
</svg>