<?xml version="1.0" encoding="utf-8"?>
<svg version="1.1" xmlns:xlink="http://www.w3.org/1999/xlink" width="12px" height="12px" viewBox="799 266  12 12" xmlns="http://www.w3.org/2000/svg">
  <path d="M 805 266  C 808.36 266  811 268.64  811 272  C 811 275.36  808.36 278  805 278  C 801.64 278  799 275.36  799 272  C 799 268.64  801.64 266  805 266  Z " fill-rule="nonzero" fill="#ffffff" stroke="none" />
  <path d="M 805 266.5  C 808.08 266.5  810.5 268.92  810.5 272  C 810.5 275.08  808.08 277.5  805 277.5  C 801.92 277.5  799.5 275.08  799.5 272  C 799.5 268.92  801.92 266.5  805 266.5  Z " stroke-width="1" stroke="#797979" fill="none" />
  <path d="M 805 275  C 803.32 275  802 273.68  802 272  C 802 270.32  803.32 269  805 269  C 806.68 269  808 270.32  808 272  C 808 273.68  806.68 275  805 275  " fill-rule="nonzero" fill="#797979" stroke="none" />
</svg>