<?xml version="1.0" encoding="utf-8"?>
<svg version="1.1" xmlns:xlink="http://www.w3.org/1999/xlink" width="12px" height="12px" viewBox="795 241  12 12" xmlns="http://www.w3.org/2000/svg">
  <path d="M 801 241  C 804.36 241  807 243.64  807 247  C 807 250.36  804.36 253  801 253  C 797.64 253  795 250.36  795 247  C 795 243.64  797.64 241  801 241  Z " fill-rule="nonzero" fill="#ffffff" stroke="none" />
  <path d="M 801 241.5  C 804.08 241.5  806.5 243.92  806.5 247  C 806.5 250.08  804.08 252.5  801 252.5  C 797.92 252.5  795.5 250.08  795.5 247  C 795.5 243.92  797.92 241.5  801 241.5  Z " stroke-width="1" stroke="#797979" fill="none" />
  <path d="M 801 250  C 799.32 250  798 248.68  798 247  C 798 245.32  799.32 244  801 244  C 802.68 244  804 245.32  804 247  C 804 248.68  802.68 250  801 250  " fill-rule="nonzero" fill="#797979" stroke="none" />
</svg>