<?xml version="1.0" encoding="utf-8"?>
<svg version="1.1" xmlns:xlink="http://www.w3.org/1999/xlink" width="12px" height="12px" viewBox="795 412  12 12" xmlns="http://www.w3.org/2000/svg">
  <path d="M 801 412  C 804.36 412  807 414.64  807 418  C 807 421.36  804.36 424  801 424  C 797.64 424  795 421.36  795 418  C 795 414.64  797.64 412  801 412  Z " fill-rule="nonzero" fill="#f0f0f0" stroke="none" />
  <path d="M 801 412.5  C 804.08 412.5  806.5 414.92  806.5 418  C 806.5 421.08  804.08 423.5  801 423.5  C 797.92 423.5  795.5 421.08  795.5 418  C 795.5 414.92  797.92 412.5  801 412.5  Z " stroke-width="1" stroke="#797979" fill="none" />
  <path d="M 801 421  C 799.32 421  798 419.68  798 418  C 798 416.32  799.32 415  801 415  C 802.68 415  804 416.32  804 418  C 804 419.68  802.68 421  801 421  " fill-rule="nonzero" fill="#797979" stroke="none" />
</svg>