<?xml version="1.0" encoding="utf-8"?>
<svg version="1.1" xmlns:xlink="http://www.w3.org/1999/xlink" width="12px" height="12px" viewBox="795 327  12 12" xmlns="http://www.w3.org/2000/svg">
  <path d="M 801 327  C 804.36 327  807 329.64  807 333  C 807 336.36  804.36 339  801 339  C 797.64 339  795 336.36  795 333  C 795 329.64  797.64 327  801 327  Z " fill-rule="nonzero" fill="#ffffff" stroke="none" />
  <path d="M 801 327.5  C 804.08 327.5  806.5 329.92  806.5 333  C 806.5 336.08  804.08 338.5  801 338.5  C 797.92 338.5  795.5 336.08  795.5 333  C 795.5 329.92  797.92 327.5  801 327.5  Z " stroke-width="1" stroke="#797979" fill="none" />
  <path d="M 801 336  C 799.32 336  798 334.68  798 333  C 798 331.32  799.32 330  801 330  C 802.68 330  804 331.32  804 333  C 804 334.68  802.68 336  801 336  " fill-rule="nonzero" fill="#797979" stroke="none" />
</svg>