<?xml version="1.0" encoding="utf-8"?>
<svg version="1.1" xmlns:xlink="http://www.w3.org/1999/xlink" width="12px" height="12px" viewBox="795 941  12 12" xmlns="http://www.w3.org/2000/svg">
  <path d="M 801 941  C 804.36 941  807 943.64  807 947  C 807 950.36  804.36 953  801 953  C 797.64 953  795 950.36  795 947  C 795 943.64  797.64 941  801 941  Z " fill-rule="nonzero" fill="#f0f0f0" stroke="none" />
  <path d="M 801 941.5  C 804.08 941.5  806.5 943.92  806.5 947  C 806.5 950.08  804.08 952.5  801 952.5  C 797.92 952.5  795.5 950.08  795.5 947  C 795.5 943.92  797.92 941.5  801 941.5  Z " stroke-width="1" stroke="#797979" fill="none" />
  <path d="M 801 950  C 799.32 950  798 948.68  798 947  C 798 945.32  799.32 944  801 944  C 802.68 944  804 945.32  804 947  C 804 948.68  802.68 950  801 950  " fill-rule="nonzero" fill="#797979" stroke="none" />
</svg>