<?xml version="1.0" encoding="utf-8"?>
<svg version="1.1" xmlns:xlink="http://www.w3.org/1999/xlink" width="12px" height="12px" viewBox="795 826  12 12" xmlns="http://www.w3.org/2000/svg">
  <path d="M 801 826  C 804.36 826  807 828.64  807 832  C 807 835.36  804.36 838  801 838  C 797.64 838  795 835.36  795 832  C 795 828.64  797.64 826  801 826  Z " fill-rule="nonzero" fill="#ffffff" stroke="none" />
  <path d="M 801 826.5  C 804.08 826.5  806.5 828.92  806.5 832  C 806.5 835.08  804.08 837.5  801 837.5  C 797.92 837.5  795.5 835.08  795.5 832  C 795.5 828.92  797.92 826.5  801 826.5  Z " stroke-width="1" stroke="#797979" fill="none" />
  <path d="M 801 835  C 799.32 835  798 833.68  798 832  C 798 830.32  799.32 829  801 829  C 802.68 829  804 830.32  804 832  C 804 833.68  802.68 835  801 835  " fill-rule="nonzero" fill="#797979" stroke="none" />
</svg>