<?xml version="1.0" encoding="utf-8"?>
<svg version="1.1" xmlns:xlink="http://www.w3.org/1999/xlink" width="12px" height="12px" viewBox="795 882  12 12" xmlns="http://www.w3.org/2000/svg">
  <path d="M 801 882  C 804.36 882  807 884.64  807 888  C 807 891.36  804.36 894  801 894  C 797.64 894  795 891.36  795 888  C 795 884.64  797.64 882  801 882  Z " fill-rule="nonzero" fill="#ffffff" stroke="none" />
  <path d="M 801 882.5  C 804.08 882.5  806.5 884.92  806.5 888  C 806.5 891.08  804.08 893.5  801 893.5  C 797.92 893.5  795.5 891.08  795.5 888  C 795.5 884.92  797.92 882.5  801 882.5  Z " stroke-width="1" stroke="#797979" fill="none" />
  <path d="M 801 891  C 799.32 891  798 889.68  798 888  C 798 886.32  799.32 885  801 885  C 802.68 885  804 886.32  804 888  C 804 889.68  802.68 891  801 891  " fill-rule="nonzero" fill="#797979" stroke="none" />
</svg>