<?xml version="1.0" encoding="utf-8"?>
<svg version="1.1" xmlns:xlink="http://www.w3.org/1999/xlink" width="12px" height="12px" viewBox="795 968  12 12" xmlns="http://www.w3.org/2000/svg">
  <path d="M 801 968  C 804.36 968  807 970.64  807 974  C 807 977.36  804.36 980  801 980  C 797.64 980  795 977.36  795 974  C 795 970.64  797.64 968  801 968  Z " fill-rule="nonzero" fill="#f0f0f0" stroke="none" />
  <path d="M 801 968.5  C 804.08 968.5  806.5 970.92  806.5 974  C 806.5 977.08  804.08 979.5  801 979.5  C 797.92 979.5  795.5 977.08  795.5 974  C 795.5 970.92  797.92 968.5  801 968.5  Z " stroke-width="1" stroke="#797979" fill="none" />
  <path d="M 801 977  C 799.32 977  798 975.68  798 974  C 798 972.32  799.32 971  801 971  C 802.68 971  804 972.32  804 974  C 804 975.68  802.68 977  801 977  " fill-rule="nonzero" fill="#797979" stroke="none" />
</svg>