<?xml version="1.0" encoding="utf-8"?>
<svg version="1.1" xmlns:xlink="http://www.w3.org/1999/xlink" width="12px" height="12px" viewBox="795 1025  12 12" xmlns="http://www.w3.org/2000/svg">
  <path d="M 801 1025  C 804.36 1025  807 1027.64  807 1031  C 807 1034.36  804.36 1037  801 1037  C 797.64 1037  795 1034.36  795 1031  C 795 1027.64  797.64 1025  801 1025  Z " fill-rule="nonzero" fill="#f0f0f0" stroke="none" />
  <path d="M 801 1025.5  C 804.08 1025.5  806.5 1027.92  806.5 1031  C 806.5 1034.08  804.08 1036.5  801 1036.5  C 797.92 1036.5  795.5 1034.08  795.5 1031  C 795.5 1027.92  797.92 1025.5  801 1025.5  Z " stroke-width="1" stroke="#797979" fill="none" />
  <path d="M 801 1034  C 799.32 1034  798 1032.68  798 1031  C 798 1029.32  799.32 1028  801 1028  C 802.68 1028  804 1029.32  804 1031  C 804 1032.68  802.68 1034  801 1034  " fill-rule="nonzero" fill="#797979" stroke="none" />
</svg>