<?xml version="1.0" encoding="utf-8"?>
<svg version="1.1" xmlns:xlink="http://www.w3.org/1999/xlink" width="18px" height="18px" xmlns="http://www.w3.org/2000/svg">
  <g>
    <path d="M 17.9999928682133 8.99924998177656  C 18.0015075437341 7.80001415922609  17.7617379492159 6.61273016817862  17.2949553629571 5.5080661026833  C 15.8899105672406 2.17043188924708  12.6213144738698 0  8.99999644973225 0  C 4.02943566201377 0  0 4.02943725152281  0 9  C 0 13.9705627484772  4.02943566201377 18  8.99999644973225 18  C 13.9705572374509 18  17.9999928994647 13.9705627484772  17.9999928994647 9  Z M 16.8787338646773 8.99924998177656  C 16.8787338646773 13.3271844905927  13.357626941321 16.8482928029351  9.02969413976338 16.8482928029351  C 4.70176133820579 16.8482928029351  1.1806544148493 13.3271844905927  1.1806544148493 8.99924998177656  C 1.1806544148493 4.6713154729604  4.70176133820579 1.1502071606179  9.02969413976338 1.1502071606179  C 13.357626941321 1.1502071606179  16.8787338646773 4.6713154729604  16.8787338646773 8.99924998177656  Z " fill-rule="nonzero" fill="#000000" stroke="none" />
  </g>
</svg>