<?xml version="1.0" encoding="utf-8"?>
<svg version="1.1" xmlns:xlink="http://www.w3.org/1999/xlink" width="1px" height="10px" xmlns="http://www.w3.org/2000/svg">
  <g transform="matrix(1 0 0 1 -9 -4 )">
    <path d="M 0.999999999999861 3.69942741693486  C 1.0000002030134 3.39287245457464  0.776512023174954 3.14425624655948  0.50060655074809 3.14388436427602  C 0.223857625084515 3.14388395550322  0 3.39260905230398  0 3.6994270081619  L 0 9.44445694734132  C 0 9.75127490319908  0.223857625084742 10  0.499999999999988 10  C 0.776142374915233 10  0.999999999999861 9.75127490319908  0.999999999999861 9.44445694734132  L 0.999999999999861 3.69942741693486  Z M 0.999999999999861 0.555543461431723  C 1.0000002030134 0.24898849907158  0.776512023174954 0.000372291056415897  0.50060655074809 0  C 0.223857625084515 0  0 0.248725096800919  0 0.555543052658842  L 0 1.09311504453412  C 0 1.39993300039204  0.223857625084742 1.64865809719296  0.499999999999988 1.64865809719296  C 0.776142374915233 1.64865809719296  0.999999999999861 1.39993300039204  0.999999999999861 1.09311504453412  L 0.999999999999861 0.555543461431723  Z " fill-rule="nonzero" fill="#000000" stroke="none" transform="matrix(1 0 0 1 9 4 )" />
  </g>
</svg>