<?xml version="1.0" encoding="utf-8"?>
<svg version="1.1" xmlns:xlink="http://www.w3.org/1999/xlink" width="21px" height="21px" xmlns="http://www.w3.org/2000/svg">
  <g transform="matrix(1 0 0 1 -207 -528 )">
    <path d="M 16.8 10.5  C 16.8 10.1080000000001  16.492 9.79999999999995  16.0999999999999 9.79999999999995  L 11.2 9.79999999999995  L 11.2 4.89999999999998  C 11.2 4.50800000000004  10.8919999999999 4.20000000000005  10.5 4.20000000000005  C 10.1080000000001 4.20000000000005  9.79999999999995 4.50800000000004  9.79999999999995 4.89999999999998  L 9.79999999999995 9.79999999999995  L 4.89999999999998 9.79999999999995  C 4.50800000000004 9.79999999999995  4.20000000000005 10.1080000000001  4.20000000000005 10.5  C 4.20000000000005 10.8919999999999  4.50800000000004 11.2  4.89999999999998 11.2  L 9.79999999999995 11.2  L 9.79999999999995 16.0999999999999  C 9.79999999999995 16.492  10.1080000000001 16.8  10.5 16.8  C 10.8919999999999 16.8  11.2 16.492  11.2 16.0999999999999  L 11.2 11.2  L 16.0999999999999 11.2  C 16.492 11.2  16.8 10.8919999999999  16.8 10.5  Z M 21 10.5  C 21 4.70400000000006  16.2959999999999 0  10.5 0  C 4.70400000000006 0  0 4.70400000000006  0 10.5  C 0 16.2959999999999  4.70400000000006 21  10.5 21  C 16.2959999999999 21  21 16.2959999999999  21 10.5  Z M 19.6 10.5  C 19.6 15.526  15.526 19.6  10.5 19.6  C 5.47400000000005 19.6  1.39999999999998 15.526  1.39999999999998 10.5  C 1.39999999999998 5.47400000000005  5.47400000000005 1.39999999999998  10.5 1.39999999999998  C 15.526 1.39999999999998  19.6 5.47400000000005  19.6 10.5  Z " fill-rule="nonzero" fill="#000000" stroke="none" transform="matrix(1 0 0 1 207 528 )" />
  </g>
</svg>