<?xml version="1.0" encoding="utf-8"?>
<svg version="1.1" xmlns:xlink="http://www.w3.org/1999/xlink" width="43px" height="50px" xmlns="http://www.w3.org/2000/svg">
  <g>
    <path d="M 43 23.9972334918081  C 42.9999364933262 21.3481597405069  40.9934431365421 19.200654666103  38.2516695112075 19.200654666103  L 38.1214173233688 19.200654666103  C 37.1587196561589 19.200654666103  36.3686331281719 19.4698267656577  35.6076326567574 19.9281919299052  C 34.9417016759301 18.0378682805868  33.2477881672893 16.6761850371216  31.0660798976591 16.6761850371216  C 30.1033187237756 16.6761850371216  29.183869101382 16.945295329076  28.4229321366413 17.4036604933235  C 27.7569376491403 15.5133986516053  26.0622620604146 14.15165360054  23.8804902841106 14.15165360054  C 23.0295643626816 14.15165360054  22.238842767957 14.3591417149384  21.5388087033319 14.723682941844  L 21.5388087033319 9.85998106215125  C 21.5388087033319 7.21084550324981  19.4800493540606 5.06334042884586  16.7383392353996 5.06334042884586  C 13.9965656100652 5.06334042884586  11.7740225492207 7.21084550324981  12 9.85998106215125  L 12 28.4814985129092  L 8.75809061335489 25.5583080540248  C 6.81935887745031 23.6851669176055  3.3880932953312 23.9518049055456  1.73742783150674 25.5583080540248  C 0.086762367682121 27.1648112025039  -0.99577239287298 30.3983376227808  1.36794600369309 32.6988165080684  L 15.2318339209628 46.1033398354929  C 15.5178679794833 46.3796816166891  15.8322895211652 46.6101621584203  16.1630322779979 46.8050415223459  C 18.6907884128321 48.8119343059377  21.5872642953948 50  27.7121654441541 50  C 41.7042098290291 50  43 42.6532395835651  43 33.5905765660192  L 43 23.9972334918081  Z M 40.3870179090082 24.3002143487581  C 40.3870179090082 24.3002143487581  40.3870179090082 31.5487006806253  40.3870179090082 33.5904529508184  C 40.3870179090082 41.2588601195112  40.3493584514809 47.4753449482176  27.7120384308067 47.4753449482176  C 22.3585528479552 47.4753449482176  19.1445435966973 46.3136092919074  16.7097612322171 43.9610884071192  L 3.58496398392223 31.2706282866192  C 2.42374445460424 30.1404763140914  2.71574814045636 28.6954764253451  3.6663795396556 27.7702784556011  C 4.61694743218107 26.8451422934575  6.36166627981312 26.8131259564726  7.28003628875306 27.7003740595973  C 7.28003628875306 27.7003740595973  9.5827247718561 29.9282290144655  11.5666097527891 31.8476640435521  C 13.0679710266533 33.3002662671423  14.3868141201914 34.5761605613119  15 34.5761605613119  L 15 10.3648873494676  C 14.3868141201914 9.11006944701971  15.4396277574368 8.0928399603443  16.7383392353996 8.0928399603443  C 18.0369872066888 8.0928399603443  18.9260171323614 9.11013125462014  19 10.3648873494676  L 19 25.7644982088158  L 18.952372401963 25.7644982088158  C 18.9352256000535 25.846084241287  18.9260171323614 25.9304516157742  18.9260171323614 26.0169822562741  C 18.9260171323614 26.7140483731003  19.5109135974977 27.2792788783651  20.2324129178467 27.2792788783651  C 20.9538487315217 27.2792788783651  21.5387451966583 26.7141101807007  21.5387451966583 26.0169822562741  C 21.5387451966583 25.9304516157742  21.5296002356398 25.846084241287  21.5123899270565 25.7644982088158  L 21.5387451966583 25.7644982088158  L 21.5387451966583 19.4531387135614  C 21.5387451966583 18.1983208111135  22.4783264346268 17.1810295168377  23.7770379125898 17.1810295168377  C 23.7770379125898 17.1810295168377  26.0780117155018 17.1507437926627  26.0780117155018 19.4531387135614  L 26.0780117155018 27.7839997428803  L 26.1043669851034 27.7839997428803  C 26.087220183194 27.865647582952  26.0780117155018 27.9500149574393  26.0780117155018 28.0364837903387  C 26.0780117155018 28.7336117147653  26.662908180638 29.2987804124298  27.3843439943133 29.2987804124298  C 28.1058433146624 29.2987804124298  28.6907397797987 28.7336735223657  28.6907397797987 28.0364837903387  C 28.6907397797987 27.9500149574393  28.6815948187803 27.865647582952  28.664384510197 27.7839997428803  L 28.6907397797987 27.7839997428803  L 28.6907397797987 21.977670150143  C 28.6907397797987 20.7227904400948  29.615333442765 19.705499145819  30.9141084274016 19.705499145819  C 30.9141084274016 19.705499145819  33.2627757422916 19.8478420494411  33.2627757422916 21.977670150143  L 33.2627757422916 29.2987186048294  L 33.2891310118933 29.2987186048294  C 33.2720477166575 29.3803046373006  33.2627757422916 29.4647338193883  33.2627757422916 29.5512026522878  C 33.2627757422916 30.2483305767143  33.8476722074279 30.8134992743788  34.569171527777 30.8134992743788  C 35.290670848126 30.8134992743788  35.8427978696128 30.2483923843147  35.8427978696128 29.5512026522878  C 35.8427978696128 29.4647338193883  35.8341609619845 29.3803046373006  35.8179032535072 29.2987186048294  L 35.8427978696128 29.2987186048294  L 35.8427978696128 24.3002143487581  C 35.8427978696128 23.0453964463102  36.8115921775016 22.0281051520343  38.1102401487907 22.0281051520343  C 38.1102401487907 22.0281051520343  40.3870179090082 21.9384841315167  40.3870179090082 24.3002143487581  Z M 6.58260599775124 9.81010232866311  C 6.58266950442485 12.660668857128  7.8395300843938 15.219194473906  9.83421119986262 17.0116148842591  L 9.83421119986262 12.7696974641578  C 9.41944911367312 11.8647723873309  9.1839028607751 10.8649726439561  9.1839028607751 9.81010232866311  C 9.1839028607751 5.79032142424493  12.5321652203172 2.53163931062272  16.6624487602816 2.53163931062272  C 20.792732300246 2.53163931062272  24.1409946597881 5.79032142424493  24.1409946597881 9.81010232866311  C 24.1409946597881 10.3592010502347  24.0743126523622 10.8922916033139  23.954602572364 11.4059745698809  C 24.8952634237863 11.4416993628873  25.7439666116346 11.8216924898821  26.3617595337678 12.4317953130061  C 26.6012432004375 11.5962801713801  26.7421645094644 10.7206518971225  26.7421645094644 9.81010232866311  C 26.7421645094644 4.39217169656922  22.2292532602224 0  16.6623852536078 0  C 11.0955172469931 0  6.58260599775124 4.39217169656922  6.58260599775124 9.81010232866311  Z " fill-rule="nonzero" fill="#3399ff" stroke="none" />
  </g>
</svg>