<?xml version="1.0" encoding="utf-8"?>
<svg version="1.1" xmlns:xlink="http://www.w3.org/1999/xlink" width="56px" height="56px" xmlns="http://www.w3.org/2000/svg">
  <g transform="matrix(1 0 0 1 -810 -1064 )">
    <path d="M 14.2860576923081 42.2430555555557  C 15.1274038461538 43.0532407407404  15.5480769230771 44.0308641975307  15.5480769230771 45.1759259259261  C 15.5480769230771 46.320987654321  15.1274038461538 47.2986111111109  14.2860576923081 48.1087962962965  C 13.4447115384619 48.9189814814813  12.4294871794873 49.3240740740739  11.2403846153848 49.3240740740739  C 10.0737179487178 49.3240740740739  9.06410256410254 48.9135802469132  8.21153846153811 48.0925925925926  C 7.35897435897414 47.2716049382716  6.93269230769192 46.299382716049  6.93269230769192 45.1759259259261  C 6.93269230769192 44.0308641975307  7.35336538461524 43.0532407407404  8.19471153846189 42.2430555555557  C 9.03605769230808 41.4328703703704  10.0512820512822 41.0277777777778  11.2403846153848 41.0277777777778  C 12.4294871794873 41.0277777777778  13.4447115384619 41.4328703703704  14.2860576923081 42.2430555555557  Z M 31.0456730769229 48.9189814814813  C 31.8870192307691 49.7291666666665  32.3076923076919 50.7067901234568  32.3076923076919 51.8518518518522  C 32.3076923076919 52.9969135802467  31.8870192307691 53.974537037037  31.0456730769229 54.7847222222222  C 30.2043269230771 55.5949074074074  29.1891025641025 56  28 56  C 26.8108974358975 56  25.7956730769229 55.5949074074074  24.9543269230771 54.7847222222222  C 24.1129807692309 53.974537037037  23.6923076923081 52.9969135802467  23.6923076923081 51.8518518518522  C 23.6923076923081 50.7067901234568  24.1129807692309 49.7291666666665  24.9543269230771 48.9189814814813  C 25.7956730769229 48.1087962962965  26.8108974358975 47.7037037037035  28 47.7037037037035  C 29.1891025641025 47.7037037037035  30.2043269230771 48.1087962962965  31.0456730769229 48.9189814814813  Z M 7.35336538461524 26.1041666666665  C 8.19471153846189 26.9143518518522  8.61538461538476 27.891975308642  8.61538461538476 29.037037037037  C 8.61538461538476 30.1820987654323  8.19471153846189 31.1597222222222  7.35336538461524 31.9699074074074  C 6.51201923076906 32.7800925925926  5.49679487179492 33.1851851851848  4.30769230769192 33.1851851851848  C 3.11858974358938 33.1851851851848  2.10336538461524 32.7800925925926  1.26201923076906 31.9699074074074  C 0.420673076922867 31.1597222222222  0 30.1820987654323  0 29.037037037037  C 0 27.891975308642  0.420673076922867 26.9143518518522  1.26201923076906 26.1041666666665  C 2.10336538461524 25.2939814814813  3.11858974358938 24.8888888888891  4.30769230769192 24.8888888888891  C 5.49679487179492 24.8888888888891  6.51201923076906 25.2939814814813  7.35336538461524 26.1041666666665  Z M 47.8052884615381 42.2430555555557  C 48.6466346153848 43.0532407407404  49.0673076923081 44.0308641975307  49.0673076923081 45.1759259259261  C 49.0673076923081 46.299382716049  48.6410256410259 47.2716049382716  47.7884615384619 48.0925925925926  C 46.9358974358975 48.9135802469132  45.9262820512822 49.3240740740739  44.7596153846152 49.3240740740739  C 43.5705128205127 49.3240740740739  42.5552884615381 48.9189814814813  41.7139423076919 48.1087962962965  C 40.8725961538462 47.2986111111109  40.4519230769229 46.320987654321  40.4519230769229 45.1759259259261  C 40.4519230769229 44.0308641975307  40.8725961538462 43.0532407407404  41.7139423076919 42.2430555555557  C 42.5552884615381 41.4328703703704  43.5705128205127 41.0277777777778  44.7596153846152 41.0277777777778  C 45.9487179487178 41.0277777777778  46.9639423076919 41.4328703703704  47.8052884615381 42.2430555555557  Z M 15.0432692307691 9.23611111111086  C 16.0977564102564 10.2515432098762  16.625 11.4722222222222  16.625 12.8981481481478  C 16.625 14.3240740740739  16.0977564102564 15.5447530864199  15.0432692307691 16.5601851851848  C 13.9887820512822 17.575617283951  12.7211538461538 18.0833333333335  11.2403846153848 18.0833333333335  C 9.75961538461524 18.0833333333335  8.4919871794873 17.575617283951  7.4375 16.5601851851848  C 6.3830128205127 15.5447530864199  5.85576923076906 14.3240740740739  5.85576923076906 12.8981481481478  C 5.85576923076906 11.4722222222222  6.3830128205127 10.2515432098762  7.4375 9.23611111111086  C 8.4919871794873 8.2206790123455  9.75961538461524 7.71296296296305  11.2403846153848 7.71296296296305  C 12.7211538461538 7.71296296296305  13.9887820512822 8.2206790123455  15.0432692307691 9.23611111111086  Z M 54.7379807692309 26.1041666666665  C 55.5793269230771 26.9143518518522  56 27.891975308642  56 29.037037037037  C 56 30.1820987654323  55.5793269230771 31.1597222222222  54.7379807692309 31.9699074074074  C 53.8966346153848 32.7800925925926  52.8814102564106 33.1851851851848  51.6923076923081 33.1851851851848  C 50.5032051282051 33.1851851851848  49.4879807692309 32.7800925925926  48.6466346153848 31.9699074074074  C 47.8052884615381 31.1597222222222  47.3846153846152 30.1820987654323  47.3846153846152 29.037037037037  C 47.3846153846152 27.891975308642  47.8052884615381 26.9143518518522  48.6466346153848 26.1041666666665  C 49.4879807692309 25.2939814814813  50.5032051282051 24.8888888888891  51.6923076923081 24.8888888888891  C 52.8814102564106 24.8888888888891  53.8966346153848 25.2939814814813  54.7379807692309 26.1041666666665  Z M 32.5769230769229 1.81481481481524  C 33.8333333333335 3.02469135802494  34.4615384615381 4.49382716049377  34.4615384615381 6.22222222222217  C 34.4615384615381 7.95061728395103  33.8333333333335 9.41975308641986  32.5769230769229 10.6296296296296  C 31.3205128205127 11.8395061728393  29.7948717948716 12.4444444444443  28 12.4444444444443  C 26.2051282051284 12.4444444444443  24.6794871794873 11.8395061728393  23.4230769230771 10.6296296296296  C 22.1666666666665 9.41975308641986  21.5384615384619 7.95061728395103  21.5384615384619 6.22222222222217  C 21.5384615384619 4.49382716049377  22.1666666666665 3.02469135802494  23.4230769230771 1.81481481481524  C 24.6794871794873 0.604938271605079  26.2051282051284 0  28 0  C 29.7948717948716 0  31.3205128205127 0.604938271605079  32.5769230769229 1.81481481481524  Z M 50.0769230769229 7.77777777777783  C 51.5576923076919 9.20370370370347  52.2980769230771 10.9104938271607  52.2980769230771 12.8981481481478  C 52.2980769230771 14.9074074074074  51.5576923076919 16.6195987654323  50.0769230769229 18.0347222222222  C 48.5961538461538 19.449845679012  46.8237179487178 20.1574074074074  44.7596153846152 20.1574074074074  C 42.6730769230771 20.1574074074074  40.8950320512822 19.449845679012  39.4254807692309 18.0347222222222  C 37.9559294871797 16.6195987654323  37.2211538461538 14.9074074074074  37.2211538461538 12.8981481481478  C 37.2211538461538 10.9104938271607  37.9559294871797 9.20370370370347  39.4254807692309 7.77777777777783  C 40.8950320512822 6.35185185185219  42.6730769230771 5.63888888888914  44.7596153846152 5.63888888888914  C 46.8237179487178 5.63888888888914  48.5961538461538 6.35185185185219  50.0769230769229 7.77777777777783  Z " fill-rule="nonzero" fill="#333333" stroke="none" transform="matrix(1 0 0 1 810 1064 )" />
  </g>
</svg>