<?xml version="1.0" encoding="utf-8"?>
<svg version="1.1" xmlns:xlink="http://www.w3.org/1999/xlink" width="14px" height="14px" xmlns="http://www.w3.org/2000/svg">
  <g transform="matrix(1 0 0 1 -531 -957 )">
    <path d="M 3.57151442307702 10.5607638888889  C 3.78185096153845 10.7633101851851  3.88701923076928 11.0077160493827  3.88701923076928 11.2939814814815  C 3.88701923076928 11.5802469135803  3.78185096153845 11.8246527777777  3.57151442307702 12.0271990740741  C 3.36117788461547 12.2297453703703  3.10737179487182 12.3310185185185  2.81009615384619 12.3310185185185  C 2.51842948717945 12.3310185185185  2.26602564102564 12.2283950617283  2.05288461538453 12.0231481481482  C 1.83974358974353 11.8179012345679  1.73317307692298 11.5748456790122  1.73317307692298 11.2939814814815  C 1.73317307692298 11.0077160493827  1.83834134615381 10.7633101851851  2.04867788461547 10.5607638888889  C 2.25901442307702 10.3582175925926  2.51282051282055 10.2569444444445  2.81009615384619 10.2569444444445  C 3.10737179487182 10.2569444444445  3.36117788461547 10.3582175925926  3.57151442307702 10.5607638888889  Z M 7.76141826923072 12.2297453703703  C 7.97175480769226 12.4322916666666  8.07692307692298 12.6766975308642  8.07692307692298 12.962962962963  C 8.07692307692298 13.2492283950617  7.97175480769226 13.4936342592592  7.76141826923072 13.6961805555555  C 7.55108173076928 13.8987268518518  7.29727564102563 14  7 14  C 6.70272435897436 14  6.44891826923072 13.8987268518518  6.23858173076928 13.6961805555555  C 6.02824519230774 13.4936342592592  5.92307692307702 13.2492283950617  5.92307692307702 12.962962962963  C 5.92307692307702 12.6766975308642  6.02824519230774 12.4322916666666  6.23858173076928 12.2297453703703  C 6.44891826923072 12.0271990740741  6.70272435897436 11.9259259259259  7 11.9259259259259  C 7.29727564102563 11.9259259259259  7.55108173076928 12.0271990740741  7.76141826923072 12.2297453703703  Z M 1.83834134615381 6.52604166666663  C 2.04867788461547 6.72858796296305  2.15384615384619 6.97299382716051  2.15384615384619 7.25925925925924  C 2.15384615384619 7.54552469135808  2.04867788461547 7.78993055555554  1.83834134615381 7.99247685185185  C 1.62800480769226 8.19502314814815  1.37419871794873 8.29629629629619  1.07692307692298 8.29629629629619  C 0.779647435897346 8.29629629629619  0.525841346153811 8.19502314814815  0.315504807692264 7.99247685185185  C 0.105168269230717 7.78993055555554  0 7.54552469135808  0 7.25925925925924  C 0 6.97299382716051  0.105168269230717 6.72858796296305  0.315504807692264 6.52604166666663  C 0.525841346153811 6.32349537037032  0.779647435897346 6.22222222222229  1.07692307692298 6.22222222222229  C 1.37419871794873 6.22222222222229  1.62800480769226 6.32349537037032  1.83834134615381 6.52604166666663  Z M 11.9513221153845 10.5607638888889  C 12.1616586538462 10.7633101851851  12.266826923077 11.0077160493827  12.266826923077 11.2939814814815  C 12.266826923077 11.5748456790122  12.1602564102565 11.8179012345679  11.9471153846155 12.0231481481482  C 11.7339743589744 12.2283950617283  11.4815705128206 12.3310185185185  11.1899038461538 12.3310185185185  C 10.8926282051282 12.3310185185185  10.6388221153845 12.2297453703703  10.428485576923 12.0271990740741  C 10.2181490384615 11.8246527777777  10.1129807692307 11.5802469135803  10.1129807692307 11.2939814814815  C 10.1129807692307 11.0077160493827  10.2181490384615 10.7633101851851  10.428485576923 10.5607638888889  C 10.6388221153845 10.3582175925926  10.8926282051282 10.2569444444445  11.1899038461538 10.2569444444445  C 11.4871794871794 10.2569444444445  11.740985576923 10.3582175925926  11.9513221153845 10.5607638888889  Z M 3.76081730769226 2.30902777777771  C 4.02443910256409 2.56288580246905  4.15625 2.86805555555554  4.15625 3.22453703703695  C 4.15625 3.58101851851848  4.02443910256409 3.88618827160496  3.76081730769226 4.14004629629619  C 3.49719551282055 4.39390432098776  3.18028846153845 4.52083333333337  2.81009615384619 4.52083333333337  C 2.43990384615381 4.52083333333337  2.12299679487182 4.39390432098776  1.859375 4.14004629629619  C 1.59575320512818 3.88618827160496  1.46394230769226 3.58101851851848  1.46394230769226 3.22453703703695  C 1.46394230769226 2.86805555555554  1.59575320512818 2.56288580246905  1.859375 2.30902777777771  C 2.12299679487182 2.05516975308637  2.43990384615381 1.92824074074076  2.81009615384619 1.92824074074076  C 3.18028846153845 1.92824074074076  3.49719551282055 2.05516975308637  3.76081730769226 2.30902777777771  Z M 13.6844951923077 6.52604166666663  C 13.8948317307693 6.72858796296305  14 6.97299382716051  14 7.25925925925924  C 14 7.54552469135808  13.8948317307693 7.78993055555554  13.6844951923077 7.99247685185185  C 13.4741586538462 8.19502314814815  13.2203525641027 8.29629629629619  12.923076923077 8.29629629629619  C 12.6258012820513 8.29629629629619  12.3719951923077 8.19502314814815  12.1616586538462 7.99247685185185  C 11.9513221153845 7.78993055555554  11.8461538461538 7.54552469135808  11.8461538461538 7.25925925925924  C 11.8461538461538 6.97299382716051  11.9513221153845 6.72858796296305  12.1616586538462 6.52604166666663  C 12.3719951923077 6.32349537037032  12.6258012820513 6.22222222222229  12.923076923077 6.22222222222229  C 13.2203525641027 6.22222222222229  13.4741586538462 6.32349537037032  13.6844951923077 6.52604166666663  Z M 8.14423076923072 0.453703703703809  C 8.45833333333337 0.756172839506235  8.61538461538453 1.12345679012344  8.61538461538453 1.55555555555554  C 8.61538461538453 1.98765432098776  8.45833333333337 2.35493827160496  8.14423076923072 2.65740740740739  C 7.83012820512818 2.95987654320982  7.4487179487179 3.11111111111109  7 3.11111111111109  C 6.5512820512821 3.11111111111109  6.16987179487182 2.95987654320982  5.85576923076928 2.65740740740739  C 5.54166666666663 2.35493827160496  5.38461538461547 1.98765432098776  5.38461538461547 1.55555555555554  C 5.38461538461547 1.12345679012344  5.54166666666663 0.756172839506235  5.85576923076928 0.453703703703809  C 6.16987179487182 0.15123456790127  6.5512820512821 0  7 0  C 7.4487179487179 0  7.83012820512818 0.15123456790127  8.14423076923072 0.453703703703809  Z M 12.5192307692307 1.94444444444446  C 12.889423076923 2.30092592592587  13.0745192307693 2.72762345679018  13.0745192307693 3.22453703703695  C 13.0745192307693 3.72685185185185  12.889423076923 4.15489969135808  12.5192307692307 4.50868055555554  C 12.1490384615385 4.862461419753  11.7059294871794 5.03935185185185  11.1899038461538 5.03935185185185  C 10.6682692307693 5.03935185185185  10.2237580128206 4.862461419753  9.85637019230774 4.50868055555554  C 9.48898237179492 4.15489969135808  9.30528846153845 3.72685185185185  9.30528846153845 3.22453703703695  C 9.30528846153845 2.72762345679018  9.48898237179492 2.30092592592587  9.85637019230774 1.94444444444446  C 10.2237580128206 1.58796296296305  10.6682692307693 1.40972222222229  11.1899038461538 1.40972222222229  C 11.7059294871794 1.40972222222229  12.1490384615385 1.58796296296305  12.5192307692307 1.94444444444446  Z " fill-rule="nonzero" fill="#333333" stroke="none" transform="matrix(1 0 0 1 531 957 )" />
  </g>
</svg>