<?xml version="1.0" encoding="utf-8"?>
<svg version="1.1" xmlns:xlink="http://www.w3.org/1999/xlink" width="8px" height="9px" xmlns="http://www.w3.org/2000/svg">
  <g transform="matrix(1 0 0 1 -1306 -336 )">
    <path d="M 3.26293995859214 8.04408817635272  C 3.20772946859904 8.10420841683367  3.18012422360243 8.17334669338675  3.18012422360243 8.25150300601206  C 3.18012422360243 8.32965931863731  3.20772946859904 8.39879759519039  3.26293995859214 8.45891783567129  L 3.67701863354034 8.90981963927851  C 3.73222912353344 8.96993987975952  3.79572118702549 9  3.8674948240166 9  C 3.9392684610076 9  4.00276052449965 8.96993987975952  4.05797101449275 8.90981963927851  L 7.91718426501041 4.70741482965929  C 7.97239475500351 4.64729458917839  8 4.5781563126252  8 4.5  C 8 4.4218436873748  7.97239475500351 4.35270541082161  7.91718426501041 4.29258517034071  L 4.05797101449275 0.0901803607214902  C 4.00276052449965 0.0300601202404778  3.9392684610076 0  3.8674948240166 0  C 3.79572118702549 0  3.73222912353344 0.0300601202404778  3.67701863354034 0.0901803607214902  L 3.26293995859214 0.541082164328657  C 3.20772946859904 0.601202404809612  3.18012422360243 0.670340681362745  3.18012422360243 0.748496993987942  C 3.18012422360243 0.826653306613195  3.20772946859904 0.895791583166385  3.26293995859214 0.955911823647284  L 6.51759834368534 4.5  L 3.26293995859214 8.04408817635272  Z M 0.0828157349895946 8.04408817635272  C 0.0276052449964936 8.10420841683367  0 8.17334669338675  0 8.25150300601206  C 0 8.32965931863731  0.0276052449964936 8.39879759519039  0.0828157349895946 8.45891783567129  L 0.496894409937909 8.90981963927851  C 0.55210489993101 8.96993987975952  0.615596963423059 9  0.687370600414056 9  C 0.759144237405053 9  0.822636300897216 8.96993987975952  0.877846790890317 8.90981963927851  L 4.73706004140786 4.70741482965929  C 4.79227053140096 4.64729458917839  4.81987577639757 4.5781563126252  4.81987577639757 4.5  C 4.81987577639757 4.4218436873748  4.79227053140096 4.35270541082161  4.73706004140786 4.29258517034071  L 0.877846790890317 0.0901803607214902  C 0.822636300897216 0.0300601202404778  0.759144237405053 0  0.687370600414056 0  C 0.615596963423059 0  0.55210489993101 0.0300601202404778  0.496894409937909 0.0901803607214902  L 0.0828157349895946 0.541082164328657  C 0.0276052449964936 0.601202404809612  0 0.670340681362745  0 0.748496993987942  C 0 0.826653306613195  0.0276052449964936 0.895791583166385  0.0828157349895946 0.955911823647284  L 3.33747412008279 4.5  L 0.0828157349895946 8.04408817635272  Z " fill-rule="nonzero" fill="#ffffff" stroke="none" transform="matrix(1 0 0 1 1306 336 )" />
  </g>
</svg>