<?xml version="1.0" encoding="utf-8"?>
<svg version="1.1" xmlns:xlink="http://www.w3.org/1999/xlink" width="8px" height="9px" xmlns="http://www.w3.org/2000/svg">
  <g transform="matrix(1 0 0 1 -30 -336 )">
    <path d="M 4.73706004140787 8.04408817635272  C 4.79227053140097 8.10420841683367  4.81987577639752 8.17334669338675  4.81987577639752 8.25150300601206  C 4.81987577639752 8.32965931863731  4.79227053140097 8.39879759519039  4.73706004140787 8.45891783567129  L 4.32298136645963 8.90981963927851  C 4.26777087646653 8.96993987975952  4.20427881297447 9  4.13250517598344 9  C 4.06073153899241 9  3.99723947550035 8.96993987975952  3.94202898550725 8.90981963927851  L 0.0828157349896479 4.70741482965929  C 0.0276052449965487 4.64729458917839  0 4.5781563126252  0 4.5  C 0 4.4218436873748  0.0276052449965487 4.35270541082161  0.0828157349896479 4.29258517034071  L 3.94202898550725 0.0901803607214902  C 3.99723947550035 0.0300601202404778  4.06073153899241 0  4.13250517598344 0  C 4.20427881297447 0  4.26777087646653 0.0300601202404778  4.32298136645963 0.0901803607214902  L 4.73706004140787 0.541082164328657  C 4.79227053140097 0.601202404809612  4.81987577639752 0.670340681362745  4.81987577639752 0.748496993987942  C 4.81987577639752 0.826653306613195  4.79227053140097 0.895791583166385  4.73706004140787 0.955911823647284  L 1.4824016563147 4.5  L 4.73706004140787 8.04408817635272  Z M 7.91718426501035 8.04408817635272  C 7.97239475500345 8.10420841683367  8 8.17334669338675  8 8.25150300601206  C 8 8.32965931863731  7.97239475500345 8.39879759519039  7.91718426501035 8.45891783567129  L 7.50310559006211 8.90981963927851  C 7.44789510006901 8.96993987975952  7.38440303657695 9  7.31262939958592 9  C 7.24085576259489 9  7.17736369910283 8.96993987975952  7.12215320910973 8.90981963927851  L 3.26293995859213 4.70741482965929  C 3.20772946859903 4.64729458917839  3.18012422360249 4.5781563126252  3.18012422360248 4.5  C 3.18012422360249 4.4218436873748  3.20772946859903 4.35270541082161  3.26293995859213 4.29258517034071  L 7.12215320910973 0.0901803607214902  C 7.17736369910283 0.0300601202404778  7.24085576259489 0  7.31262939958592 0  C 7.38440303657695 0  7.44789510006901 0.0300601202404778  7.50310559006211 0.0901803607214902  L 7.91718426501035 0.541082164328657  C 7.97239475500345 0.601202404809612  8 0.670340681362745  8 0.748496993987942  C 8 0.826653306613195  7.97239475500345 0.895791583166385  7.91718426501035 0.955911823647284  L 4.66252587991718 4.5  L 7.91718426501035 8.04408817635272  Z " fill-rule="nonzero" fill="#ffffff" stroke="none" fill-opacity="0.607843137254902" transform="matrix(1 0 0 1 30 336 )" />
  </g>
</svg>