<?xml version="1.0" encoding="utf-8"?>
<svg version="1.1" xmlns:xlink="http://www.w3.org/1999/xlink" width="12px" height="12px" viewBox="421 271  12 12" xmlns="http://www.w3.org/2000/svg">
  <path d="M 427 271  C 430.36 271  433 273.64  433 277  C 433 280.36  430.36 283  427 283  C 423.64 283  421 280.36  421 277  C 421 273.64  423.64 271  427 271  Z " fill-rule="nonzero" fill="#f0f0f0" stroke="none" />
  <path d="M 427 271.5  C 430.08 271.5  432.5 273.92  432.5 277  C 432.5 280.08  430.08 282.5  427 282.5  C 423.92 282.5  421.5 280.08  421.5 277  C 421.5 273.92  423.92 271.5  427 271.5  Z " stroke-width="1" stroke="#797979" fill="none" />
  <path d="M 427 280  C 425.32 280  424 278.68  424 277  C 424 275.32  425.32 274  427 274  C 428.68 274  430 275.32  430 277  C 430 278.68  428.68 280  427 280  " fill-rule="nonzero" fill="#797979" stroke="none" />
</svg>