<?xml version="1.0" encoding="utf-8"?>
<svg version="1.1" xmlns:xlink="http://www.w3.org/1999/xlink" width="12px" height="12px" viewBox="421 460  12 12" xmlns="http://www.w3.org/2000/svg">
  <path d="M 427 460  C 430.36 460  433 462.64  433 466  C 433 469.36  430.36 472  427 472  C 423.64 472  421 469.36  421 466  C 421 462.64  423.64 460  427 460  Z " fill-rule="nonzero" fill="#f0f0f0" stroke="none" />
  <path d="M 427 460.5  C 430.08 460.5  432.5 462.92  432.5 466  C 432.5 469.08  430.08 471.5  427 471.5  C 423.92 471.5  421.5 469.08  421.5 466  C 421.5 462.92  423.92 460.5  427 460.5  Z " stroke-width="1" stroke="#797979" fill="none" />
  <path d="M 427 469  C 425.32 469  424 467.68  424 466  C 424 464.32  425.32 463  427 463  C 428.68 463  430 464.32  430 466  C 430 467.68  428.68 469  427 469  " fill-rule="nonzero" fill="#797979" stroke="none" />
</svg>