<?xml version="1.0" encoding="utf-8"?>
<svg version="1.1" xmlns:xlink="http://www.w3.org/1999/xlink" width="12px" height="12px" viewBox="421 537  12 12" xmlns="http://www.w3.org/2000/svg">
  <path d="M 427 537  C 430.36 537  433 539.64  433 543  C 433 546.36  430.36 549  427 549  C 423.64 549  421 546.36  421 543  C 421 539.64  423.64 537  427 537  Z " fill-rule="nonzero" fill="#ffffff" stroke="none" />
  <path d="M 427 537.5  C 430.08 537.5  432.5 539.92  432.5 543  C 432.5 546.08  430.08 548.5  427 548.5  C 423.92 548.5  421.5 546.08  421.5 543  C 421.5 539.92  423.92 537.5  427 537.5  Z " stroke-width="1" stroke="#797979" fill="none" />
  <path d="M 427 546  C 425.32 546  424 544.68  424 543  C 424 541.32  425.32 540  427 540  C 428.68 540  430 541.32  430 543  C 430 544.68  428.68 546  427 546  " fill-rule="nonzero" fill="#797979" stroke="none" />
</svg>