<?xml version="1.0" encoding="utf-8"?>
<svg version="1.1" xmlns:xlink="http://www.w3.org/1999/xlink" width="12px" height="12px" viewBox="798 916  12 12" xmlns="http://www.w3.org/2000/svg">
  <path d="M 804 916  C 807.36 916  810 918.64  810 922  C 810 925.36  807.36 928  804 928  C 800.64 928  798 925.36  798 922  C 798 918.64  800.64 916  804 916  Z " fill-rule="nonzero" fill="#ffffff" stroke="none" />
  <path d="M 804 916.5  C 807.08 916.5  809.5 918.92  809.5 922  C 809.5 925.08  807.08 927.5  804 927.5  C 800.92 927.5  798.5 925.08  798.5 922  C 798.5 918.92  800.92 916.5  804 916.5  Z " stroke-width="1" stroke="#797979" fill="none" />
  <path d="M 804 925  C 802.32 925  801 923.68  801 922  C 801 920.32  802.32 919  804 919  C 805.68 919  807 920.32  807 922  C 807 923.68  805.68 925  804 925  " fill-rule="nonzero" fill="#797979" stroke="none" />
</svg>