<?xml version="1.0" encoding="utf-8"?>
<svg version="1.1" xmlns:xlink="http://www.w3.org/1999/xlink" width="12px" height="12px" viewBox="798 888  12 12" xmlns="http://www.w3.org/2000/svg">
  <path d="M 804 888  C 807.36 888  810 890.64  810 894  C 810 897.36  807.36 900  804 900  C 800.64 900  798 897.36  798 894  C 798 890.64  800.64 888  804 888  Z " fill-rule="nonzero" fill="#f0f0f0" stroke="none" />
  <path d="M 804 888.5  C 807.08 888.5  809.5 890.92  809.5 894  C 809.5 897.08  807.08 899.5  804 899.5  C 800.92 899.5  798.5 897.08  798.5 894  C 798.5 890.92  800.92 888.5  804 888.5  Z " stroke-width="1" stroke="#797979" fill="none" />
  <path d="M 804 897  C 802.32 897  801 895.68  801 894  C 801 892.32  802.32 891  804 891  C 805.68 891  807 892.32  807 894  C 807 895.68  805.68 897  804 897  " fill-rule="nonzero" fill="#797979" stroke="none" />
</svg>