<?xml version="1.0" encoding="utf-8"?>
<svg version="1.1" xmlns:xlink="http://www.w3.org/1999/xlink" width="12px" height="12px" viewBox="798 861  12 12" xmlns="http://www.w3.org/2000/svg">
  <path d="M 804 861  C 807.36 861  810 863.64  810 867  C 810 870.36  807.36 873  804 873  C 800.64 873  798 870.36  798 867  C 798 863.64  800.64 861  804 861  Z " fill-rule="nonzero" fill="#ffffff" stroke="none" />
  <path d="M 804 861.5  C 807.08 861.5  809.5 863.92  809.5 867  C 809.5 870.08  807.08 872.5  804 872.5  C 800.92 872.5  798.5 870.08  798.5 867  C 798.5 863.92  800.92 861.5  804 861.5  Z " stroke-width="1" stroke="#797979" fill="none" />
  <path d="M 804 870  C 802.32 870  801 868.68  801 867  C 801 865.32  802.32 864  804 864  C 805.68 864  807 865.32  807 867  C 807 868.68  805.68 870  804 870  " fill-rule="nonzero" fill="#797979" stroke="none" />
</svg>