<?xml version="1.0" encoding="utf-8"?>
<svg version="1.1" xmlns:xlink="http://www.w3.org/1999/xlink" width="12px" height="12px" viewBox="798 998  12 12" xmlns="http://www.w3.org/2000/svg">
  <path d="M 804 998  C 807.36 998  810 1000.64  810 1004  C 810 1007.36  807.36 1010  804 1010  C 800.64 1010  798 1007.36  798 1004  C 798 1000.64  800.64 998  804 998  Z " fill-rule="nonzero" fill="#ffffff" stroke="none" />
  <path d="M 804 998.5  C 807.08 998.5  809.5 1000.92  809.5 1004  C 809.5 1007.08  807.08 1009.5  804 1009.5  C 800.92 1009.5  798.5 1007.08  798.5 1004  C 798.5 1000.92  800.92 998.5  804 998.5  Z " stroke-width="1" stroke="#797979" fill="none" />
  <path d="M 804 1007  C 802.32 1007  801 1005.68  801 1004  C 801 1002.32  802.32 1001  804 1001  C 805.68 1001  807 1002.32  807 1004  C 807 1005.68  805.68 1007  804 1007  " fill-rule="nonzero" fill="#797979" stroke="none" />
</svg>