<?xml version="1.0" encoding="utf-8"?>
<svg version="1.1" xmlns:xlink="http://www.w3.org/1999/xlink" width="12px" height="12px" viewBox="798 1023  12 12" xmlns="http://www.w3.org/2000/svg">
  <path d="M 804 1023  C 807.36 1023  810 1025.64  810 1029  C 810 1032.36  807.36 1035  804 1035  C 800.64 1035  798 1032.36  798 1029  C 798 1025.64  800.64 1023  804 1023  Z " fill-rule="nonzero" fill="#ffffff" stroke="none" />
  <path d="M 804 1023.5  C 807.08 1023.5  809.5 1025.92  809.5 1029  C 809.5 1032.08  807.08 1034.5  804 1034.5  C 800.92 1034.5  798.5 1032.08  798.5 1029  C 798.5 1025.92  800.92 1023.5  804 1023.5  Z " stroke-width="1" stroke="#797979" fill="none" />
  <path d="M 804 1032  C 802.32 1032  801 1030.68  801 1029  C 801 1027.32  802.32 1026  804 1026  C 805.68 1026  807 1027.32  807 1029  C 807 1030.68  805.68 1032  804 1032  " fill-rule="nonzero" fill="#797979" stroke="none" />
</svg>