<?xml version="1.0" encoding="utf-8"?>
<svg version="1.1" xmlns:xlink="http://www.w3.org/1999/xlink" width="12px" height="12px" viewBox="798 1052  12 12" xmlns="http://www.w3.org/2000/svg">
  <path d="M 804 1052  C 807.36 1052  810 1054.64  810 1058  C 810 1061.36  807.36 1064  804 1064  C 800.64 1064  798 1061.36  798 1058  C 798 1054.64  800.64 1052  804 1052  Z " fill-rule="nonzero" fill="#f0f0f0" stroke="none" />
  <path d="M 804 1052.5  C 807.08 1052.5  809.5 1054.92  809.5 1058  C 809.5 1061.08  807.08 1063.5  804 1063.5  C 800.92 1063.5  798.5 1061.08  798.5 1058  C 798.5 1054.92  800.92 1052.5  804 1052.5  Z " stroke-width="1" stroke="#797979" fill="none" />
  <path d="M 804 1061  C 802.32 1061  801 1059.68  801 1058  C 801 1056.32  802.32 1055  804 1055  C 805.68 1055  807 1056.32  807 1058  C 807 1059.68  805.68 1061  804 1061  " fill-rule="nonzero" fill="#797979" stroke="none" />
</svg>