<?xml version="1.0" encoding="utf-8"?>
<svg version="1.1" xmlns:xlink="http://www.w3.org/1999/xlink" width="12px" height="12px" viewBox="798 1164  12 12" xmlns="http://www.w3.org/2000/svg">
  <path d="M 804 1164  C 807.36 1164  810 1166.64  810 1170  C 810 1173.36  807.36 1176  804 1176  C 800.64 1176  798 1173.36  798 1170  C 798 1166.64  800.64 1164  804 1164  Z " fill-rule="nonzero" fill="#f0f0f0" stroke="none" />
  <path d="M 804 1164.5  C 807.08 1164.5  809.5 1166.92  809.5 1170  C 809.5 1173.08  807.08 1175.5  804 1175.5  C 800.92 1175.5  798.5 1173.08  798.5 1170  C 798.5 1166.92  800.92 1164.5  804 1164.5  Z " stroke-width="1" stroke="#797979" fill="none" />
  <path d="M 804 1173  C 802.32 1173  801 1171.68  801 1170  C 801 1168.32  802.32 1167  804 1167  C 805.68 1167  807 1168.32  807 1170  C 807 1171.68  805.68 1173  804 1173  " fill-rule="nonzero" fill="#797979" stroke="none" />
</svg>