<?xml version="1.0" encoding="utf-8"?>
<svg version="1.1" xmlns:xlink="http://www.w3.org/1999/xlink" width="12px" height="12px" viewBox="798 1189  12 12" xmlns="http://www.w3.org/2000/svg">
  <path d="M 804 1189  C 807.36 1189  810 1191.64  810 1195  C 810 1198.36  807.36 1201  804 1201  C 800.64 1201  798 1198.36  798 1195  C 798 1191.64  800.64 1189  804 1189  Z " fill-rule="nonzero" fill="#f0f0f0" stroke="none" />
  <path d="M 804 1189.5  C 807.08 1189.5  809.5 1191.92  809.5 1195  C 809.5 1198.08  807.08 1200.5  804 1200.5  C 800.92 1200.5  798.5 1198.08  798.5 1195  C 798.5 1191.92  800.92 1189.5  804 1189.5  Z " stroke-width="1" stroke="#797979" fill="none" />
  <path d="M 804 1198  C 802.32 1198  801 1196.68  801 1195  C 801 1193.32  802.32 1192  804 1192  C 805.68 1192  807 1193.32  807 1195  C 807 1196.68  805.68 1198  804 1198  " fill-rule="nonzero" fill="#797979" stroke="none" />
</svg>