<?xml version="1.0" encoding="utf-8"?>
<svg version="1.1" xmlns:xlink="http://www.w3.org/1999/xlink" width="24px" height="24px" xmlns="http://www.w3.org/2000/svg">
  <g transform="matrix(1 0 0 1 -1627 -65 )">
    <path d="M 5.68415562354744 22.1052793588271  C 7.77702755661448 22.1052793588271  9.47374091338543 20.4087933260559  9.47374091338543 18.315803874513  L 9.47374091338543 14.5263283901988  L 5.68415562354744 14.5263283901988  C 3.59145469910322 14.5263283901988  1.89470714060758 16.2230880387166  1.89470714060758 18.315803874513  C 1.89470714060758 20.4087933260559  3.59145469910322 22.1052793588271  5.68415562354744 22.1052793588271  Z M 11.3684822557177 12.6316077490259  L 11.3684822557177 18.315803874513  C 11.3684822557177 21.4551683449383  8.82349772487282 24  5.68415562354744 24  C 2.54495032912041 24  0 21.4551683449383  0 18.315803874513  C 0 15.1764394040877  2.54495032912041 12.6316077490259  5.68415562354744 12.6316077490259  L 11.3684822557177 12.6316077490259  Z M 18.3157075695542 22.1052793588271  C 16.2229724433855 22.1052793588271  14.5262590866146 20.4087933260559  14.5262590866146 18.315803874513  L 14.5262590866146 14.5263283901988  L 18.3157075695542 14.5263283901988  C 20.4086821077954 14.5263283901988  22.1051218507694 16.2230880387166  22.1051218507694 18.315803874513  C 22.1051218507694 20.4087933260559  20.4086821077954 22.1052793588271  18.3157075695542 22.1052793588271  Z M 12.6315177442823 12.6316077490259  L 12.6315177442823 18.315803874513  C 12.6315177442823 21.4551683449383  15.1764680734025 24  18.3157075695542 24  C 21.4550496708796 24  24 21.4551683449383  24 18.315803874513  C 24 15.1764394040877  21.4550496708796 12.6316077490259  18.3157075695542 12.6316077490259  L 12.6315177442823 12.6316077490259  Z M 5.68415562354744 1.8947206411729  C 7.77702755661448 1.8947206411729  9.47374091338543 3.59144608772236  9.47374091338543 5.68419612548701  L 9.47374091338543 9.47380841767445  L 5.68415562354744 9.47380841767445  C 3.59145469910322 9.47380841767445  1.89470714060758 7.77704876915664  1.89470714060758 5.68419612548701  C 1.89470714060758 3.59144608772236  3.59145469910322 1.8947206411729  5.68415562354744 1.8947206411729  Z M 11.3684822557177 11.3685290588473  L 11.3684822557177 5.68419612548701  C 11.3684822557177 2.54496846293502  8.82349772487282 0  5.68415562354744 0  C 2.54495032912041 0  0 2.54496846293502  0 5.68419612548701  C 0 8.82356059591228  2.54495032912041 11.3685290588473  5.68415562354744 11.3685290588473  L 11.3684822557177 11.3685290588473  Z M 18.3157075695542 1.8947206411729  C 16.2229724433855 1.8947206411729  14.5262590866146 3.59144608772236  14.5262590866146 5.68419612548701  L 14.5262590866146 9.47380841767445  L 18.3157075695542 9.47380841767445  C 20.4086821077954 9.47380841767445  22.1051218507694 7.77704876915664  22.1051218507694 5.68419612548701  C 22.1051218507694 3.59144608772236  20.4086821077954 1.8947206411729  18.3157075695542 1.8947206411729  Z M 12.6315177442823 11.3685290588473  L 12.6315177442823 5.68419612548701  C 12.6315177442823 2.54496846293502  15.1764680734025 0  18.3157075695542 0  C 21.4550496708796 0  24 2.54496846293502  24 5.68419612548701  C 24 8.82356059591228  21.4550496708796 11.3685290588473  18.3157075695542 11.3685290588473  L 12.6315177442823 11.3685290588473  Z " fill-rule="nonzero" fill="#3399ff" stroke="none" transform="matrix(1 0 0 1 1627 65 )" />
  </g>
</svg>