<?xml version="1.0" encoding="utf-8"?>
<svg version="1.1" xmlns:xlink="http://www.w3.org/1999/xlink" width="24px" height="25px" xmlns="http://www.w3.org/2000/svg">
  <g transform="matrix(1 0 0 1 -1035 -1367 )">
    <path d="M 5.68415562354744 23.0263326654449  C 7.77702755661448 23.0263326654449  9.47374091338543 21.2591597146416  9.47374091338543 19.0789623692842  L 9.47374091338543 15.1315920731238  L 5.68415562354744 15.1315920731238  C 3.59145469910322 15.1315920731238  1.89470714060758 16.8990500403299  1.89470714060758 19.0789623692842  C 1.89470714060758 21.2591597146416  3.59145469910322 23.0263326654449  5.68415562354744 23.0263326654449  Z M 11.3684822557177 13.1579247385687  L 11.3684822557177 19.0789623692842  C 11.3684822557177 22.349133692644  8.82349772487282 25  5.68415562354744 25  C 2.54495032912041 25  0 22.349133692644  0 19.0789623692842  C 0 15.8087910459246  2.54495032912041 13.1579247385687  5.68415562354744 13.1579247385687  L 11.3684822557177 13.1579247385687  Z M 18.3157075695542 23.0263326654449  C 16.2229724433855 23.0263326654449  14.5262590866146 21.2591597146416  14.5262590866146 19.0789623692842  L 14.5262590866146 15.1315920731238  L 18.3157075695542 15.1315920731238  C 20.4086821077954 15.1315920731238  22.1051218507691 16.8990500403299  22.1051218507691 19.0789623692842  C 22.1051218507691 21.2591597146416  20.4086821077954 23.0263326654449  18.3157075695542 23.0263326654449  Z M 12.6315177442823 13.1579247385687  L 12.6315177442823 19.0789623692842  C 12.6315177442823 22.349133692644  15.1764680734025 25  18.3157075695542 25  C 21.4550496708798 25  24 22.349133692644  24 19.0789623692842  C 24 15.8087910459246  21.4550496708798 13.1579247385687  18.3157075695542 13.1579247385687  L 12.6315177442823 13.1579247385687  Z M 5.68415562354744 1.9736673345551  C 7.77702755661448 1.9736673345551  9.47374091338543 3.74108967471079  9.47374091338543 5.92103763071577  L 9.47374091338543 9.8685504350774  L 5.68415562354744 9.8685504350774  C 3.59145469910322 9.8685504350774  1.89470714060758 8.10109246787147  1.89470714060758 5.92103763071577  C 1.89470714060758 3.74108967471079  3.59145469910322 1.9736673345551  5.68415562354744 1.9736673345551  Z M 11.3684822557177 11.8422177696327  L 11.3684822557177 5.92103763071577  C 11.3684822557177 2.65100881555736  8.82349772487282 0  5.68415562354744 0  C 2.54495032912041 0  0 2.65100881555736  0 5.92103763071577  C 0 9.19120895407536  2.54495032912041 11.8422177696327  5.68415562354744 11.8422177696327  L 11.3684822557177 11.8422177696327  Z M 18.3157075695542 1.9736673345551  C 16.2229724433855 1.9736673345551  14.5262590866146 3.74108967471079  14.5262590866146 5.92103763071577  L 14.5262590866146 9.8685504350774  L 18.3157075695542 9.8685504350774  C 20.4086821077954 9.8685504350774  22.1051218507691 8.10109246787147  22.1051218507691 5.92103763071577  C 22.1051218507691 3.74108967471079  20.4086821077954 1.9736673345551  18.3157075695542 1.9736673345551  Z M 12.6315177442823 11.8422177696327  L 12.6315177442823 5.92103763071577  C 12.6315177442823 2.65100881555736  15.1764680734025 0  18.3157075695542 0  C 21.4550496708798 0  24 2.65100881555736  24 5.92103763071577  C 24 9.19120895407536  21.4550496708798 11.8422177696327  18.3157075695542 11.8422177696327  L 12.6315177442823 11.8422177696327  Z " fill-rule="nonzero" fill="#000000" stroke="none" transform="matrix(1 0 0 1 1035 1367 )" />
  </g>
</svg>