<?xml version="1.0" encoding="utf-8"?>
<svg version="1.1" xmlns:xlink="http://www.w3.org/1999/xlink" width="211px" height="120px" xmlns="http://www.w3.org/2000/svg">
  <g transform="matrix(1 0 0 1 -222 0 )">
    <path d="M 222 0  L 433 0  L 433 120  L 222 120  L 222 0  " fill-rule="nonzero" fill="#cccccc" stroke="none" />
    <path d="M 230 8  L 425 8  L 425 112  L 230 112  L 230 8  " fill-rule="nonzero" fill="#ffffff" stroke="none" />
    <path d="M 340.72 36  C 335.68 36  331.72 32.04  331.72 27  C 331.72 21.96  335.68 18  340.72 18  C 345.76 18  349.72 21.96  349.72 27  C 349.72 32.04  345.76 36  340.72 36  " fill-rule="nonzero" fill="#cccccc" stroke="none" />
    <path d="M 233 109  L 233 55.1  L 280.25 30.6  L 346.4 75.5592417061611  L 384.2 45.3  L 422 75.5592417061611  L 422 109  L 233 109  " fill-rule="nonzero" fill="#169bd5" stroke="none" />
    <path d="M 223 119  L 223 1  L 432 1  L 432 119  L 223 119  Z " stroke-width="2" stroke="#3399ff" fill="none" />
  </g>
</svg>