<?xml version="1.0" encoding="utf-8"?>
<svg version="1.1" xmlns:xlink="http://www.w3.org/1999/xlink" width="16px" height="16px" xmlns="http://www.w3.org/2000/svg">
  <g transform="matrix(1 0 0 1 -788 -2026 )">
    <path d="M 15.6228956228956 11.959595959596  C 15.8742985409652 12.2109988776656  16 12.5162738496073  16 12.8754208754209  C 16 13.2345679012346  15.8742985409652 13.5398428731761  15.6228956228956 13.7912457912457  L 13.7912457912457 15.6228956228956  C 13.5398428731761 15.8742985409652  13.2345679012346 16  12.8754208754209 16  C 12.5162738496073 16  12.2109988776656 15.8742985409652  11.959595959596 15.6228956228956  L 8 11.6632996632997  L 4.04040404040404 15.6228956228956  C 3.78900112233441 15.8742985409652  3.48372615039273 16  3.1245791245791 16  C 2.76543209876536 16  2.4601571268239 15.8742985409652  2.20875420875427 15.6228956228956  L 0.377104377104388 13.7912457912457  C 0.125701459034758 13.5398428731761  0 13.2345679012346  0 12.8754208754209  C 0 12.5162738496073  0.125701459034758 12.2109988776656  0.377104377104388 11.959595959596  L 4.33670033670035 8  L 0.377104377104388 4.04040404040404  C 0.125701459034758 3.78900112233441  0 3.48372615039273  0 3.1245791245791  C 0 2.76543209876536  0.125701459034758 2.4601571268239  0.377104377104388 2.20875420875427  L 2.20875420875427 0.377104377104388  C 2.4601571268239 0.125701459034758  2.76543209876536 0  3.1245791245791 0  C 3.48372615039273 0  3.78900112233441 0.125701459034758  4.04040404040404 0.377104377104388  L 8 4.33670033670035  L 11.959595959596 0.377104377104388  C 12.2109988776656 0.125701459034758  12.5162738496073 0  12.8754208754209 0  C 13.2345679012346 0  13.5398428731761 0.125701459034758  13.7912457912457 0.377104377104388  L 15.6228956228956 2.20875420875427  C 15.8742985409652 2.4601571268239  16 2.76543209876536  16 3.1245791245791  C 16 3.48372615039273  15.8742985409652 3.78900112233441  15.6228956228956 4.04040404040404  L 11.6632996632997 8  L 15.6228956228956 11.959595959596  Z " fill-rule="nonzero" fill="#333333" stroke="none" transform="matrix(1 0 0 1 788 2026 )" />
  </g>
</svg>