<?xml version="1.0" encoding="utf-8"?>
<svg version="1.1" xmlns:xlink="http://www.w3.org/1999/xlink" width="25px" height="25px" xmlns="http://www.w3.org/2000/svg">
  <g transform="matrix(1 0 0 1 -93 -45 )">
    <path d="M 19.482421875 14.2740885416667  C 19.6885850694445 14.0679253472222  19.7916666666665 13.8237847222222  19.7916666666665 13.5416666666667  L 19.7916666666665 11.4583333333333  C 19.7916666666665 11.1762152777778  19.6885850694445 10.9320746527778  19.482421875 10.7259114583333  C 19.2762586805555 10.5197482638889  19.0321180555555 10.4166666666667  18.75 10.4166666666667  L 14.5833333333335 10.4166666666667  L 14.5833333333335 6.25  C 14.5833333333335 5.96788194444434  14.480251736111 5.72374131944434  14.2740885416665 5.517578125  C 14.0679253472221 5.31141493055566  13.8237847222221 5.20833333333326  13.5416666666665 5.20833333333326  L 11.4583333333335 5.20833333333326  C 11.1762152777779 5.20833333333326  10.9320746527779 5.31141493055566  10.7259114583335 5.517578125  C 10.519748263889 5.72374131944434  10.4166666666665 5.96788194444434  10.4166666666665 6.25  L 10.4166666666665 10.4166666666667  L 6.25 10.4166666666667  C 5.96788194444451 10.4166666666667  5.72374131944451 10.5197482638889  5.517578125 10.7259114583333  C 5.31141493055549 10.9320746527778  5.20833333333348 11.1762152777778  5.20833333333348 11.4583333333333  L 5.20833333333348 13.5416666666667  C 5.20833333333348 13.8237847222222  5.31141493055549 14.0679253472222  5.517578125 14.2740885416667  C 5.72374131944451 14.4802517361111  5.96788194444451 14.5833333333333  6.25 14.5833333333333  L 10.4166666666665 14.5833333333333  L 10.4166666666665 18.75  C 10.4166666666665 19.0321180555557  10.519748263889 19.2762586805557  10.7259114583335 19.482421875  C 10.9320746527779 19.6885850694443  11.1762152777779 19.7916666666667  11.4583333333335 19.7916666666667  L 13.5416666666665 19.7916666666667  C 13.8237847222221 19.7916666666667  14.0679253472221 19.6885850694443  14.2740885416665 19.482421875  C 14.480251736111 19.2762586805557  14.5833333333335 19.0321180555557  14.5833333333335 18.75  L 14.5833333333335 14.5833333333333  L 18.75 14.5833333333333  C 19.0321180555555 14.5833333333333  19.2762586805555 14.4802517361111  19.482421875 14.2740885416667  Z M 23.3235677083335 6.2255859375  C 24.441189236111 8.14073350694434  25 10.2322048611111  25 12.5  C 25 14.7677951388889  24.441189236111 16.8592664930557  23.3235677083335 18.7744140625  C 22.2059461805555 20.6895616319443  20.6895616319445 22.2059461805557  18.7744140625 23.3235677083333  C 16.8592664930555 24.4411892361111  14.767795138889 25  12.5 25  C 10.232204861111 25  8.14073350694446 24.4411892361111  6.2255859375 23.3235677083333  C 4.31043836805549 22.2059461805557  2.79405381944451 20.6895616319443  1.67643229166652 18.7744140625  C 0.558810763888971 16.8592664930557  0 14.7677951388889  0 12.5  C 0 10.2322048611111  0.558810763888971 8.14073350694434  1.67643229166652 6.2255859375  C 2.79405381944451 4.31043836805566  4.31043836805549 2.79405381944434  6.2255859375 1.67643229166674  C 8.14073350694446 0.558810763888914  10.232204861111 0  12.5 0  C 14.767795138889 0  16.8592664930555 0.558810763888914  18.7744140625 1.67643229166674  C 20.6895616319445 2.79405381944434  22.2059461805555 4.31043836805566  23.3235677083335 6.2255859375  Z " fill-rule="nonzero" fill="#333333" stroke="none" fill-opacity="0.298039215686275" transform="matrix(1 0 0 1 93 45 )" />
  </g>
</svg>