<?xml version="1.0" encoding="utf-8"?>
<svg version="1.1" xmlns:xlink="http://www.w3.org/1999/xlink" width="12px" height="12px" viewBox="796 197  12 12" xmlns="http://www.w3.org/2000/svg">
  <path d="M 802 197  C 805.36 197  808 199.64  808 203  C 808 206.36  805.36 209  802 209  C 798.64 209  796 206.36  796 203  C 796 199.64  798.64 197  802 197  Z " fill-rule="nonzero" fill="#f0f0f0" stroke="none" />
  <path d="M 802 197.5  C 805.08 197.5  807.5 199.92  807.5 203  C 807.5 206.08  805.08 208.5  802 208.5  C 798.92 208.5  796.5 206.08  796.5 203  C 796.5 199.92  798.92 197.5  802 197.5  Z " stroke-width="1" stroke="#797979" fill="none" />
  <path d="M 802 206  C 800.32 206  799 204.68  799 203  C 799 201.32  800.32 200  802 200  C 803.68 200  805 201.32  805 203  C 805 204.68  803.68 206  802 206  " fill-rule="nonzero" fill="#797979" stroke="none" />
</svg>