<?xml version="1.0" encoding="utf-8"?>
<svg version="1.1" xmlns:xlink="http://www.w3.org/1999/xlink" width="12px" height="12px" viewBox="796 249  12 12" xmlns="http://www.w3.org/2000/svg">
  <path d="M 802 249  C 805.36 249  808 251.64  808 255  C 808 258.36  805.36 261  802 261  C 798.64 261  796 258.36  796 255  C 796 251.64  798.64 249  802 249  Z " fill-rule="nonzero" fill="#f0f0f0" stroke="none" />
  <path d="M 802 249.5  C 805.08 249.5  807.5 251.92  807.5 255  C 807.5 258.08  805.08 260.5  802 260.5  C 798.92 260.5  796.5 258.08  796.5 255  C 796.5 251.92  798.92 249.5  802 249.5  Z " stroke-width="1" stroke="#797979" fill="none" />
  <path d="M 802 258  C 800.32 258  799 256.68  799 255  C 799 253.32  800.32 252  802 252  C 803.68 252  805 253.32  805 255  C 805 256.68  803.68 258  802 258  " fill-rule="nonzero" fill="#797979" stroke="none" />
</svg>