<?xml version="1.0" encoding="utf-8"?>
<svg version="1.1" xmlns:xlink="http://www.w3.org/1999/xlink" width="12px" height="12px" viewBox="796 277  12 12" xmlns="http://www.w3.org/2000/svg">
  <path d="M 802 277  C 805.36 277  808 279.64  808 283  C 808 286.36  805.36 289  802 289  C 798.64 289  796 286.36  796 283  C 796 279.64  798.64 277  802 277  Z " fill-rule="nonzero" fill="#ffffff" stroke="none" />
  <path d="M 802 277.5  C 805.08 277.5  807.5 279.92  807.5 283  C 807.5 286.08  805.08 288.5  802 288.5  C 798.92 288.5  796.5 286.08  796.5 283  C 796.5 279.92  798.92 277.5  802 277.5  Z " stroke-width="1" stroke="#797979" fill="none" />
  <path d="M 802 286  C 800.32 286  799 284.68  799 283  C 799 281.32  800.32 280  802 280  C 803.68 280  805 281.32  805 283  C 805 284.68  803.68 286  802 286  " fill-rule="nonzero" fill="#797979" stroke="none" />
</svg>