<?xml version="1.0" encoding="utf-8"?>
<svg version="1.1" xmlns:xlink="http://www.w3.org/1999/xlink" width="12px" height="12px" viewBox="796 222  12 12" xmlns="http://www.w3.org/2000/svg">
  <path d="M 802 222  C 805.36 222  808 224.64  808 228  C 808 231.36  805.36 234  802 234  C 798.64 234  796 231.36  796 228  C 796 224.64  798.64 222  802 222  Z " fill-rule="nonzero" fill="#ffffff" stroke="none" />
  <path d="M 802 222.5  C 805.08 222.5  807.5 224.92  807.5 228  C 807.5 231.08  805.08 233.5  802 233.5  C 798.92 233.5  796.5 231.08  796.5 228  C 796.5 224.92  798.92 222.5  802 222.5  Z " stroke-width="1" stroke="#797979" fill="none" />
  <path d="M 802 231  C 800.32 231  799 229.68  799 228  C 799 226.32  800.32 225  802 225  C 803.68 225  805 226.32  805 228  C 805 229.68  803.68 231  802 231  " fill-rule="nonzero" fill="#797979" stroke="none" />
</svg>