<?xml version="1.0" encoding="utf-8"?>
<svg version="1.1" xmlns:xlink="http://www.w3.org/1999/xlink" width="12px" height="12px" viewBox="796 836  12 12" xmlns="http://www.w3.org/2000/svg">
  <path d="M 802 836  C 805.36 836  808 838.64  808 842  C 808 845.36  805.36 848  802 848  C 798.64 848  796 845.36  796 842  C 796 838.64  798.64 836  802 836  Z " fill-rule="nonzero" fill="#ffffff" stroke="none" />
  <path d="M 802 836.5  C 805.08 836.5  807.5 838.92  807.5 842  C 807.5 845.08  805.08 847.5  802 847.5  C 798.92 847.5  796.5 845.08  796.5 842  C 796.5 838.92  798.92 836.5  802 836.5  Z " stroke-width="1" stroke="#797979" fill="none" />
  <path d="M 802 845  C 800.32 845  799 843.68  799 842  C 799 840.32  800.32 839  802 839  C 803.68 839  805 840.32  805 842  C 805 843.68  803.68 845  802 845  " fill-rule="nonzero" fill="#797979" stroke="none" />
</svg>