<?xml version="1.0" encoding="utf-8"?>
<svg version="1.1" xmlns:xlink="http://www.w3.org/1999/xlink" width="12px" height="12px" viewBox="796 916  12 12" xmlns="http://www.w3.org/2000/svg">
  <path d="M 802 916  C 805.36 916  808 918.64  808 922  C 808 925.36  805.36 928  802 928  C 798.64 928  796 925.36  796 922  C 796 918.64  798.64 916  802 916  Z " fill-rule="nonzero" fill="#f0f0f0" stroke="none" />
  <path d="M 802 916.5  C 805.08 916.5  807.5 918.92  807.5 922  C 807.5 925.08  805.08 927.5  802 927.5  C 798.92 927.5  796.5 925.08  796.5 922  C 796.5 918.92  798.92 916.5  802 916.5  Z " stroke-width="1" stroke="#797979" fill="none" />
  <path d="M 802 925  C 800.32 925  799 923.68  799 922  C 799 920.32  800.32 919  802 919  C 803.68 919  805 920.32  805 922  C 805 923.68  803.68 925  802 925  " fill-rule="nonzero" fill="#797979" stroke="none" />
</svg>