<?xml version="1.0" encoding="utf-8"?>
<svg version="1.1" xmlns:xlink="http://www.w3.org/1999/xlink" width="12px" height="12px" viewBox="796 888  12 12" xmlns="http://www.w3.org/2000/svg">
  <path d="M 802 888  C 805.36 888  808 890.64  808 894  C 808 897.36  805.36 900  802 900  C 798.64 900  796 897.36  796 894  C 796 890.64  798.64 888  802 888  Z " fill-rule="nonzero" fill="#f0f0f0" stroke="none" />
  <path d="M 802 888.5  C 805.08 888.5  807.5 890.92  807.5 894  C 807.5 897.08  805.08 899.5  802 899.5  C 798.92 899.5  796.5 897.08  796.5 894  C 796.5 890.92  798.92 888.5  802 888.5  Z " stroke-width="1" stroke="#797979" fill="none" />
  <path d="M 802 897  C 800.32 897  799 895.68  799 894  C 799 892.32  800.32 891  802 891  C 803.68 891  805 892.32  805 894  C 805 895.68  803.68 897  802 897  " fill-rule="nonzero" fill="#797979" stroke="none" />
</svg>