<?xml version="1.0" encoding="utf-8"?>
<svg version="1.1" xmlns:xlink="http://www.w3.org/1999/xlink" width="12px" height="12px" viewBox="796 861  12 12" xmlns="http://www.w3.org/2000/svg">
  <path d="M 802 861  C 805.36 861  808 863.64  808 867  C 808 870.36  805.36 873  802 873  C 798.64 873  796 870.36  796 867  C 796 863.64  798.64 861  802 861  Z " fill-rule="nonzero" fill="#f0f0f0" stroke="none" />
  <path d="M 802 861.5  C 805.08 861.5  807.5 863.92  807.5 867  C 807.5 870.08  805.08 872.5  802 872.5  C 798.92 872.5  796.5 870.08  796.5 867  C 796.5 863.92  798.92 861.5  802 861.5  Z " stroke-width="1" stroke="#797979" fill="none" />
  <path d="M 802 870  C 800.32 870  799 868.68  799 867  C 799 865.32  800.32 864  802 864  C 803.68 864  805 865.32  805 867  C 805 868.68  803.68 870  802 870  " fill-rule="nonzero" fill="#797979" stroke="none" />
</svg>