<?xml version="1.0" encoding="utf-8"?>
<svg version="1.1" xmlns:xlink="http://www.w3.org/1999/xlink" width="12px" height="12px" viewBox="421 200  12 12" xmlns="http://www.w3.org/2000/svg">
  <path d="M 427 200  C 430.36 200  433 202.64  433 206  C 433 209.36  430.36 212  427 212  C 423.64 212  421 209.36  421 206  C 421 202.64  423.64 200  427 200  Z " fill-rule="nonzero" fill="#ffffff" stroke="none" />
  <path d="M 427 200.5  C 430.08 200.5  432.5 202.92  432.5 206  C 432.5 209.08  430.08 211.5  427 211.5  C 423.92 211.5  421.5 209.08  421.5 206  C 421.5 202.92  423.92 200.5  427 200.5  Z " stroke-width="1" stroke="#797979" fill="none" />
  <path d="M 427 209  C 425.32 209  424 207.68  424 206  C 424 204.32  425.32 203  427 203  C 428.68 203  430 204.32  430 206  C 430 207.68  428.68 209  427 209  " fill-rule="nonzero" fill="#797979" stroke="none" />
</svg>