<?xml version="1.0" encoding="utf-8"?>
<svg version="1.1" xmlns:xlink="http://www.w3.org/1999/xlink" width="12px" height="12px" viewBox="421 228  12 12" xmlns="http://www.w3.org/2000/svg">
  <path d="M 427 228  C 430.36 228  433 230.64  433 234  C 433 237.36  430.36 240  427 240  C 423.64 240  421 237.36  421 234  C 421 230.64  423.64 228  427 228  Z " fill-rule="nonzero" fill="#f0f0f0" stroke="none" />
  <path d="M 427 228.5  C 430.08 228.5  432.5 230.92  432.5 234  C 432.5 237.08  430.08 239.5  427 239.5  C 423.92 239.5  421.5 237.08  421.5 234  C 421.5 230.92  423.92 228.5  427 228.5  Z " stroke-width="1" stroke="#797979" fill="none" />
  <path d="M 427 237  C 425.32 237  424 235.68  424 234  C 424 232.32  425.32 231  427 231  C 428.68 231  430 232.32  430 234  C 430 235.68  428.68 237  427 237  " fill-rule="nonzero" fill="#797979" stroke="none" />
</svg>