<?xml version="1.0" encoding="utf-8"?>
<svg version="1.1" xmlns:xlink="http://www.w3.org/1999/xlink" width="12px" height="12px" viewBox="421 175  12 12" xmlns="http://www.w3.org/2000/svg">
  <path d="M 427 175  C 430.36 175  433 177.64  433 181  C 433 184.36  430.36 187  427 187  C 423.64 187  421 184.36  421 181  C 421 177.64  423.64 175  427 175  Z " fill-rule="nonzero" fill="#f0f0f0" stroke="none" />
  <path d="M 427 175.5  C 430.08 175.5  432.5 177.92  432.5 181  C 432.5 184.08  430.08 186.5  427 186.5  C 423.92 186.5  421.5 184.08  421.5 181  C 421.5 177.92  423.92 175.5  427 175.5  Z " stroke-width="1" stroke="#797979" fill="none" />
  <path d="M 427 184  C 425.32 184  424 182.68  424 181  C 424 179.32  425.32 178  427 178  C 428.68 178  430 179.32  430 181  C 430 182.68  428.68 184  427 184  " fill-rule="nonzero" fill="#797979" stroke="none" />
</svg>