<?xml version="1.0" encoding="utf-8"?>
<svg version="1.1" xmlns:xlink="http://www.w3.org/1999/xlink" width="12px" height="12px" viewBox="799 852  12 12" xmlns="http://www.w3.org/2000/svg">
  <path d="M 805 852  C 808.36 852  811 854.64  811 858  C 811 861.36  808.36 864  805 864  C 801.64 864  799 861.36  799 858  C 799 854.64  801.64 852  805 852  Z " fill-rule="nonzero" fill="#f0f0f0" stroke="none" />
  <path d="M 805 852.5  C 808.08 852.5  810.5 854.92  810.5 858  C 810.5 861.08  808.08 863.5  805 863.5  C 801.92 863.5  799.5 861.08  799.5 858  C 799.5 854.92  801.92 852.5  805 852.5  Z " stroke-width="1" stroke="#797979" fill="none" />
  <path d="M 805 861  C 803.32 861  802 859.68  802 858  C 802 856.32  803.32 855  805 855  C 806.68 855  808 856.32  808 858  C 808 859.68  806.68 861  805 861  " fill-rule="nonzero" fill="#797979" stroke="none" />
</svg>