<?xml version="1.0" encoding="utf-8"?>
<svg version="1.1" xmlns:xlink="http://www.w3.org/1999/xlink" width="20px" height="21px" xmlns="http://www.w3.org/2000/svg">
  <g transform="matrix(1 0 0 1 -789 -787 )">
    <path d="M 5.10216346153845 15.8411458333333  C 5.40264423076928 16.1449652777778  5.55288461538453 16.511574074074  5.55288461538453 16.9409722222223  C 5.55288461538453 17.3703703703703  5.40264423076928 17.7369791666666  5.10216346153845 18.0407986111111  C 4.80168269230774 18.3446180555555  4.43910256410254 18.4965277777777  4.01442307692309 18.4965277777777  C 3.59775641025647 18.4965277777777  3.23717948717945 18.3425925925926  2.93269230769226 18.0347222222222  C 2.6282051282052 17.7268518518518  2.47596153846155 17.3622685185185  2.47596153846155 16.9409722222223  C 2.47596153846155 16.511574074074  2.62620192307691 16.1449652777778  2.92668269230774 15.8411458333333  C 3.22716346153845 15.5373263888889  3.58974358974353 15.3854166666666  4.01442307692309 15.3854166666666  C 4.43910256410254 15.3854166666666  4.80168269230774 15.5373263888889  5.10216346153845 15.8411458333333  Z M 11.0877403846155 18.3446180555555  C 11.3882211538462 18.6484375  11.5384615384615 19.0150462962963  11.5384615384615 19.4444444444443  C 11.5384615384615 19.8738425925926  11.3882211538462 20.2404513888889  11.0877403846155 20.5442708333334  C 10.7872596153845 20.8480902777778  10.4246794871794 21  10 21  C 9.57532051282055 21  9.21274038461547 20.8480902777778  8.91225961538453 20.5442708333334  C 8.61177884615381 20.2404513888889  8.46153846153845 19.8738425925926  8.46153846153845 19.4444444444443  C 8.46153846153845 19.0150462962963  8.61177884615381 18.6484375  8.91225961538453 18.3446180555555  C 9.21274038461547 18.0407986111111  9.57532051282055 17.8888888888889  10 17.8888888888889  C 10.4246794871794 17.8888888888889  10.7872596153845 18.0407986111111  11.0877403846155 18.3446180555555  Z M 2.62620192307691 9.7890625  C 2.92668269230774 10.0928819444443  3.07692307692309 10.4594907407408  3.07692307692309 10.8888888888889  C 3.07692307692309 11.318287037037  2.92668269230774 11.6848958333334  2.62620192307691 11.9887152777778  C 2.32572115384619 12.2925347222222  1.96314102564099 12.4444444444445  1.53846153846155 12.4444444444445  C 1.11378205128199 12.4444444444445  0.751201923076906 12.2925347222222  0.450721153846189 11.9887152777778  C 0.150240384615472 11.6848958333334  0 11.318287037037  0 10.8888888888889  C 0 10.4594907407408  0.150240384615472 10.0928819444443  0.450721153846189 9.7890625  C 0.751201923076906 9.48524305555554  1.11378205128199 9.33333333333337  1.53846153846155 9.33333333333337  C 1.96314102564099 9.33333333333337  2.32572115384619 9.48524305555554  2.62620192307691 9.7890625  Z M 17.0733173076923 15.8411458333333  C 17.3737980769231 16.1449652777778  17.5240384615385 16.511574074074  17.5240384615385 16.9409722222223  C 17.5240384615385 17.3622685185185  17.3717948717949 17.7268518518518  17.0673076923077 18.0347222222222  C 16.7628205128206 18.3425925925926  16.4022435897435 18.4965277777777  15.9855769230769 18.4965277777777  C 15.5608974358975 18.4965277777777  15.1983173076923 18.3446180555555  14.8978365384615 18.0407986111111  C 14.5973557692307 17.7369791666666  14.4471153846155 17.3703703703703  14.4471153846155 16.9409722222223  C 14.4471153846155 16.511574074074  14.5973557692307 16.1449652777778  14.8978365384615 15.8411458333333  C 15.1983173076923 15.5373263888889  15.5608974358975 15.3854166666666  15.9855769230769 15.3854166666666  C 16.4102564102565 15.3854166666666  16.7728365384615 15.5373263888889  17.0733173076923 15.8411458333333  Z M 5.37259615384619 3.46354166666663  C 5.74919871794873 3.8443287037037  5.9375 4.30208333333337  5.9375 4.83680555555566  C 5.9375 5.37152777777771  5.74919871794873 5.82928240740739  5.37259615384619 6.21006944444446  C 4.99599358974353 6.59085648148152  4.54326923076928 6.78125  4.01442307692309 6.78125  C 3.48557692307691 6.78125  3.03285256410254 6.59085648148152  2.65625 6.21006944444446  C 2.27964743589746 5.82928240740739  2.09134615384619 5.37152777777771  2.09134615384619 4.83680555555566  C 2.09134615384619 4.30208333333337  2.27964743589746 3.8443287037037  2.65625 3.46354166666663  C 3.03285256410254 3.08275462962968  3.48557692307691 2.89236111111109  4.01442307692309 2.89236111111109  C 4.54326923076928 2.89236111111109  4.99599358974353 3.08275462962968  5.37259615384619 3.46354166666663  Z M 19.5492788461538 9.7890625  C 19.8497596153845 10.0928819444443  20 10.4594907407408  20 10.8888888888889  C 20 11.318287037037  19.8497596153845 11.6848958333334  19.5492788461538 11.9887152777778  C 19.2487980769231 12.2925347222222  18.886217948718 12.4444444444445  18.4615384615385 12.4444444444445  C 18.036858974359 12.4444444444445  17.6742788461538 12.2925347222222  17.3737980769231 11.9887152777778  C 17.0733173076923 11.6848958333334  16.9230769230769 11.318287037037  16.9230769230769 10.8888888888889  C 16.9230769230769 10.4594907407408  17.0733173076923 10.0928819444443  17.3737980769231 9.7890625  C 17.6742788461538 9.48524305555554  18.036858974359 9.33333333333337  18.4615384615385 9.33333333333337  C 18.886217948718 9.33333333333337  19.2487980769231 9.48524305555554  19.5492788461538 9.7890625  Z M 11.6346153846155 0.680555555555543  C 12.0833333333333 1.13425925925924  12.3076923076923 1.68518518518511  12.3076923076923 2.33333333333337  C 12.3076923076923 2.98148148148152  12.0833333333333 3.53240740740739  11.6346153846155 3.98611111111109  C 11.1858974358975 4.43981481481478  10.6410256410256 4.66666666666674  10 4.66666666666674  C 9.35897435897436 4.66666666666674  8.81410256410254 4.43981481481478  8.36538461538453 3.98611111111109  C 7.91666666666674 3.53240740740739  7.69230769230774 2.98148148148152  7.69230769230774 2.33333333333337  C 7.69230769230774 1.68518518518511  7.91666666666674 1.13425925925924  8.36538461538453 0.680555555555543  C 8.81410256410254 0.226851851851848  9.35897435897436 0  10 0  C 10.6410256410256 0  11.1858974358975 0.226851851851848  11.6346153846155 0.680555555555543  Z M 17.8846153846155 2.91666666666663  C 18.4134615384615 3.45138888888891  18.6778846153845 4.09143518518522  18.6778846153845 4.83680555555566  C 18.6778846153845 5.59027777777783  18.4134615384615 6.23234953703695  17.8846153846155 6.76302083333337  C 17.3557692307693 7.29369212962956  16.7227564102565 7.55902777777783  15.9855769230769 7.55902777777783  C 15.2403846153845 7.55902777777783  14.6053685897435 7.29369212962956  14.0805288461538 6.76302083333337  C 13.5556891025641 6.23234953703695  13.2932692307693 5.59027777777783  13.2932692307693 4.83680555555566  C 13.2932692307693 4.09143518518522  13.5556891025641 3.45138888888891  14.0805288461538 2.91666666666663  C 14.6053685897435 2.38194444444434  15.2403846153845 2.11458333333337  15.9855769230769 2.11458333333337  C 16.7227564102565 2.11458333333337  17.3557692307693 2.38194444444434  17.8846153846155 2.91666666666663  Z " fill-rule="nonzero" fill="#333333" stroke="none" transform="matrix(1 0 0 1 789 787 )" />
  </g>
</svg>