<?xml version="1.0" encoding="utf-8"?>
<svg version="1.1" xmlns:xlink="http://www.w3.org/1999/xlink" width="12px" height="12px" viewBox="799 932  12 12" xmlns="http://www.w3.org/2000/svg">
  <path d="M 805 932  C 808.36 932  811 934.64  811 938  C 811 941.36  808.36 944  805 944  C 801.64 944  799 941.36  799 938  C 799 934.64  801.64 932  805 932  Z " fill-rule="nonzero" fill="#ffffff" stroke="none" />
  <path d="M 805 932.5  C 808.08 932.5  810.5 934.92  810.5 938  C 810.5 941.08  808.08 943.5  805 943.5  C 801.92 943.5  799.5 941.08  799.5 938  C 799.5 934.92  801.92 932.5  805 932.5  Z " stroke-width="1" stroke="#797979" fill="none" />
  <path d="M 805 941  C 803.32 941  802 939.68  802 938  C 802 936.32  803.32 935  805 935  C 806.68 935  808 936.32  808 938  C 808 939.68  806.68 941  805 941  " fill-rule="nonzero" fill="#797979" stroke="none" />
</svg>