<?xml version="1.0" encoding="utf-8"?>
<svg version="1.1" xmlns:xlink="http://www.w3.org/1999/xlink" width="12px" height="12px" viewBox="799 2213  12 12" xmlns="http://www.w3.org/2000/svg">
  <path d="M 805 2213  C 808.36 2213  811 2215.64  811 2219  C 811 2222.36  808.36 2225  805 2225  C 801.64 2225  799 2222.36  799 2219  C 799 2215.64  801.64 2213  805 2213  Z " fill-rule="nonzero" fill="#f0f0f0" stroke="none" />
  <path d="M 805 2213.5  C 808.08 2213.5  810.5 2215.92  810.5 2219  C 810.5 2222.08  808.08 2224.5  805 2224.5  C 801.92 2224.5  799.5 2222.08  799.5 2219  C 799.5 2215.92  801.92 2213.5  805 2213.5  Z " stroke-width="1" stroke="#797979" fill="none" />
  <path d="M 805 2222  C 803.32 2222  802 2220.68  802 2219  C 802 2217.32  803.32 2216  805 2216  C 806.68 2216  808 2217.32  808 2219  C 808 2220.68  806.68 2222  805 2222  " fill-rule="nonzero" fill="#797979" stroke="none" />
</svg>