<?xml version="1.0" encoding="utf-8"?>
<svg version="1.1" xmlns:xlink="http://www.w3.org/1999/xlink" width="12px" height="12px" viewBox="799 2160  12 12" xmlns="http://www.w3.org/2000/svg">
  <path d="M 805 2160  C 808.36 2160  811 2162.64  811 2166  C 811 2169.36  808.36 2172  805 2172  C 801.64 2172  799 2169.36  799 2166  C 799 2162.64  801.64 2160  805 2160  Z " fill-rule="nonzero" fill="#f0f0f0" stroke="none" />
  <path d="M 805 2160.5  C 808.08 2160.5  810.5 2162.92  810.5 2166  C 810.5 2169.08  808.08 2171.5  805 2171.5  C 801.92 2171.5  799.5 2169.08  799.5 2166  C 799.5 2162.92  801.92 2160.5  805 2160.5  Z " stroke-width="1" stroke="#797979" fill="none" />
  <path d="M 805 2169  C 803.32 2169  802 2167.68  802 2166  C 802 2164.32  803.32 2163  805 2163  C 806.68 2163  808 2164.32  808 2166  C 808 2167.68  806.68 2169  805 2169  " fill-rule="nonzero" fill="#797979" stroke="none" />
</svg>