<?xml version="1.0" encoding="utf-8"?>
<svg version="1.1" xmlns:xlink="http://www.w3.org/1999/xlink" width="12px" height="12px" viewBox="799 2185  12 12" xmlns="http://www.w3.org/2000/svg">
  <path d="M 805 2185  C 808.36 2185  811 2187.64  811 2191  C 811 2194.36  808.36 2197  805 2197  C 801.64 2197  799 2194.36  799 2191  C 799 2187.64  801.64 2185  805 2185  Z " fill-rule="nonzero" fill="#f0f0f0" stroke="none" />
  <path d="M 805 2185.5  C 808.08 2185.5  810.5 2187.92  810.5 2191  C 810.5 2194.08  808.08 2196.5  805 2196.5  C 801.92 2196.5  799.5 2194.08  799.5 2191  C 799.5 2187.92  801.92 2185.5  805 2185.5  Z " stroke-width="1" stroke="#797979" fill="none" />
  <path d="M 805 2194  C 803.32 2194  802 2192.68  802 2191  C 802 2189.32  803.32 2188  805 2188  C 806.68 2188  808 2189.32  808 2191  C 808 2192.68  806.68 2194  805 2194  " fill-rule="nonzero" fill="#797979" stroke="none" />
</svg>