<?xml version="1.0" encoding="utf-8"?>
<svg version="1.1" xmlns:xlink="http://www.w3.org/1999/xlink" width="12px" height="12px" viewBox="797 202  12 12" xmlns="http://www.w3.org/2000/svg">
  <path d="M 803 202  C 806.36 202  809 204.64  809 208  C 809 211.36  806.36 214  803 214  C 799.64 214  797 211.36  797 208  C 797 204.64  799.64 202  803 202  Z " fill-rule="nonzero" fill="#f0f0f0" stroke="none" />
  <path d="M 803 202.5  C 806.08 202.5  808.5 204.92  808.5 208  C 808.5 211.08  806.08 213.5  803 213.5  C 799.92 213.5  797.5 211.08  797.5 208  C 797.5 204.92  799.92 202.5  803 202.5  Z " stroke-width="1" stroke="#797979" fill="none" />
  <path d="M 803 211  C 801.32 211  800 209.68  800 208  C 800 206.32  801.32 205  803 205  C 804.68 205  806 206.32  806 208  C 806 209.68  804.68 211  803 211  " fill-rule="nonzero" fill="#797979" stroke="none" />
</svg>