<?xml version="1.0" encoding="utf-8"?>
<svg version="1.1" xmlns:xlink="http://www.w3.org/1999/xlink" width="12px" height="12px" viewBox="797 229  12 12" xmlns="http://www.w3.org/2000/svg">
  <path d="M 803 229  C 806.36 229  809 231.64  809 235  C 809 238.36  806.36 241  803 241  C 799.64 241  797 238.36  797 235  C 797 231.64  799.64 229  803 229  Z " fill-rule="nonzero" fill="#ffffff" stroke="none" />
  <path d="M 803 229.5  C 806.08 229.5  808.5 231.92  808.5 235  C 808.5 238.08  806.08 240.5  803 240.5  C 799.92 240.5  797.5 238.08  797.5 235  C 797.5 231.92  799.92 229.5  803 229.5  Z " stroke-width="1" stroke="#797979" fill="none" />
  <path d="M 803 238  C 801.32 238  800 236.68  800 235  C 800 233.32  801.32 232  803 232  C 804.68 232  806 233.32  806 235  C 806 236.68  804.68 238  803 238  " fill-rule="nonzero" fill="#797979" stroke="none" />
</svg>