<?xml version="1.0" encoding="utf-8"?>
<svg version="1.1" xmlns:xlink="http://www.w3.org/1999/xlink" width="12px" height="12px" viewBox="797 310  12 12" xmlns="http://www.w3.org/2000/svg">
  <path d="M 803 310  C 806.36 310  809 312.64  809 316  C 809 319.36  806.36 322  803 322  C 799.64 322  797 319.36  797 316  C 797 312.64  799.64 310  803 310  Z " fill-rule="nonzero" fill="#ffffff" stroke="none" />
  <path d="M 803 310.5  C 806.08 310.5  808.5 312.92  808.5 316  C 808.5 319.08  806.08 321.5  803 321.5  C 799.92 321.5  797.5 319.08  797.5 316  C 797.5 312.92  799.92 310.5  803 310.5  Z " stroke-width="1" stroke="#797979" fill="none" />
  <path d="M 803 319  C 801.32 319  800 317.68  800 316  C 800 314.32  801.32 313  803 313  C 804.68 313  806 314.32  806 316  C 806 317.68  804.68 319  803 319  " fill-rule="nonzero" fill="#797979" stroke="none" />
</svg>