<?xml version="1.0" encoding="utf-8"?>
<svg version="1.1" xmlns:xlink="http://www.w3.org/1999/xlink" width="12px" height="12px" viewBox="797 146  12 12" xmlns="http://www.w3.org/2000/svg">
  <path d="M 803 146  C 806.36 146  809 148.64  809 152  C 809 155.36  806.36 158  803 158  C 799.64 158  797 155.36  797 152  C 797 148.64  799.64 146  803 146  Z " fill-rule="nonzero" fill="#ffffff" stroke="none" />
  <path d="M 803 146.5  C 806.08 146.5  808.5 148.92  808.5 152  C 808.5 155.08  806.08 157.5  803 157.5  C 799.92 157.5  797.5 155.08  797.5 152  C 797.5 148.92  799.92 146.5  803 146.5  Z " stroke-width="1" stroke="#797979" fill="none" />
  <path d="M 803 155  C 801.32 155  800 153.68  800 152  C 800 150.32  801.32 149  803 149  C 804.68 149  806 150.32  806 152  C 806 153.68  804.68 155  803 155  " fill-rule="nonzero" fill="#797979" stroke="none" />
</svg>