<?xml version="1.0" encoding="utf-8"?>
<svg version="1.1" xmlns:xlink="http://www.w3.org/1999/xlink" width="12px" height="12px" viewBox="797 173  12 12" xmlns="http://www.w3.org/2000/svg">
  <path d="M 803 173  C 806.36 173  809 175.64  809 179  C 809 182.36  806.36 185  803 185  C 799.64 185  797 182.36  797 179  C 797 175.64  799.64 173  803 173  Z " fill-rule="nonzero" fill="#f0f0f0" stroke="none" />
  <path d="M 803 173.5  C 806.08 173.5  808.5 175.92  808.5 179  C 808.5 182.08  806.08 184.5  803 184.5  C 799.92 184.5  797.5 182.08  797.5 179  C 797.5 175.92  799.92 173.5  803 173.5  Z " stroke-width="1" stroke="#797979" fill="none" />
  <path d="M 803 182  C 801.32 182  800 180.68  800 179  C 800 177.32  801.32 176  803 176  C 804.68 176  806 177.32  806 179  C 806 180.68  804.68 182  803 182  " fill-rule="nonzero" fill="#797979" stroke="none" />
</svg>