<?xml version="1.0" encoding="utf-8"?>
<svg version="1.1" xmlns:xlink="http://www.w3.org/1999/xlink" width="12px" height="12px" viewBox="797 1614  12 12" xmlns="http://www.w3.org/2000/svg">
  <path d="M 803 1614  C 806.36 1614  809 1616.64  809 1620  C 809 1623.36  806.36 1626  803 1626  C 799.64 1626  797 1623.36  797 1620  C 797 1616.64  799.64 1614  803 1614  Z " fill-rule="nonzero" fill="#f0f0f0" stroke="none" />
  <path d="M 803 1614.5  C 806.08 1614.5  808.5 1616.92  808.5 1620  C 808.5 1623.08  806.08 1625.5  803 1625.5  C 799.92 1625.5  797.5 1623.08  797.5 1620  C 797.5 1616.92  799.92 1614.5  803 1614.5  Z " stroke-width="1" stroke="#797979" fill="none" />
  <path d="M 803 1623  C 801.32 1623  800 1621.68  800 1620  C 800 1618.32  801.32 1617  803 1617  C 804.68 1617  806 1618.32  806 1620  C 806 1621.68  804.68 1623  803 1623  " fill-rule="nonzero" fill="#797979" stroke="none" />
</svg>