<?xml version="1.0" encoding="utf-8"?>
<svg version="1.1" xmlns:xlink="http://www.w3.org/1999/xlink" width="12px" height="12px" viewBox="797 1449  12 12" xmlns="http://www.w3.org/2000/svg">
  <path d="M 803 1449  C 806.36 1449  809 1451.64  809 1455  C 809 1458.36  806.36 1461  803 1461  C 799.64 1461  797 1458.36  797 1455  C 797 1451.64  799.64 1449  803 1449  Z " fill-rule="nonzero" fill="#ffffff" stroke="none" />
  <path d="M 803 1449.5  C 806.08 1449.5  808.5 1451.92  808.5 1455  C 808.5 1458.08  806.08 1460.5  803 1460.5  C 799.92 1460.5  797.5 1458.08  797.5 1455  C 797.5 1451.92  799.92 1449.5  803 1449.5  Z " stroke-width="1" stroke="#797979" fill="none" />
  <path d="M 803 1458  C 801.32 1458  800 1456.68  800 1455  C 800 1453.32  801.32 1452  803 1452  C 804.68 1452  806 1453.32  806 1455  C 806 1456.68  804.68 1458  803 1458  " fill-rule="nonzero" fill="#797979" stroke="none" />
</svg>