<?xml version="1.0" encoding="utf-8"?>
<svg version="1.1" xmlns:xlink="http://www.w3.org/1999/xlink" width="12px" height="12px" viewBox="797 1643  12 12" xmlns="http://www.w3.org/2000/svg">
  <path d="M 803 1643  C 806.36 1643  809 1645.64  809 1649  C 809 1652.36  806.36 1655  803 1655  C 799.64 1655  797 1652.36  797 1649  C 797 1645.64  799.64 1643  803 1643  Z " fill-rule="nonzero" fill="#f0f0f0" stroke="none" />
  <path d="M 803 1643.5  C 806.08 1643.5  808.5 1645.92  808.5 1649  C 808.5 1652.08  806.08 1654.5  803 1654.5  C 799.92 1654.5  797.5 1652.08  797.5 1649  C 797.5 1645.92  799.92 1643.5  803 1643.5  Z " stroke-width="1" stroke="#797979" fill="none" />
  <path d="M 803 1652  C 801.32 1652  800 1650.68  800 1649  C 800 1647.32  801.32 1646  803 1646  C 804.68 1646  806 1647.32  806 1649  C 806 1650.68  804.68 1652  803 1652  " fill-rule="nonzero" fill="#797979" stroke="none" />
</svg>