<?xml version="1.0" encoding="utf-8"?>
<svg version="1.1" xmlns:xlink="http://www.w3.org/1999/xlink" width="12px" height="12px" viewBox="797 1505  12 12" xmlns="http://www.w3.org/2000/svg">
  <path d="M 803 1505  C 806.36 1505  809 1507.64  809 1511  C 809 1514.36  806.36 1517  803 1517  C 799.64 1517  797 1514.36  797 1511  C 797 1507.64  799.64 1505  803 1505  Z " fill-rule="nonzero" fill="#f0f0f0" stroke="none" />
  <path d="M 803 1505.5  C 806.08 1505.5  808.5 1507.92  808.5 1511  C 808.5 1514.08  806.08 1516.5  803 1516.5  C 799.92 1516.5  797.5 1514.08  797.5 1511  C 797.5 1507.92  799.92 1505.5  803 1505.5  Z " stroke-width="1" stroke="#797979" fill="none" />
  <path d="M 803 1514  C 801.32 1514  800 1512.68  800 1511  C 800 1509.32  801.32 1508  803 1508  C 804.68 1508  806 1509.32  806 1511  C 806 1512.68  804.68 1514  803 1514  " fill-rule="nonzero" fill="#797979" stroke="none" />
</svg>