<?xml version="1.0" encoding="utf-8"?>
<svg version="1.1" xmlns:xlink="http://www.w3.org/1999/xlink" width="12px" height="12px" viewBox="797 1422  12 12" xmlns="http://www.w3.org/2000/svg">
  <path d="M 803 1422  C 806.36 1422  809 1424.64  809 1428  C 809 1431.36  806.36 1434  803 1434  C 799.64 1434  797 1431.36  797 1428  C 797 1424.64  799.64 1422  803 1422  Z " fill-rule="nonzero" fill="#f0f0f0" stroke="none" />
  <path d="M 803 1422.5  C 806.08 1422.5  808.5 1424.92  808.5 1428  C 808.5 1431.08  806.08 1433.5  803 1433.5  C 799.92 1433.5  797.5 1431.08  797.5 1428  C 797.5 1424.92  799.92 1422.5  803 1422.5  Z " stroke-width="1" stroke="#797979" fill="none" />
  <path d="M 803 1431  C 801.32 1431  800 1429.68  800 1428  C 800 1426.32  801.32 1425  803 1425  C 804.68 1425  806 1426.32  806 1428  C 806 1429.68  804.68 1431  803 1431  " fill-rule="nonzero" fill="#797979" stroke="none" />
</svg>