<?xml version="1.0" encoding="utf-8"?>
<svg version="1.1" xmlns:xlink="http://www.w3.org/1999/xlink" width="12px" height="12px" viewBox="799 8266  12 12" xmlns="http://www.w3.org/2000/svg">
  <path d="M 805 8266  C 808.36 8266  811 8268.64  811 8272  C 811 8275.36  808.36 8278  805 8278  C 801.64 8278  799 8275.36  799 8272  C 799 8268.64  801.64 8266  805 8266  Z " fill-rule="nonzero" fill="#f0f0f0" stroke="none" />
  <path d="M 805 8266.5  C 808.08 8266.5  810.5 8268.92  810.5 8272  C 810.5 8275.08  808.08 8277.5  805 8277.5  C 801.92 8277.5  799.5 8275.08  799.5 8272  C 799.5 8268.92  801.92 8266.5  805 8266.5  Z " stroke-width="1" stroke="#797979" fill="none" />
  <path d="M 805 8275  C 803.32 8275  802 8273.68  802 8272  C 802 8270.32  803.32 8269  805 8269  C 806.68 8269  808 8270.32  808 8272  C 808 8273.68  806.68 8275  805 8275  " fill-rule="nonzero" fill="#797979" stroke="none" />
</svg>