<?xml version="1.0" encoding="utf-8"?>
<svg version="1.1" xmlns:xlink="http://www.w3.org/1999/xlink" width="12px" height="12px" viewBox="799 8182  12 12" xmlns="http://www.w3.org/2000/svg">
  <path d="M 805 8182  C 808.36 8182  811 8184.64  811 8188  C 811 8191.36  808.36 8194  805 8194  C 801.64 8194  799 8191.36  799 8188  C 799 8184.64  801.64 8182  805 8182  Z " fill-rule="nonzero" fill="#ffffff" stroke="none" />
  <path d="M 805 8182.5  C 808.08 8182.5  810.5 8184.92  810.5 8188  C 810.5 8191.08  808.08 8193.5  805 8193.5  C 801.92 8193.5  799.5 8191.08  799.5 8188  C 799.5 8184.92  801.92 8182.5  805 8182.5  Z " stroke-width="1" stroke="#797979" fill="none" />
  <path d="M 805 8191  C 803.32 8191  802 8189.68  802 8188  C 802 8186.32  803.32 8185  805 8185  C 806.68 8185  808 8186.32  808 8188  C 808 8189.68  806.68 8191  805 8191  " fill-rule="nonzero" fill="#797979" stroke="none" />
</svg>