<?xml version="1.0" encoding="utf-8"?>
<svg version="1.1" xmlns:xlink="http://www.w3.org/1999/xlink" width="12px" height="12px" viewBox="799 8062  12 12" xmlns="http://www.w3.org/2000/svg">
  <path d="M 805 8062  C 808.36 8062  811 8064.64  811 8068  C 811 8071.36  808.36 8074  805 8074  C 801.64 8074  799 8071.36  799 8068  C 799 8064.64  801.64 8062  805 8062  Z " fill-rule="nonzero" fill="#ffffff" stroke="none" />
  <path d="M 805 8062.5  C 808.08 8062.5  810.5 8064.92  810.5 8068  C 810.5 8071.08  808.08 8073.5  805 8073.5  C 801.92 8073.5  799.5 8071.08  799.5 8068  C 799.5 8064.92  801.92 8062.5  805 8062.5  Z " stroke-width="1" stroke="#797979" fill="none" />
  <path d="M 805 8071  C 803.32 8071  802 8069.68  802 8068  C 802 8066.32  803.32 8065  805 8065  C 806.68 8065  808 8066.32  808 8068  C 808 8069.68  806.68 8071  805 8071  " fill-rule="nonzero" fill="#797979" stroke="none" />
</svg>