<?xml version="1.0" encoding="utf-8"?>
<svg version="1.1" xmlns:xlink="http://www.w3.org/1999/xlink" width="12px" height="12px" viewBox="799 8037  12 12" xmlns="http://www.w3.org/2000/svg">
  <path d="M 805 8037  C 808.36 8037  811 8039.64  811 8043  C 811 8046.36  808.36 8049  805 8049  C 801.64 8049  799 8046.36  799 8043  C 799 8039.64  801.64 8037  805 8037  Z " fill-rule="nonzero" fill="#f0f0f0" stroke="none" />
  <path d="M 805 8037.5  C 808.08 8037.5  810.5 8039.92  810.5 8043  C 810.5 8046.08  808.08 8048.5  805 8048.5  C 801.92 8048.5  799.5 8046.08  799.5 8043  C 799.5 8039.92  801.92 8037.5  805 8037.5  Z " stroke-width="1" stroke="#797979" fill="none" />
  <path d="M 805 8046  C 803.32 8046  802 8044.68  802 8043  C 802 8041.32  803.32 8040  805 8040  C 806.68 8040  808 8041.32  808 8043  C 808 8044.68  806.68 8046  805 8046  " fill-rule="nonzero" fill="#797979" stroke="none" />
</svg>