<?xml version="1.0" encoding="utf-8"?>
<svg version="1.1" xmlns:xlink="http://www.w3.org/1999/xlink" width="12px" height="12px" viewBox="799 8154  12 12" xmlns="http://www.w3.org/2000/svg">
  <path d="M 805 8154  C 808.36 8154  811 8156.64  811 8160  C 811 8163.36  808.36 8166  805 8166  C 801.64 8166  799 8163.36  799 8160  C 799 8156.64  801.64 8154  805 8154  Z " fill-rule="nonzero" fill="#f0f0f0" stroke="none" />
  <path d="M 805 8154.5  C 808.08 8154.5  810.5 8156.92  810.5 8160  C 810.5 8163.08  808.08 8165.5  805 8165.5  C 801.92 8165.5  799.5 8163.08  799.5 8160  C 799.5 8156.92  801.92 8154.5  805 8154.5  Z " stroke-width="1" stroke="#797979" fill="none" />
  <path d="M 805 8163  C 803.32 8163  802 8161.68  802 8160  C 802 8158.32  803.32 8157  805 8157  C 806.68 8157  808 8158.32  808 8160  C 808 8161.68  806.68 8163  805 8163  " fill-rule="nonzero" fill="#797979" stroke="none" />
</svg>