<?xml version="1.0" encoding="utf-8"?>
<svg version="1.1" xmlns:xlink="http://www.w3.org/1999/xlink" width="12px" height="12px" viewBox="799 8126  12 12" xmlns="http://www.w3.org/2000/svg">
  <path d="M 805 8126  C 808.36 8126  811 8128.64  811 8132  C 811 8135.36  808.36 8138  805 8138  C 801.64 8138  799 8135.36  799 8132  C 799 8128.64  801.64 8126  805 8126  Z " fill-rule="nonzero" fill="#f0f0f0" stroke="none" />
  <path d="M 805 8126.5  C 808.08 8126.5  810.5 8128.92  810.5 8132  C 810.5 8135.08  808.08 8137.5  805 8137.5  C 801.92 8137.5  799.5 8135.08  799.5 8132  C 799.5 8128.92  801.92 8126.5  805 8126.5  Z " stroke-width="1" stroke="#797979" fill="none" />
  <path d="M 805 8135  C 803.32 8135  802 8133.68  802 8132  C 802 8130.32  803.32 8129  805 8129  C 806.68 8129  808 8130.32  808 8132  C 808 8133.68  806.68 8135  805 8135  " fill-rule="nonzero" fill="#797979" stroke="none" />
</svg>