<?xml version="1.0" encoding="utf-8"?>
<svg version="1.1" xmlns:xlink="http://www.w3.org/1999/xlink" width="12px" height="12px" viewBox="796 359  12 12" xmlns="http://www.w3.org/2000/svg">
  <path d="M 802 359  C 805.36 359  808 361.64  808 365  C 808 368.36  805.36 371  802 371  C 798.64 371  796 368.36  796 365  C 796 361.64  798.64 359  802 359  Z " fill-rule="nonzero" fill="#ffffff" stroke="none" />
  <path d="M 802 359.5  C 805.08 359.5  807.5 361.92  807.5 365  C 807.5 368.08  805.08 370.5  802 370.5  C 798.92 370.5  796.5 368.08  796.5 365  C 796.5 361.92  798.92 359.5  802 359.5  Z " stroke-width="1" stroke="#797979" fill="none" />
  <path d="M 802 368  C 800.32 368  799 366.68  799 365  C 799 363.32  800.32 362  802 362  C 803.68 362  805 363.32  805 365  C 805 366.68  803.68 368  802 368  " fill-rule="nonzero" fill="#797979" stroke="none" />
</svg>