<?xml version="1.0" encoding="utf-8"?>
<svg version="1.1" xmlns:xlink="http://www.w3.org/1999/xlink" width="12px" height="12px" viewBox="796 411  12 12" xmlns="http://www.w3.org/2000/svg">
  <path d="M 802 411  C 805.36 411  808 413.64  808 417  C 808 420.36  805.36 423  802 423  C 798.64 423  796 420.36  796 417  C 796 413.64  798.64 411  802 411  Z " fill-rule="nonzero" fill="#f0f0f0" stroke="none" />
  <path d="M 802 411.5  C 805.08 411.5  807.5 413.92  807.5 417  C 807.5 420.08  805.08 422.5  802 422.5  C 798.92 422.5  796.5 420.08  796.5 417  C 796.5 413.92  798.92 411.5  802 411.5  Z " stroke-width="1" stroke="#797979" fill="none" />
  <path d="M 802 420  C 800.32 420  799 418.68  799 417  C 799 415.32  800.32 414  802 414  C 803.68 414  805 415.32  805 417  C 805 418.68  803.68 420  802 420  " fill-rule="nonzero" fill="#797979" stroke="none" />
</svg>