<?xml version="1.0" encoding="utf-8"?>
<svg version="1.1" xmlns:xlink="http://www.w3.org/1999/xlink" width="12px" height="12px" viewBox="796 471  12 12" xmlns="http://www.w3.org/2000/svg">
  <path d="M 802 471  C 805.36 471  808 473.64  808 477  C 808 480.36  805.36 483  802 483  C 798.64 483  796 480.36  796 477  C 796 473.64  798.64 471  802 471  Z " fill-rule="nonzero" fill="#ffffff" stroke="none" />
  <path d="M 802 471.5  C 805.08 471.5  807.5 473.92  807.5 477  C 807.5 480.08  805.08 482.5  802 482.5  C 798.92 482.5  796.5 480.08  796.5 477  C 796.5 473.92  798.92 471.5  802 471.5  Z " stroke-width="1" stroke="#797979" fill="none" />
  <path d="M 802 480  C 800.32 480  799 478.68  799 477  C 799 475.32  800.32 474  802 474  C 803.68 474  805 475.32  805 477  C 805 478.68  803.68 480  802 480  " fill-rule="nonzero" fill="#797979" stroke="none" />
</svg>