<?xml version="1.0" encoding="utf-8"?>
<svg version="1.1" xmlns:xlink="http://www.w3.org/1999/xlink" width="12px" height="12px" viewBox="797 199  12 12" xmlns="http://www.w3.org/2000/svg">
  <path d="M 803 199  C 806.36 199  809 201.64  809 205  C 809 208.36  806.36 211  803 211  C 799.64 211  797 208.36  797 205  C 797 201.64  799.64 199  803 199  Z " fill-rule="nonzero" fill="#f0f0f0" stroke="none" />
  <path d="M 803 199.5  C 806.08 199.5  808.5 201.92  808.5 205  C 808.5 208.08  806.08 210.5  803 210.5  C 799.92 210.5  797.5 208.08  797.5 205  C 797.5 201.92  799.92 199.5  803 199.5  Z " stroke-width="1" stroke="#797979" fill="none" />
  <path d="M 803 208  C 801.32 208  800 206.68  800 205  C 800 203.32  801.32 202  803 202  C 804.68 202  806 203.32  806 205  C 806 206.68  804.68 208  803 208  " fill-rule="nonzero" fill="#797979" stroke="none" />
</svg>