<?xml version="1.0" encoding="utf-8"?>
<svg version="1.1" xmlns:xlink="http://www.w3.org/1999/xlink" width="12px" height="12px" viewBox="797 335  12 12" xmlns="http://www.w3.org/2000/svg">
  <path d="M 803 335  C 806.36 335  809 337.64  809 341  C 809 344.36  806.36 347  803 347  C 799.64 347  797 344.36  797 341  C 797 337.64  799.64 335  803 335  Z " fill-rule="nonzero" fill="#f0f0f0" stroke="none" />
  <path d="M 803 335.5  C 806.08 335.5  808.5 337.92  808.5 341  C 808.5 344.08  806.08 346.5  803 346.5  C 799.92 346.5  797.5 344.08  797.5 341  C 797.5 337.92  799.92 335.5  803 335.5  Z " stroke-width="1" stroke="#797979" fill="none" />
  <path d="M 803 344  C 801.32 344  800 342.68  800 341  C 800 339.32  801.32 338  803 338  C 804.68 338  806 339.32  806 341  C 806 342.68  804.68 344  803 344  " fill-rule="nonzero" fill="#797979" stroke="none" />
</svg>