<?xml version="1.0" encoding="utf-8"?>
<svg version="1.1" xmlns:xlink="http://www.w3.org/1999/xlink" width="12px" height="12px" viewBox="797 280  12 12" xmlns="http://www.w3.org/2000/svg">
  <path d="M 803 280  C 806.36 280  809 282.64  809 286  C 809 289.36  806.36 292  803 292  C 799.64 292  797 289.36  797 286  C 797 282.64  799.64 280  803 280  Z " fill-rule="nonzero" fill="#ffffff" stroke="none" />
  <path d="M 803 280.5  C 806.08 280.5  808.5 282.92  808.5 286  C 808.5 289.08  806.08 291.5  803 291.5  C 799.92 291.5  797.5 289.08  797.5 286  C 797.5 282.92  799.92 280.5  803 280.5  Z " stroke-width="1" stroke="#797979" fill="none" />
  <path d="M 803 289  C 801.32 289  800 287.68  800 286  C 800 284.32  801.32 283  803 283  C 804.68 283  806 284.32  806 286  C 806 287.68  804.68 289  803 289  " fill-rule="nonzero" fill="#797979" stroke="none" />
</svg>