<?xml version="1.0" encoding="utf-8"?>
<svg version="1.1" xmlns:xlink="http://www.w3.org/1999/xlink" width="12px" height="12px" viewBox="797 143  12 12" xmlns="http://www.w3.org/2000/svg">
  <path d="M 803 143  C 806.36 143  809 145.64  809 149  C 809 152.36  806.36 155  803 155  C 799.64 155  797 152.36  797 149  C 797 145.64  799.64 143  803 143  Z " fill-rule="nonzero" fill="#ffffff" stroke="none" />
  <path d="M 803 143.5  C 806.08 143.5  808.5 145.92  808.5 149  C 808.5 152.08  806.08 154.5  803 154.5  C 799.92 154.5  797.5 152.08  797.5 149  C 797.5 145.92  799.92 143.5  803 143.5  Z " stroke-width="1" stroke="#797979" fill="none" />
  <path d="M 803 152  C 801.32 152  800 150.68  800 149  C 800 147.32  801.32 146  803 146  C 804.68 146  806 147.32  806 149  C 806 150.68  804.68 152  803 152  " fill-rule="nonzero" fill="#797979" stroke="none" />
</svg>