<?xml version="1.0" encoding="utf-8"?>
<svg version="1.1" xmlns:xlink="http://www.w3.org/1999/xlink" width="12px" height="12px" viewBox="797 308  12 12" xmlns="http://www.w3.org/2000/svg">
  <path d="M 803 308  C 806.36 308  809 310.64  809 314  C 809 317.36  806.36 320  803 320  C 799.64 320  797 317.36  797 314  C 797 310.64  799.64 308  803 308  Z " fill-rule="nonzero" fill="#f0f0f0" stroke="none" />
  <path d="M 803 308.5  C 806.08 308.5  808.5 310.92  808.5 314  C 808.5 317.08  806.08 319.5  803 319.5  C 799.92 319.5  797.5 317.08  797.5 314  C 797.5 310.92  799.92 308.5  803 308.5  Z " stroke-width="1" stroke="#797979" fill="none" />
  <path d="M 803 317  C 801.32 317  800 315.68  800 314  C 800 312.32  801.32 311  803 311  C 804.68 311  806 312.32  806 314  C 806 315.68  804.68 317  803 317  " fill-rule="nonzero" fill="#797979" stroke="none" />
</svg>