<?xml version="1.0" encoding="utf-8"?>
<svg version="1.1" xmlns:xlink="http://www.w3.org/1999/xlink" width="14px" height="15px" xmlns="http://www.w3.org/2000/svg">
  <g transform="matrix(1 0 0 1 -786 -915 )">
    <path d="M 3.57151442307691 11.3151041666666  C 3.78185096153845 11.5321180555555  3.88701923076928 11.7939814814815  3.88701923076928 12.1006944444445  C 3.88701923076928 12.4074074074074  3.78185096153845 12.6692708333334  3.57151442307691 12.8862847222222  C 3.36117788461536 13.1032986111111  3.10737179487182 13.2118055555555  2.81009615384619 13.2118055555555  C 2.51842948717945 13.2118055555555  2.26602564102564 13.1018518518518  2.05288461538464 12.8819444444445  C 1.83974358974353 12.6620370370371  1.73317307692309 12.4016203703703  1.73317307692309 12.1006944444445  C 1.73317307692309 11.7939814814815  1.83834134615381 11.5321180555555  2.04867788461536 11.3151041666666  C 2.25901442307691 11.0980902777778  2.51282051282055 10.9895833333334  2.81009615384619 10.9895833333334  C 3.10737179487182 10.9895833333334  3.36117788461536 11.0980902777778  3.57151442307691 11.3151041666666  Z M 7.76141826923072 13.1032986111111  C 7.97175480769226 13.3203125  8.07692307692309 13.582175925926  8.07692307692309 13.8888888888889  C 8.07692307692309 14.1956018518518  7.97175480769226 14.4574652777778  7.76141826923072 14.6744791666666  C 7.55108173076928 14.8914930555555  7.29727564102563 15  7 15  C 6.70272435897436 15  6.44891826923072 14.8914930555555  6.23858173076928 14.6744791666666  C 6.02824519230774 14.4574652777778  5.92307692307691 14.1956018518518  5.92307692307691 13.8888888888889  C 5.92307692307691 13.582175925926  6.02824519230774 13.3203125  6.23858173076928 13.1032986111111  C 6.44891826923072 12.8862847222222  6.70272435897436 12.7777777777778  7 12.7777777777778  C 7.29727564102563 12.7777777777778  7.55108173076928 12.8862847222222  7.76141826923072 13.1032986111111  Z M 1.83834134615381 6.9921875  C 2.04867788461536 7.20920138888891  2.15384615384619 7.47106481481478  2.15384615384619 7.77777777777783  C 2.15384615384619 8.08449074074076  2.04867788461536 8.34635416666663  1.83834134615381 8.56336805555554  C 1.62800480769226 8.78038194444446  1.37419871794873 8.88888888888891  1.07692307692309 8.88888888888891  C 0.779647435897459 8.88888888888891  0.525841346153811 8.78038194444446  0.315504807692264 8.56336805555554  C 0.105168269230717 8.34635416666663  0 8.08449074074076  0 7.77777777777783  C 0 7.47106481481478  0.105168269230717 7.20920138888891  0.315504807692264 6.9921875  C 0.525841346153811 6.77517361111109  0.779647435897459 6.66666666666663  1.07692307692309 6.66666666666663  C 1.37419871794873 6.66666666666663  1.62800480769226 6.77517361111109  1.83834134615381 6.9921875  Z M 11.9513221153846 11.3151041666666  C 12.1616586538462 11.5321180555555  12.2668269230769 11.7939814814815  12.2668269230769 12.1006944444445  C 12.2668269230769 12.4016203703703  12.1602564102565 12.6620370370371  11.9471153846154 12.8819444444445  C 11.7339743589744 13.1018518518518  11.4815705128206 13.2118055555555  11.1899038461538 13.2118055555555  C 10.8926282051282 13.2118055555555  10.6388221153846 13.1032986111111  10.4284855769231 12.8862847222222  C 10.2181490384615 12.6692708333334  10.1129807692307 12.4074074074074  10.1129807692307 12.1006944444445  C 10.1129807692307 11.7939814814815  10.2181490384615 11.5321180555555  10.4284855769231 11.3151041666666  C 10.6388221153846 11.0980902777778  10.8926282051282 10.9895833333334  11.1899038461538 10.9895833333334  C 11.4871794871794 10.9895833333334  11.7409855769231 11.0980902777778  11.9513221153846 11.3151041666666  Z M 3.76081730769226 2.47395833333337  C 4.02443910256409 2.74594907407402  4.15625 3.07291666666663  4.15625 3.45486111111109  C 4.15625 3.83680555555554  4.02443910256409 4.16377314814815  3.76081730769226 4.43576388888891  C 3.49719551282055 4.70775462962968  3.18028846153845 4.84375  2.81009615384619 4.84375  C 2.43990384615381 4.84375  2.12299679487182 4.70775462962968  1.859375 4.43576388888891  C 1.59575320512818 4.16377314814815  1.46394230769226 3.83680555555554  1.46394230769226 3.45486111111109  C 1.46394230769226 3.07291666666663  1.59575320512818 2.74594907407402  1.859375 2.47395833333337  C 2.12299679487182 2.20196759259261  2.43990384615381 2.06597222222217  2.81009615384619 2.06597222222217  C 3.18028846153845 2.06597222222217  3.49719551282055 2.20196759259261  3.76081730769226 2.47395833333337  Z M 13.6844951923077 6.9921875  C 13.8948317307693 7.20920138888891  14 7.47106481481478  14 7.77777777777783  C 14 8.08449074074076  13.8948317307693 8.34635416666663  13.6844951923077 8.56336805555554  C 13.4741586538462 8.78038194444446  13.2203525641025 8.88888888888891  12.9230769230769 8.88888888888891  C 12.6258012820513 8.88888888888891  12.3719951923077 8.78038194444446  12.1616586538462 8.56336805555554  C 11.9513221153846 8.34635416666663  11.8461538461538 8.08449074074076  11.8461538461538 7.77777777777783  C 11.8461538461538 7.47106481481478  11.9513221153846 7.20920138888891  12.1616586538462 6.9921875  C 12.3719951923077 6.77517361111109  12.6258012820513 6.66666666666663  12.9230769230769 6.66666666666663  C 13.2203525641025 6.66666666666663  13.4741586538462 6.77517361111109  13.6844951923077 6.9921875  Z M 8.14423076923072 0.486111111111086  C 8.45833333333337 0.810185185185219  8.61538461538464 1.2037037037037  8.61538461538464 1.66666666666663  C 8.61538461538464 2.12962962962968  8.45833333333337 2.52314814814815  8.14423076923072 2.84722222222217  C 7.83012820512818 3.1712962962963  7.4487179487179 3.33333333333337  7 3.33333333333337  C 6.5512820512821 3.33333333333337  6.16987179487182 3.1712962962963  5.85576923076928 2.84722222222217  C 5.54166666666663 2.52314814814815  5.38461538461536 2.12962962962968  5.38461538461536 1.66666666666663  C 5.38461538461536 1.2037037037037  5.54166666666663 0.810185185185219  5.85576923076928 0.486111111111086  C 6.16987179487182 0.162037037037067  6.5512820512821 0  7 0  C 7.4487179487179 0  7.83012820512818 0.162037037037067  8.14423076923072 0.486111111111086  Z M 12.5192307692307 2.08333333333337  C 12.8894230769231 2.46527777777783  13.0745192307693 2.9224537037037  13.0745192307693 3.45486111111109  C 13.0745192307693 3.99305555555554  12.8894230769231 4.45167824074076  12.5192307692307 4.83072916666663  C 12.1490384615385 5.20978009259261  11.7059294871794 5.39930555555554  11.1899038461538 5.39930555555554  C 10.6682692307693 5.39930555555554  10.2237580128206 5.20978009259261  9.85637019230774 4.83072916666663  C 9.48898237179492 4.45167824074076  9.30528846153845 3.99305555555554  9.30528846153845 3.45486111111109  C 9.30528846153845 2.9224537037037  9.48898237179492 2.46527777777783  9.85637019230774 2.08333333333337  C 10.2237580128206 1.70138888888891  10.6682692307693 1.51041666666663  11.1899038461538 1.51041666666663  C 11.7059294871794 1.51041666666663  12.1490384615385 1.70138888888891  12.5192307692307 2.08333333333337  Z " fill-rule="nonzero" fill="#333333" stroke="none" transform="matrix(1 0 0 1 786 915 )" />
  </g>
</svg>