<?xml version="1.0" encoding="utf-8"?>
<svg version="1.1" xmlns:xlink="http://www.w3.org/1999/xlink" width="16px" height="11px" xmlns="http://www.w3.org/2000/svg">
  <g transform="matrix(1 0 0 1 -19 -9 )">
    <path d="M 12.5333333333333 8.79999999999999  L 3.46666666666667 8.79999999999999  C 3.09999999999999 8.79999999999999  2.78611111111111 8.66536458333332  2.52500000000001 8.39609375000002  C 2.26388888888888 8.12682291666668  2.13333333333334 7.80312499999998  2.13333333333334 7.42499999999999  L 2.13333333333334 1.375  C 2.13333333333334 0.996875000000005  2.26388888888888 0.67317708333332  2.52500000000001 0.403906250000023  C 2.78611111111111 0.134635416666675  3.09999999999999 0  3.46666666666667 0  L 12.5333333333333 0  C 12.9 0  13.2138888888889 0.134635416666675  13.475 0.403906250000023  C 13.7361111111111 0.67317708333332  13.8666666666667 0.996875000000005  13.8666666666667 1.375  L 13.8666666666667 7.42499999999999  C 13.8666666666667 7.80312499999998  13.7361111111111 8.12682291666668  13.475 8.39609375000002  C 13.2138888888889 8.66536458333332  12.9 8.79999999999999  12.5333333333333 8.79999999999999  Z M 3.27916666666667 1.181640625  C 3.22638888888889 1.23606770833335  3.19999999999999 1.30052083333335  3.19999999999999 1.375  L 3.19999999999999 7.42499999999999  C 3.19999999999999 7.49947916666665  3.22638888888889 7.56393229166665  3.27916666666667 7.61835937499999  C 3.33194444444444 7.67278645833334  3.39444444444444 7.70000000000001  3.46666666666667 7.70000000000001  L 12.5333333333333 7.70000000000001  C 12.6055555555556 7.70000000000001  12.6680555555556 7.67278645833334  12.7208333333333 7.61835937499999  C 12.7736111111111 7.56393229166665  12.8 7.49947916666665  12.8 7.42499999999999  L 12.8 1.375  C 12.8 1.30052083333335  12.7736111111111 1.23606770833335  12.7208333333333 1.181640625  C 12.6680555555556 1.12721354166665  12.6055555555556 1.09999999999998  12.5333333333333 1.09999999999998  L 3.46666666666667 1.09999999999998  C 3.39444444444444 1.09999999999998  3.33194444444444 1.12721354166665  3.27916666666667 1.181640625  Z M 1.33333333333333 9.34999999999998  L 14.6666666666667 9.34999999999998  L 16 9.34999999999998  L 16 10.175  C 16 10.4041666666667  15.8694444444444 10.5989583333333  15.6083333333333 10.759375  C 15.3472222222222 10.9197916666667  15.0333333333333 11  14.6666666666667 11  L 1.33333333333333 11  C 0.966666666666675 11  0.652777777777786 10.9197916666667  0.391666666666663 10.759375  C 0.130555555555562 10.5989583333333  0 10.4041666666667  0 10.175  L 0 9.34999999999998  L 1.33333333333333 9.34999999999998  Z M 7.33333333333333 10.175  L 8.66666666666667 10.175  C 8.75555555555556 10.175  8.80000000000001 10.1291666666667  8.80000000000001 10.0375  C 8.80000000000001 9.94583333333335  8.75555555555556 9.90000000000002  8.66666666666667 9.90000000000002  L 7.33333333333333 9.90000000000002  C 7.24444444444444 9.90000000000002  7.19999999999999 9.94583333333335  7.19999999999999 10.0375  C 7.19999999999999 10.1291666666667  7.24444444444444 10.175  7.33333333333333 10.175  Z " fill-rule="nonzero" fill="#333333" stroke="none" transform="matrix(1 0 0 1 19 9 )" />
  </g>
</svg>