<?xml version="1.0" encoding="utf-8"?>
<svg version="1.1" xmlns:xlink="http://www.w3.org/1999/xlink" width="16px" height="11px" xmlns="http://www.w3.org/2000/svg">
  <g transform="matrix(1 0 0 1 -134 -9 )">
    <path d="M 8.75763747454178 10.4204301075269  C 8.36116768499657 10.8068100358423  8.10862186014934 11  8 11  C 7.89137813985066 11  7.63883231500343 10.8068100358423  7.24236252545822 10.4204301075269  C 6.84589273591313 10.0340501792115  6.64765784114049 9.78829151732377  6.64765784114049 9.68315412186379  C 6.64765784114049 9.51493428912784  6.81737949762386 9.37299880525688  7.15682281059065 9.2573476702509  C 7.49626612355739 9.14169653524491  7.77732518669387 9.08387096774192  8 9.08387096774192  C 8.22267481330613 9.08387096774192  8.50373387644261 9.14169653524491  8.84317718940935 9.2573476702509  C 9.18262050237612 9.37299880525688  9.35234215885953 9.51493428912784  9.35234215885953 9.68315412186379  C 9.35234215885953 9.78829151732377  9.15410726408686 10.0340501792115  8.75763747454178 10.4204301075269  Z M 10.9613034623218 8.2716845878136  C 10.551255940258 8.66594982078853  10.2973523421589 8.86308243727597  10.1995926680245 8.86308243727597  C 10.1887304820095 8.86308243727597  10.0801086218602 8.79737156511349  9.87372708757636 8.66594982078853  C 9.66734555329256 8.53452807646357  9.3917175831636 8.4031063321386  9.04684317718943 8.2716845878136  C 8.70196877121522 8.14026284348864  8.35302104548542 8.07455197132616  8 8.07455197132616  C 7.64697895451458 8.07455197132616  7.29803122878478 8.14026284348864  6.95315682281058 8.2716845878136  C 6.60828241683642 8.4031063321386  6.33401221995925 8.53452807646357  6.13034623217918 8.66594982078853  C 5.92668024439921 8.79737156511349  5.81670061099794 8.86308243727597  5.80040733197553 8.86308243727597  C 5.70264765784114 8.86308243727597  5.44874405974205 8.66594982078853  5.03869653767825 8.2716845878136  C 4.62864901561443 7.87741935483871  4.42362525458253 7.63297491039429  4.42362525458253 7.53835125448026  C 4.42362525458253 7.47001194743132  4.45078071961983 7.40955794504182  4.50509164969446 7.35698924731184  C 4.92871690427698 6.95221027479092  5.46096401900886 6.63416965352448  6.10183299389003 6.40286738351256  C 6.74270196877123 6.1715651135006  7.37542430414118 6.05591397849462  8 6.05591397849462  C 8.62457569585882 6.05591397849462  9.25729803122877 6.1715651135006  9.89816700610999 6.40286738351256  C 10.5390359809911 6.63416965352448  11.071283095723 6.95221027479092  11.4949083503055 7.35698924731184  C 11.5492192803802 7.40955794504182  11.5763747454175 7.47001194743132  11.5763747454175 7.53835125448026  C 11.5763747454175 7.63297491039429  11.3713509843856 7.87741935483871  10.9613034623218 8.2716845878136  Z M 13.1731160896131 6.12688172043012  C 12.7657841140529 6.52114695340501  12.5159538357095 6.71827956989249  12.4236252545825 6.71827956989249  C 12.3638832315003 6.71827956989249  12.3014256619145 6.69725209080049  12.2362525458248 6.65519713261648  C 11.4976238968092 6.10322580645161  10.8133061778683 5.69713261648744  10.1832993890021 5.43691756272403  C 9.55329260013582 5.17670250896057  8.82552613713511 5.04659498207885  8 5.04659498207885  C 7.53835709436522 5.04659498207885  7.07535641547862 5.10442054958184  6.61099796334011 5.22007168458782  C 6.14663951120167 5.3357228195938  5.74202308214529 5.47502986857825  5.39714867617104 5.63799283154122  C 5.05227427019685 5.80095579450419  4.74405974202307 5.96391875746715  4.47250509164969 6.12688172043012  C 4.20095044127629 6.28984468339309  3.9864222674813 6.42915173237754  3.8289205702648 6.54480286738352  C 3.67141887304821 6.6604540023895  3.5872369314325 6.71827956989249  3.57637474541747 6.71827956989249  C 3.48404616429052 6.71827956989249  3.23421588594708 6.52114695340501  2.82688391038694 6.12688172043012  C 2.4195519348269 5.73261648745519  2.21588594704681 5.48817204301076  2.21588594704681 5.39354838709679  C 2.21588594704681 5.33046594982077  2.24304141208415 5.27264038231779  2.29735234215886 5.22007168458782  C 3.0142566191446 4.52616487455198  3.88323150033942 3.98733572281958  4.90427698574337 3.60358422939069  C 5.92532247114728 3.21983273596177  6.95723014256622 3.02795698924731  8 3.02795698924731  C 9.04276985743377 3.02795698924731  10.0746775288527 3.21983273596177  11.0957230142566 3.60358422939069  C 12.1167684996606 3.98733572281958  12.9857433808554 4.52616487455198  13.7026476578411 5.22007168458782  C 13.7569585879158 5.27264038231779  13.7841140529532 5.33046594982077  13.7841140529532 5.39354838709679  C 13.7841140529532 5.48817204301076  13.5804480651731 5.73261648745519  13.1731160896131 6.12688172043012  Z M 15.3849287169043 3.98996415770609  C 14.9748811948405 4.38422939068102  14.7236931432451 4.58136200716846  14.6313645621181 4.58136200716846  C 14.571622539036 4.58136200716846  14.5118805159539 4.55770609318995  14.4521384928717 4.51039426523296  C 13.479972844535 3.68506571087215  12.4711473183978 3.06344086021506  11.4256619144603 2.64551971326166  C 10.3801765105227 2.22759856630826  9.23828920570261 2.01863799283154  8 2.01863799283154  C 6.76171079429739 2.01863799283154  5.61982348947726 2.22759856630826  4.57433808553972 2.64551971326166  C 3.52885268160216 3.06344086021506  2.52002715546502 3.68506571087215  1.54786150712832 4.51039426523296  C 1.48811948404615 4.55770609318995  1.42837746096406 4.58136200716846  1.36863543788186 4.58136200716846  C 1.27630685675491 4.58136200716846  1.02511880515955 4.38422939068102  0.61507128309573 3.98996415770609  C 0.205023761031896 3.59569892473116  0 3.35125448028673  0 3.25663082437276  C 0 3.18829151732376  0.0271554650373247 3.12783751493431  0.0814663951120309 3.0752688172043  C 1.09708078750849 2.09749103942653  2.3054989816701 1.34050179211468  3.70672097759676 0.804301075268835  C 5.10794297352344 0.268100358422943  6.53903598099114 0  8 0  C 9.46096401900886 0  10.8920570264766 0.268100358422943  12.2932790224033 0.804301075268835  C 13.6945010183299 1.34050179211468  14.9029192124915 2.09749103942653  15.918533604888 3.0752688172043  C 15.9728445349627 3.12783751493431  16 3.18829151732376  16 3.25663082437276  C 16 3.35125448028673  15.7949762389681 3.59569892473116  15.3849287169043 3.98996415770609  Z " fill-rule="nonzero" fill="#333333" stroke="none" transform="matrix(1 0 0 1 134 9 )" />
  </g>
</svg>