<?xml version="1.0" encoding="utf-8"?>
<svg version="1.1" xmlns:xlink="http://www.w3.org/1999/xlink" width="9px" height="11px" xmlns="http://www.w3.org/2000/svg">
  <g transform="matrix(1 0 0 1 -525 -9 )">
    <path d="M 2.49999999999994 3.49999999999999  L 2.49999999999994 5.00000000000001  L 6.5 5.00000000000001  L 6.5 3.49999999999999  C 6.5 2.94791666666666  6.30468749999989 2.47656249999999  5.9140625 2.0859375  C 5.5234375 1.6953125  5.05208333333326 1.5  4.5 1.5  C 3.94791666666674 1.5  3.4765625 1.6953125  3.0859375 2.0859375  C 2.69531250000006 2.47656249999999  2.49999999999994 2.94791666666666  2.49999999999994 3.49999999999999  Z M 8.78125 5.21874999999999  C 8.92708333333337 5.36458333333334  9 5.54166666666667  9 5.75  L 9 10.25  C 9 10.4583333333333  8.92708333333337 10.6354166666667  8.78125 10.78125  C 8.63541666666663 10.9270833333333  8.45833333333337 11  8.25000000000011 11  L 0.749999999999943 11  C 0.541666666666686 11  0.364583333333371 10.9270833333333  0.21875 10.78125  C 0.0729166666666288 10.6354166666667  0 10.4583333333333  0 10.25  L 0 5.75  C 0 5.54166666666667  0.0729166666666288 5.36458333333334  0.21875 5.21874999999999  C 0.364583333333371 5.07291666666667  0.541666666666686 5.00000000000001  0.749999999999943 5.00000000000001  L 1 5.00000000000001  L 1 3.49999999999999  C 1 2.54166666666666  1.34375 1.71875  2.03125 1.03125  C 2.71874999999994 0.34375  3.54166666666674 0  4.5 0  C 5.45833333333326 0  6.28125000000011 0.34375  6.96875 1.03125  C 7.65625 1.71875  8 2.54166666666666  8 3.49999999999999  L 8 5.00000000000001  L 8.25000000000011 5.00000000000001  C 8.45833333333337 5.00000000000001  8.63541666666663 5.07291666666667  8.78125 5.21874999999999  Z " fill-rule="nonzero" fill="#333333" stroke="none" transform="matrix(1 0 0 1 525 9 )" />
  </g>
</svg>