<?xml version="1.0" encoding="utf-8"?>
<svg version="1.1" xmlns:xlink="http://www.w3.org/1999/xlink" width="4px" height="7px" xmlns="http://www.w3.org/2000/svg">
  <g transform="matrix(1 0 0 1 -866 -12 )">
    <path d="M 1.30153846153848 6.92880228713515  C 0.558351648351618 6.76967419543965  0 6.32353031910132  0 5.88891871117143  C 0 5.4529301159689  0.55890109890106 5.00730260985783  1.30153846153848 4.85101455441214  C 1.59505494505493 4.78922225055202  1.77329670329675 4.73612217885048  1.69780219780216 4.73285183407794  C 1.59153846153845 4.72837662544182  1.56043956043959 4.21105971944846  1.56043956043959 2.44946268920751  C 1.56043956043959 0.285785375353013  1.57109890109894 0.167450531609721  1.77296703296702 0.0827658143418102  C 2.0617582417583 -0.0382369422422429  2.1742857142857 -0.0296307717881792  2.37681318681314 0.128894887975549  C 2.52483516483517 0.244992127400782  2.54945054945051 0.581751577268034  2.54945054945051 2.49559176284125  C 2.54945054945051 4.2202683218343  2.51824175824174 4.72846268714637  2.41208791208794 4.73311001919157  C 2.33648351648355 4.73638036396411  2.49813186813185 4.7930089655518  2.77109890109887 4.85893223122988  C 3.46318681318678 5.02606406144767  4 5.47565040596761  4 5.8882302175351  C 4 6.65392120283257  2.57846153846151 7.20204819905146  1.30153846153848 6.92871622543061  Z " fill-rule="nonzero" fill="#03b615" stroke="none" transform="matrix(1 0 0 1 866 12 )" />
  </g>
</svg>