<?xml version="1.0" encoding="utf-8"?>
<svg version="1.1" xmlns:xlink="http://www.w3.org/1999/xlink" width="17px" height="12px" xmlns="http://www.w3.org/2000/svg">
  <g transform="matrix(1 0 0 1 -250 -9 )">
    <path d="M 16.621875 6.0943359375  C 16.621875 4.140234375  16.11875 2.21083984375  15.16416015625 0.501562499999999  L 15.06533203125 0.324121093750001  L 13.81875 1.02041015625  L 13.917578125 1.1978515625  C 14.753125 2.69375  15.19560546875 4.3873046875  15.19560546875 6.09658203125  C 15.19560546875 7.805859375  14.753125 9.50166015625  13.917578125 10.9953125  L 13.81875 11.17275390625  L 15.06533203125 11.86904296875  L 15.16416015625 11.6916015625  C 16.11875 9.98232421875  16.621875 8.0484375  16.621875 6.0943359375  Z M 12.659765625 1.97275390625  L 12.5609375 1.7953125  L 11.31435546875 2.4916015625  L 11.41318359375 2.66904296875  C 11.9994140625 3.71572265625  12.30712890625 4.90166015625  12.30712890625 6.098828125  C 12.30712890625 7.29599609375  11.99716796875 8.48193359375  11.41318359375 9.52861328125  L 11.31435546875 9.7060546875  L 12.5609375 10.40234375  L 12.659765625 10.22490234375  C 13.36279296875 8.96484375  13.73564453125 7.53857421875  13.73564453125 6.098828125  C 13.73564453125 4.65908203125  13.36279296875 3.23056640625  12.659765625 1.97275390625  Z M 3.3115234375 1.20458984375  L 3.4103515625 1.02265625  L 2.16376953125 0.3263671875  L 2.06494140625 0.503808593749999  C 1.1103515625 2.21083984375  0.607226562499999 4.14697265625  0.607226562499999 6.10107421875  C 0.607226562499999 8.0529296875  1.11259765625 9.9890625  2.06494140625 11.69833984375  L 2.16376953125 11.87578125  L 3.4103515625 11.1794921875  L 3.3115234375 11.00205078125  C 2.4759765625 9.50615234375  2.03349609375 7.81259765625  2.03349609375 6.1033203125  C 2.03349609375 4.39404296875  2.4759765625 2.6982421875  3.3115234375 1.20458984375  Z M 5.81591796875 2.66904296875  L 5.91474609375 2.4916015625  L 4.6681640625 1.7953125  L 4.5693359375 1.97275390625  C 3.86630859375 3.2328125  3.49345703125 4.65908203125  3.49345703125 6.098828125  C 3.49345703125 7.53857421875  3.86630859375 8.96708984375  4.5693359375 10.22490234375  L 4.6681640625 10.40234375  L 5.91474609375 9.7060546875  L 5.81591796875 9.52861328125  C 5.2296875 8.48193359375  4.92197265625 7.29599609375  4.92197265625 6.098828125  C 4.92197265625 4.90166015625  5.23193359375 3.71572265625  5.81591796875 2.66904296875  Z " fill-rule="nonzero" fill="#333333" stroke="none" transform="matrix(1 0 0 1 250 9 )" />
  </g>
</svg>