<?xml version="1.0" encoding="utf-8"?>
<svg version="1.1" xmlns:xlink="http://www.w3.org/1999/xlink" width="36px" height="21px" xmlns="http://www.w3.org/2000/svg">
  <g transform="matrix(1 0 0 1 -486 -163 )">
    <path d="M 35.6392785571143 17.1752577319588  C 35.8797595190381 17.4158075601375  36 17.692439862543  36 18.0051546391753  C 36 18.3178694158076  35.8797595190381 18.5945017182131  35.6392785571143 18.8350515463918  L 33.8356713426854 20.6391752577319  C 33.5951903807616 20.8797250859107  33.3186372745491 21  33.0060120240481 21  C 32.6933867735471 21  32.4168336673347 20.8797250859107  32.1763527054109 20.6391752577319  L 18 6.45876288659792  L 3.82364729458919 20.6391752577319  C 3.58316633266531 20.8797250859107  3.3066132264529 21  2.99398797595188 21  C 2.68136272545092 21  2.40480961923845 20.8797250859107  2.16432865731463 20.6391752577319  L 0.36072144288579 18.8350515463918  C 0.120240480961911 18.5945017182131  0 18.3178694158076  0 18.0051546391753  C 0 17.692439862543  0.120240480961911 17.4158075601375  0.36072144288579 17.1752577319588  L 17.1703406813627 0.360824742268051  C 17.4108216432866 0.12027491408935  17.687374749499 0  18 0  C 18.312625250501 0  18.5891783567134 0.12027491408935  18.8296593186373 0.360824742268051  L 35.6392785571143 17.1752577319588  Z " fill-rule="nonzero" fill="#333333" stroke="none" transform="matrix(1 0 0 1 486 163 )" />
  </g>
</svg>