<?xml version="1.0" encoding="utf-8"?>
<svg version="1.1" xmlns:xlink="http://www.w3.org/1999/xlink" width="11px" height="13px" xmlns="http://www.w3.org/2000/svg">
  <g transform="matrix(1 0 0 1 -864 -8 )">
    <path d="M 4.3786490427525 12.9249552271056  C 3.73017378817735 13.0248691385381  3.70162398577463 13.0248691385381  3.08151493358673 12.9258270762455  C 2.84072351332191 12.8872913442619  2.45617328095852 12.7695917103754  2.22685686165937 12.6642723342754  C -0.185647341374988 11.5550186735806  -0.747187988633755 8.71924216114168  1.08211076531848 6.88234320828627  L 1.54551720431846 6.41695013740762  L 1.54643520439572 4.02773475442551  C 1.54735320447298 1.69998473580636  1.55286120493645 1.62744688736667  1.76372582268266 1.20268198640736  C 1.88279043270302 0.962923472934852  2.07859984918218 0.682188049887036  2.19885785930296 0.578699556980898  C 3.42457156245814 -0.475366053158261  5.36724332595179 -0.0295895879273589  5.90959777159583 1.43023461192128  C 6.01443338041884 1.71262654833491  6.04371758288323 2.30208375182134  6.04371758288323 4.13453627406327  L 6.04371758288323 6.47780520737264  L 6.38796761185506 6.77449546968063  C 6.90425085530512 7.21948727068562  7.31257728966955 7.92830062142436  7.47616490343694 8.66379255584405  C 7.74624052616628 9.87862714738078  7.34837929268258 11.0791634130231  6.39062981207917 11.9393297744485  C 5.76877655974454 12.4979235183825  5.13480570639001 12.8083889971009  4.3786490427525 12.9249552271056  Z M 0.723172735110552 9.379493514788  C 0.738136136369917 11.5068054161441  3.04846693080549 12.9270476650413  5.03391749789932 12.0294789755142  C 5.69148095323931 11.7321784188083  6.25127740035134 11.2053199835667  6.56358102663455 10.5897073058833  C 6.7702228440254 10.182379387722  6.81511304780338 9.97296122431796  6.81915224814327 9.39806390146787  C 6.82539464866863 8.49979773262885  6.54393582498119 7.88802119116097  5.82073536411724 7.22803139225664  L 5.31721232174118 6.76856689552931  L 5.29031491947751 4.15999426894835  C 5.26369291723711 1.5862956079634  5.26057171697437 1.54758550615183  5.04915629918185 1.2660654188781  C 4.78679187710145 0.916715468520145  4.23213623042204 0.635980045472329  3.80425639441205 0.635980045472329  C 3.15119113945059 0.635980045472329  2.65280889750716 0.952286913428078  2.36161927300088 1.5514216423674  C 2.20969026021464 1.86397955902156  2.1919728587236 2.1550028019202  2.19013685856908 4.35616032542587  L 2.18811725839907 6.81215935252432  L 1.65228061330356 7.32105769548397  C 0.999582558372936 7.94094243395291  0.717389334623817 8.56614545217523  0.723172735110552 9.379493514788  Z M 3.23078174614886 10.931995278208  C 2.39099527547319 10.7297262777512  1.90133403426364 10.1334686509736  2.10164165112144 9.55708918458564  C 2.21657526079412 9.22639680582154  2.89130531757883 8.74408986162884  3.23886014682876 8.74426423145682  C 3.42503056249677 8.74426423145682  3.42705016266666 8.71462136070021  3.4014379605112 6.41293963136407  C 3.37784535852563 4.2895510511375  3.38959575951458 4.07185032090445  3.53372177164408 3.97176203964393  C 3.74394378933619 3.82572730871067  3.88898780154295 3.83313802639982  4.06340781622202 3.99878936298083  C 4.18697062662102 4.11614025721137  4.20845182842879 4.46418243385947  4.21304182881511 6.41817072620348  L 4.21854982927869 8.70058458954782  L 4.6949918693756 8.92029057280264  C 5.33116592291549 9.21349343855102  5.57746534364389 9.64165855115593  5.38541972748146 10.120826838445  C 5.14673970739432 10.7162998009967  4.05000501509414 11.1292075536534  3.23087354615666 10.931995278208  Z M 7.41860629859286 6.82994507497828  L 7.31441328982407 6.61268026931518  C 7.23399648305622 6.44519804954037  7.23730128333432 6.36429044935765  7.32827509099059 6.26010447713959  C 7.42870429944264 6.14519476050076  7.70153392240377 6.12845525701469  9.14499724388452 6.14850778723238  C 10.6462027702247 6.16943216658999  10.8552313878164 6.18992062137764  10.9446445953414 6.32479568332018  C 11.0184518015528 6.43595644865743  11.0184518015528 6.51878211694794  10.9446445953414 6.6299428822852  C 10.8551395878087 6.76490512914173  10.6454683701629 6.7852192141014  9.13104364271021 6.80623077837298  L 7.41860629859286 6.82994507497828  Z M 7.38142729546382 4.16077893317426  C 7.20884328093939 3.99687129487304  7.19764367999676 3.84691324281025  7.34727769258984 3.70488901792052  C 7.5024197056465 3.55754651327741  10.7356159777496 3.55754651327741  10.8907579908063 3.70488901792052  C 11.0561816047282 3.8619962329305  11.0235008019778 4.10576525244657  10.8233767851356 4.2075100470729  C 10.7209279765135 4.25955944072493  9.9855181146221 4.29774643305255  9.0856944388936 4.29774643305255  C 7.78984552983604 4.29774643305255  7.50122630554608 4.27455524593122  7.38133549545614 4.16077893317426  Z M 7.32249169050385 1.54409810959223  C 7.23500628314116 1.44383545850372  7.22830488257728 1.36624088505262  7.29834828847197 1.26074713912471  C 7.38280429557972 1.13363153452729  7.60973391467803 1.11549707241737  9.11901784169811 1.11549707241737  C 10.6059943668408 1.11549707241737  10.856057587886 1.13485212332314  10.9366579946692 1.25621352359722  C 10.9880659989957 1.33363372722036  11.0042228003554 1.46109807147375  10.9724599976822 1.53956449406476  C 10.9219699934331 1.66476203055439  10.7015581748833 1.6821990133524  9.1791468467585 1.6821990133524  C 7.7073173228905 1.6821990133524  7.42494049912591 1.6612746339948  7.32258349051165 1.54409810959223  Z " fill-rule="nonzero" fill="#03b615" stroke="none" transform="matrix(1 0 0 1 864 8 )" />
  </g>
</svg>