<?xml version="1.0" encoding="utf-8"?>
<svg version="1.1" xmlns:xlink="http://www.w3.org/1999/xlink" width="12px" height="12px" viewBox="800 2253  12 12" xmlns="http://www.w3.org/2000/svg">
  <path d="M 806 2253  C 809.36 2253  812 2255.64  812 2259  C 812 2262.36  809.36 2265  806 2265  C 802.64 2265  800 2262.36  800 2259  C 800 2255.64  802.64 2253  806 2253  Z " fill-rule="nonzero" fill="#ffffff" stroke="none" />
  <path d="M 806 2253.5  C 809.08 2253.5  811.5 2255.92  811.5 2259  C 811.5 2262.08  809.08 2264.5  806 2264.5  C 802.92 2264.5  800.5 2262.08  800.5 2259  C 800.5 2255.92  802.92 2253.5  806 2253.5  Z " stroke-width="1" stroke="#797979" fill="none" />
  <path d="M 806 2262  C 804.32 2262  803 2260.68  803 2259  C 803 2257.32  804.32 2256  806 2256  C 807.68 2256  809 2257.32  809 2259  C 809 2260.68  807.68 2262  806 2262  " fill-rule="nonzero" fill="#797979" stroke="none" />
</svg>