<?xml version="1.0" encoding="utf-8"?>
<svg version="1.1" xmlns:xlink="http://www.w3.org/1999/xlink" width="12px" height="12px" viewBox="800 2281  12 12" xmlns="http://www.w3.org/2000/svg">
  <path d="M 806 2281  C 809.36 2281  812 2283.64  812 2287  C 812 2290.36  809.36 2293  806 2293  C 802.64 2293  800 2290.36  800 2287  C 800 2283.64  802.64 2281  806 2281  Z " fill-rule="nonzero" fill="#ffffff" stroke="none" />
  <path d="M 806 2281.5  C 809.08 2281.5  811.5 2283.92  811.5 2287  C 811.5 2290.08  809.08 2292.5  806 2292.5  C 802.92 2292.5  800.5 2290.08  800.5 2287  C 800.5 2283.92  802.92 2281.5  806 2281.5  Z " stroke-width="1" stroke="#797979" fill="none" />
  <path d="M 806 2290  C 804.32 2290  803 2288.68  803 2287  C 803 2285.32  804.32 2284  806 2284  C 807.68 2284  809 2285.32  809 2287  C 809 2288.68  807.68 2290  806 2290  " fill-rule="nonzero" fill="#797979" stroke="none" />
</svg>