<?xml version="1.0" encoding="utf-8"?>
<svg version="1.1" xmlns:xlink="http://www.w3.org/1999/xlink" width="12px" height="12px" viewBox="800 2393  12 12" xmlns="http://www.w3.org/2000/svg">
  <path d="M 806 2393  C 809.36 2393  812 2395.64  812 2399  C 812 2402.36  809.36 2405  806 2405  C 802.64 2405  800 2402.36  800 2399  C 800 2395.64  802.64 2393  806 2393  Z " fill-rule="nonzero" fill="#f0f0f0" stroke="none" />
  <path d="M 806 2393.5  C 809.08 2393.5  811.5 2395.92  811.5 2399  C 811.5 2402.08  809.08 2404.5  806 2404.5  C 802.92 2404.5  800.5 2402.08  800.5 2399  C 800.5 2395.92  802.92 2393.5  806 2393.5  Z " stroke-width="1" stroke="#797979" fill="none" />
  <path d="M 806 2402  C 804.32 2402  803 2400.68  803 2399  C 803 2397.32  804.32 2396  806 2396  C 807.68 2396  809 2397.32  809 2399  C 809 2400.68  807.68 2402  806 2402  " fill-rule="nonzero" fill="#797979" stroke="none" />
</svg>