<?xml version="1.0" encoding="utf-8"?>
<svg version="1.1" xmlns:xlink="http://www.w3.org/1999/xlink" width="12px" height="12px" viewBox="800 2309  12 12" xmlns="http://www.w3.org/2000/svg">
  <path d="M 806 2309  C 809.36 2309  812 2311.64  812 2315  C 812 2318.36  809.36 2321  806 2321  C 802.64 2321  800 2318.36  800 2315  C 800 2311.64  802.64 2309  806 2309  Z " fill-rule="nonzero" fill="#f0f0f0" stroke="none" />
  <path d="M 806 2309.5  C 809.08 2309.5  811.5 2311.92  811.5 2315  C 811.5 2318.08  809.08 2320.5  806 2320.5  C 802.92 2320.5  800.5 2318.08  800.5 2315  C 800.5 2311.92  802.92 2309.5  806 2309.5  Z " stroke-width="1" stroke="#797979" fill="none" />
  <path d="M 806 2318  C 804.32 2318  803 2316.68  803 2315  C 803 2313.32  804.32 2312  806 2312  C 807.68 2312  809 2313.32  809 2315  C 809 2316.68  807.68 2318  806 2318  " fill-rule="nonzero" fill="#797979" stroke="none" />
</svg>