<?xml version="1.0" encoding="utf-8"?>
<svg version="1.1" xmlns:xlink="http://www.w3.org/1999/xlink" width="12px" height="12px" viewBox="800 2337  12 12" xmlns="http://www.w3.org/2000/svg">
  <path d="M 806 2337  C 809.36 2337  812 2339.64  812 2343  C 812 2346.36  809.36 2349  806 2349  C 802.64 2349  800 2346.36  800 2343  C 800 2339.64  802.64 2337  806 2337  Z " fill-rule="nonzero" fill="#f0f0f0" stroke="none" />
  <path d="M 806 2337.5  C 809.08 2337.5  811.5 2339.92  811.5 2343  C 811.5 2346.08  809.08 2348.5  806 2348.5  C 802.92 2348.5  800.5 2346.08  800.5 2343  C 800.5 2339.92  802.92 2337.5  806 2337.5  Z " stroke-width="1" stroke="#797979" fill="none" />
  <path d="M 806 2346  C 804.32 2346  803 2344.68  803 2343  C 803 2341.32  804.32 2340  806 2340  C 807.68 2340  809 2341.32  809 2343  C 809 2344.68  807.68 2346  806 2346  " fill-rule="nonzero" fill="#797979" stroke="none" />
</svg>