<?xml version="1.0" encoding="utf-8"?>
<svg version="1.1" xmlns:xlink="http://www.w3.org/1999/xlink" width="12px" height="12px" viewBox="800 2365  12 12" xmlns="http://www.w3.org/2000/svg">
  <path d="M 806 2365  C 809.36 2365  812 2367.64  812 2371  C 812 2374.36  809.36 2377  806 2377  C 802.64 2377  800 2374.36  800 2371  C 800 2367.64  802.64 2365  806 2365  Z " fill-rule="nonzero" fill="#f0f0f0" stroke="none" />
  <path d="M 806 2365.5  C 809.08 2365.5  811.5 2367.92  811.5 2371  C 811.5 2374.08  809.08 2376.5  806 2376.5  C 802.92 2376.5  800.5 2374.08  800.5 2371  C 800.5 2367.92  802.92 2365.5  806 2365.5  Z " stroke-width="1" stroke="#797979" fill="none" />
  <path d="M 806 2374  C 804.32 2374  803 2372.68  803 2371  C 803 2369.32  804.32 2368  806 2368  C 807.68 2368  809 2369.32  809 2371  C 809 2372.68  807.68 2374  806 2374  " fill-rule="nonzero" fill="#797979" stroke="none" />
</svg>