<?xml version="1.0" encoding="utf-8"?>
<svg version="1.1" xmlns:xlink="http://www.w3.org/1999/xlink" width="12px" height="12px" viewBox="800 2164  12 12" xmlns="http://www.w3.org/2000/svg">
  <path d="M 806 2164  C 809.36 2164  812 2166.64  812 2170  C 812 2173.36  809.36 2176  806 2176  C 802.64 2176  800 2173.36  800 2170  C 800 2166.64  802.64 2164  806 2164  Z " fill-rule="nonzero" fill="#ffffff" stroke="none" />
  <path d="M 806 2164.5  C 809.08 2164.5  811.5 2166.92  811.5 2170  C 811.5 2173.08  809.08 2175.5  806 2175.5  C 802.92 2175.5  800.5 2173.08  800.5 2170  C 800.5 2166.92  802.92 2164.5  806 2164.5  Z " stroke-width="1" stroke="#797979" fill="none" />
  <path d="M 806 2173  C 804.32 2173  803 2171.68  803 2170  C 803 2168.32  804.32 2167  806 2167  C 807.68 2167  809 2168.32  809 2170  C 809 2171.68  807.68 2173  806 2173  " fill-rule="nonzero" fill="#797979" stroke="none" />
</svg>