<?xml version="1.0" encoding="utf-8"?>
<svg version="1.1" xmlns:xlink="http://www.w3.org/1999/xlink" width="12px" height="12px" viewBox="799 2349  12 12" xmlns="http://www.w3.org/2000/svg">
  <path d="M 805 2349  C 808.36 2349  811 2351.64  811 2355  C 811 2358.36  808.36 2361  805 2361  C 801.64 2361  799 2358.36  799 2355  C 799 2351.64  801.64 2349  805 2349  Z " fill-rule="nonzero" fill="#ffffff" stroke="none" />
  <path d="M 805 2349.5  C 808.08 2349.5  810.5 2351.92  810.5 2355  C 810.5 2358.08  808.08 2360.5  805 2360.5  C 801.92 2360.5  799.5 2358.08  799.5 2355  C 799.5 2351.92  801.92 2349.5  805 2349.5  Z " stroke-width="1" stroke="#797979" fill="none" />
  <path d="M 805 2358  C 803.32 2358  802 2356.68  802 2355  C 802 2353.32  803.32 2352  805 2352  C 806.68 2352  808 2353.32  808 2355  C 808 2356.68  806.68 2358  805 2358  " fill-rule="nonzero" fill="#797979" stroke="none" />
</svg>