<?xml version="1.0" encoding="utf-8"?>
<svg version="1.1" xmlns:xlink="http://www.w3.org/1999/xlink" width="12px" height="12px" viewBox="799 2322  12 12" xmlns="http://www.w3.org/2000/svg">
  <path d="M 805 2322  C 808.36 2322  811 2324.64  811 2328  C 811 2331.36  808.36 2334  805 2334  C 801.64 2334  799 2331.36  799 2328  C 799 2324.64  801.64 2322  805 2322  Z " fill-rule="nonzero" fill="#f0f0f0" stroke="none" />
  <path d="M 805 2322.5  C 808.08 2322.5  810.5 2324.92  810.5 2328  C 810.5 2331.08  808.08 2333.5  805 2333.5  C 801.92 2333.5  799.5 2331.08  799.5 2328  C 799.5 2324.92  801.92 2322.5  805 2322.5  Z " stroke-width="1" stroke="#797979" fill="none" />
  <path d="M 805 2331  C 803.32 2331  802 2329.68  802 2328  C 802 2326.32  803.32 2325  805 2325  C 806.68 2325  808 2326.32  808 2328  C 808 2329.68  806.68 2331  805 2331  " fill-rule="nonzero" fill="#797979" stroke="none" />
</svg>