<?xml version="1.0" encoding="utf-8"?>
<svg version="1.1" xmlns:xlink="http://www.w3.org/1999/xlink" width="12px" height="12px" viewBox="799 2269  12 12" xmlns="http://www.w3.org/2000/svg">
  <path d="M 805 2269  C 808.36 2269  811 2271.64  811 2275  C 811 2278.36  808.36 2281  805 2281  C 801.64 2281  799 2278.36  799 2275  C 799 2271.64  801.64 2269  805 2269  Z " fill-rule="nonzero" fill="#ffffff" stroke="none" />
  <path d="M 805 2269.5  C 808.08 2269.5  810.5 2271.92  810.5 2275  C 810.5 2278.08  808.08 2280.5  805 2280.5  C 801.92 2280.5  799.5 2278.08  799.5 2275  C 799.5 2271.92  801.92 2269.5  805 2269.5  Z " stroke-width="1" stroke="#797979" fill="none" />
  <path d="M 805 2278  C 803.32 2278  802 2276.68  802 2275  C 802 2273.32  803.32 2272  805 2272  C 806.68 2272  808 2273.32  808 2275  C 808 2276.68  806.68 2278  805 2278  " fill-rule="nonzero" fill="#797979" stroke="none" />
</svg>