<?xml version="1.0" encoding="utf-8"?>
<svg version="1.1" xmlns:xlink="http://www.w3.org/1999/xlink" width="12px" height="12px" viewBox="799 2294  12 12" xmlns="http://www.w3.org/2000/svg">
  <path d="M 805 2294  C 808.36 2294  811 2296.64  811 2300  C 811 2303.36  808.36 2306  805 2306  C 801.64 2306  799 2303.36  799 2300  C 799 2296.64  801.64 2294  805 2294  Z " fill-rule="nonzero" fill="#f0f0f0" stroke="none" />
  <path d="M 805 2294.5  C 808.08 2294.5  810.5 2296.92  810.5 2300  C 810.5 2303.08  808.08 2305.5  805 2305.5  C 801.92 2305.5  799.5 2303.08  799.5 2300  C 799.5 2296.92  801.92 2294.5  805 2294.5  Z " stroke-width="1" stroke="#797979" fill="none" />
  <path d="M 805 2303  C 803.32 2303  802 2301.68  802 2300  C 802 2298.32  803.32 2297  805 2297  C 806.68 2297  808 2298.32  808 2300  C 808 2301.68  806.68 2303  805 2303  " fill-rule="nonzero" fill="#797979" stroke="none" />
</svg>