<?xml version="1.0" encoding="utf-8"?>
<svg version="1.1" xmlns:xlink="http://www.w3.org/1999/xlink" width="4px" height="8px" xmlns="http://www.w3.org/2000/svg">
  <g transform="matrix(1 0 0 1 -414 -107 )">
    <path d="M 0.0687285223367553 3.81563126252505  C 0.022909507445604 3.86907147628591  0 3.93052772211091  0 4  C 0 4.06947227788909  0.022909507445604 4.13092852371409  0.0687285223367553 4.18436873747496  L 3.27147766323026 7.9198396793587  C 3.31729667812141 7.97327989311957  3.36998854524626 8  3.42955326460481 8  C 3.48911798396335 8  3.5418098510882 7.97327989311957  3.58762886597941 7.9198396793587  L 3.93127147766324 7.51903807615231  C 3.9770904925544 7.46559786239145  4 7.40414161656649  4 7.33466933867736  C 4 7.26519706078824  3.9770904925544 7.20374081496324  3.93127147766324 7.1503006012024  L 1.23024054982818 4  L 3.93127147766324 0.849699398797597  C 3.9770904925544 0.79625918503676  4 0.734802939211761  4 0.665330661322642  C 4 0.595858383433509  3.9770904925544 0.534402137608552  3.93127147766324 0.480961923847687  L 3.58762886597941 0.0801603206412977  C 3.5418098510882 0.0267201068804326  3.48911798396335 0  3.42955326460481 0  C 3.36998854524626 0  3.31729667812141 0.0267201068804326  3.27147766323026 0.0801603206412977  L 0.0687285223367553 3.81563126252505  Z " fill-rule="nonzero" fill="#ffffff" stroke="none" transform="matrix(1 0 0 1 414 107 )" />
  </g>
</svg>