<?xml version="1.0" encoding="utf-8"?>
<svg version="1.1" xmlns:xlink="http://www.w3.org/1999/xlink" width="30px" height="40px" xmlns="http://www.w3.org/2000/svg">
  <g transform="matrix(1 0 0 1 -488 -263 )">
    <path d="M 29.4428845135778 22.5116279069768  C 30.1857051621408 23.0697674418605  30.1857051621408 24.1860465116279  29.4428845135778 25.1162790697675  L 16.2578180015842 39.4418604651163  C 15.8864076773027 39.8139534883722  15.3292921908805 40  14.9578818665989 40  C 14.4007663801767 40  14.0293560558952 39.8139534883722  13.6579457316137 39.4418604651163  L 0.472879219620099 25.1162790697675  C -0.26994142894293 24.3720930232558  -0.0842362668021153 23.2558139534884  0.658584381760914 22.5116279069768  C 1.40140503032394 21.7674418604651  2.51563600316849 21.953488372093  3.2584566517314 22.6976744186047  L 13.2865354073322 33.4883720930233  L 13.2865354073322 1.8604651162791  C 13.2865354073322 0.930232558139552  14.0293560558952 0  15.1435870287396 0  C 16.0721128394435 0  17.0006386501472 0.744186046511642  17 1.8604651162791  L 17 33.3023255813954  L 26.8430122436072 22.5116279069768  C 27.2144225678887 22.1395348837209  27.771538054311 21.953488372093  28.1429483785924 21.953488372093  C 28.5143587028739 21.953488372093  29.0714741892963 22.1395348837209  29.4428845135778 22.5116279069768  Z " fill-rule="nonzero" fill="#3399ff" stroke="none" fill-opacity="0.498039215686275" transform="matrix(1 0 0 1 488 263 )" />
  </g>
</svg>