<?xml version="1.0" encoding="utf-8"?>
<svg version="1.1" xmlns:xlink="http://www.w3.org/1999/xlink" width="30px" height="40px" xmlns="http://www.w3.org/2000/svg">
  <g transform="matrix(1 0 0 1 -490 -287 )">
    <path d="M 29.4428845135778 17.4883720930232  C 30.1857051621408 16.9302325581395  30.1857051621408 15.8139534883721  29.4428845135778 14.8837209302325  L 16.2578180015842 0.558139534883675  C 15.8864076773027 0.186046511627853  15.3292921908805 0  14.9578818665989 0  C 14.4007663801767 0  14.0293560558952 0.186046511627853  13.6579457316137 0.558139534883675  L 0.472879219620099 14.8837209302325  C -0.26994142894293 15.6279069767442  -0.0842362668021153 16.7441860465116  0.658584381760914 17.4883720930232  C 1.40140503032394 18.2325581395349  2.51563600316849 18.046511627907  3.2584566517314 17.3023255813953  L 13.2865354073322 6.51162790697669  L 13.2865354073322 38.1395348837209  C 13.2865354073322 39.0697674418604  14.0293560558952 40  15.1435870287396 40  C 16.0721128394435 40  17.0006386501472 39.2558139534884  17 38.1395348837209  L 17 6.6976744186046  L 26.8430122436072 17.4883720930232  C 27.2144225678887 17.8604651162791  27.771538054311 18.046511627907  28.1429483785924 18.046511627907  C 28.5143587028739 18.046511627907  29.0714741892963 17.8604651162791  29.4428845135778 17.4883720930232  Z " fill-rule="nonzero" fill="#3399ff" stroke="none" fill-opacity="0.498039215686275" transform="matrix(1 0 0 1 490 287 )" />
  </g>
</svg>