<?xml version="1.0" encoding="utf-8"?>
<svg version="1.1" xmlns:xlink="http://www.w3.org/1999/xlink" width="27px" height="27px" xmlns="http://www.w3.org/2000/svg">
  <g transform="matrix(1 0 0 1 -576 -177 )">
    <path d="M 25.189453125 6.7236328125  C 26.396484375 8.79199218750003  27 11.0507812500001  27 13.5  C 27 15.9492187499999  26.396484375 18.2080078125  25.189453125 20.2763671875  C 23.982421875 22.3447265625  22.3447265625 23.982421875  20.2763671875 25.189453125  C 18.2080078125 26.3964843750001  15.94921875 27  13.5 27  C 11.05078125 27  8.7919921875 26.3964843750001  6.7236328125 25.189453125  C 4.6552734375 23.982421875  3.017578125 22.3447265625  1.810546875 20.2763671875  C 0.603515625 18.2080078125  0 15.9492187499999  0 13.5  C 0 11.0507812500001  0.603515625 8.79199218750003  1.810546875 6.7236328125  C 3.017578125 4.65527343749997  4.6552734375 3.01757812500003  6.7236328125 1.81054687500003  C 8.7919921875 0.603515624999943  11.05078125 0  13.5 0  C 15.94921875 0  18.2080078125 0.603515624999943  20.2763671875 1.81054687500003  C 22.3447265625 3.01757812500003  23.982421875 4.65527343749997  25.189453125 6.7236328125  Z " fill-rule="nonzero" fill="#ffffff" stroke="none" transform="matrix(1 0 0 1 576 177 )" />
  </g>
</svg>