<?xml version="1.0" encoding="utf-8"?>
<svg version="1.1" xmlns:xlink="http://www.w3.org/1999/xlink" width="6px" height="7px" xmlns="http://www.w3.org/2000/svg">
  <g transform="matrix(1 0 0 1 -683 -168 )">
    <path d="M 2.44720496894411 6.25651302605212  C 2.40579710144925 6.30327321309286  2.38509316770183 6.3570474281897  2.38509316770183 6.41783567134271  C 2.38509316770183 6.4786239144957  2.40579710144925 6.53239812959254  2.44720496894411 6.57915831663323  L 2.75776397515529 6.92985971943884  C 2.79917184265014 6.97661990647964  2.84679089026918 7  2.9006211180124 7  C 2.95445134575573 7  3.00207039337477 6.97661990647964  3.04347826086951 6.92985971943884  L 5.93788819875783 3.66132264529057  C 5.97929606625257 3.61456245824985  6 3.56078824315293  6 3.5  C 6 3.43921175684707  5.97929606625257 3.38543754175015  5.93788819875783 3.33867735470943  L 3.04347826086951 0.0701402805611622  C 3.00207039337477 0.023380093520359  2.95445134575573 0  2.9006211180124 0  C 2.84679089026918 0  2.79917184265014 0.023380093520359  2.75776397515529 0.0701402805611622  L 2.44720496894411 0.420841683366746  C 2.40579710144925 0.467601870407464  2.38509316770183 0.521376085504357  2.38509316770183 0.582164328657285  C 2.38509316770183 0.64295257181027  2.40579710144925 0.696726786907192  2.44720496894411 0.743486973947881  L 4.88819875776403 3.5  L 2.44720496894411 6.25651302605212  Z M 0.0621118012421675 6.25651302605212  C 0.0207039337474271 6.30327321309286  0 6.3570474281897  0 6.41783567134271  C 0 6.4786239144957  0.0207039337474271 6.53239812959254  0.0621118012421675 6.57915831663323  L 0.37267080745346 6.92985971943884  C 0.414078674948314 6.97661990647964  0.461697722567351 7  0.51552795031057 7  C 0.56935817805379 7  0.61697722567294 6.97661990647964  0.658385093167681 6.92985971943884  L 3.55279503105589 3.66132264529057  C 3.59420289855075 3.61456245824985  3.61490683229817 3.56078824315293  3.61490683229817 3.5  C 3.61490683229817 3.43921175684707  3.59420289855075 3.38543754175015  3.55279503105589 3.33867735470943  L 0.658385093167681 0.0701402805611622  C 0.61697722567294 0.023380093520359  0.56935817805379 0  0.51552795031057 0  C 0.461697722567351 0  0.414078674948314 0.023380093520359  0.37267080745346 0.0701402805611622  L 0.0621118012421675 0.420841683366746  C 0.0207039337474271 0.467601870407464  0 0.521376085504357  0 0.582164328657285  C 0 0.64295257181027  0.0207039337474271 0.696726786907192  0.0621118012421675 0.743486973947881  L 2.50310559006209 3.5  L 0.0621118012421675 6.25651302605212  Z " fill-rule="nonzero" fill="#ffffff" stroke="none" transform="matrix(1 0 0 1 683 168 )" />
  </g>
</svg>