<?xml version="1.0" encoding="utf-8"?>
<svg version="1.1" xmlns:xlink="http://www.w3.org/1999/xlink" width="6px" height="7px" xmlns="http://www.w3.org/2000/svg">
  <g transform="matrix(1 0 0 1 -4 -168 )">
    <path d="M 3.5527950310559 6.25651302605212  C 3.59420289855072 6.30327321309286  3.61490683229814 6.3570474281897  3.61490683229814 6.41783567134271  C 3.61490683229814 6.4786239144957  3.59420289855072 6.53239812959254  3.5527950310559 6.57915831663323  L 3.24223602484472 6.92985971943884  C 3.2008281573499 6.97661990647964  3.15320910973085 7  3.09937888198758 7  C 3.04554865424431 7  2.99792960662526 6.97661990647964  2.95652173913043 6.92985971943884  L 0.062111801242235 3.66132264529057  C 0.0207039337474111 3.61456245824985  0 3.56078824315293  0 3.5  C 0 3.43921175684707  0.0207039337474111 3.38543754175015  0.062111801242235 3.33867735470943  L 2.95652173913043 0.0701402805611622  C 2.99792960662526 0.023380093520359  3.04554865424431 0  3.09937888198758 0  C 3.15320910973085 0  3.2008281573499 0.023380093520359  3.24223602484472 0.0701402805611622  L 3.5527950310559 0.420841683366746  C 3.59420289855072 0.467601870407464  3.61490683229814 0.521376085504357  3.61490683229814 0.582164328657285  C 3.61490683229814 0.64295257181027  3.59420289855072 0.696726786907192  3.5527950310559 0.743486973947881  L 1.11180124223602 3.5  L 3.5527950310559 6.25651302605212  Z M 5.93788819875777 6.25651302605212  C 5.97929606625259 6.30327321309286  6 6.3570474281897  6 6.41783567134271  C 6 6.4786239144957  5.97929606625259 6.53239812959254  5.93788819875777 6.57915831663323  L 5.62732919254658 6.92985971943884  C 5.58592132505176 6.97661990647964  5.53830227743271 7  5.48447204968944 7  C 5.43064182194617 7  5.38302277432712 6.97661990647964  5.3416149068323 6.92985971943884  L 2.4472049689441 3.66132264529057  C 2.40579710144928 3.61456245824985  2.38509316770186 3.56078824315293  2.38509316770186 3.5  C 2.38509316770186 3.43921175684707  2.40579710144928 3.38543754175015  2.4472049689441 3.33867735470943  L 5.3416149068323 0.0701402805611622  C 5.38302277432712 0.023380093520359  5.43064182194617 0  5.48447204968944 0  C 5.53830227743271 0  5.58592132505176 0.023380093520359  5.62732919254658 0.0701402805611622  L 5.93788819875777 0.420841683366746  C 5.97929606625259 0.467601870407464  6 0.521376085504357  6 0.582164328657285  C 6 0.64295257181027  5.97929606625259 0.696726786907192  5.93788819875777 0.743486973947881  L 3.49689440993789 3.5  L 5.93788819875777 6.25651302605212  Z " fill-rule="nonzero" fill="#ffffff" stroke="none" fill-opacity="0.607843137254902" transform="matrix(1 0 0 1 4 168 )" />
  </g>
</svg>